<?xml version="1.0" encoding="iso-8859-1"?>
<!-- Generator: Adobe Illustrator 19.0.0, SVG Export Plug-In . SVG Version: 6.00 Build 0)  -->
<svg version="1.1" id="Capa_1" xmlns="http://www.w3.org/2000/svg" xmlns:xlink="http://www.w3.org/1999/xlink" x="0px" y="0px"
	 viewBox="0 0 512 512" style="enable-background:new 0 0 512 512;" xml:space="preserve">
<g>
	<g>
		<g>
			<path d="M484.837,106.149C437.162,35.713,368.754,0,281.504,0C170.022,0,82.82,76.731,71.99,86.679
				c-11.456-2.792-23.545,0.454-32.061,8.608L9.937,125.271c-13.241,13.282-13.241,34.773,0,48.054l328.725,328.721
				c6.371,6.373,15.013,9.954,24.025,9.954s17.654-3.581,24.025-9.954l29.992-29.984c13.241-13.282,13.241-34.773,0-48.054
				l-13.304-13.304l12.854-12.855c6.893,11.651,17.708,20.469,30.508,24.875c2.391,0.593,4.845,0.894,7.308,0.896
				c7.346-0.127,14.451-2.641,20.242-7.163c33.925-25.117,37.592-135.858,37.592-182.304l0.05-13.583
				C512.187,176.145,512.337,146.795,484.837,106.149z M22.004,161.258c-6.592-6.611-6.592-17.31,0-23.921h0l29.992-29.983
				c6.693-6.387,17.224-6.387,23.917,0l4.771,4.771l-53.909,53.904L22.004,161.258z M38.842,178.096l53.908-53.905l22.067,22.067
				l-53.908,53.905L38.842,178.096z M72.975,212.229l53.908-53.905l21.982,21.981L94.956,234.21L72.975,212.229z M107.023,246.277
				l53.908-53.904l22.067,22.066l-53.908,53.905L107.023,246.277z M141.157,280.41l53.908-53.905l22.059,22.059l-53.976,53.837
				L141.157,280.41z M175.215,314.467l53.976-53.837l22.16,22.159l-53.908,53.905L175.215,314.467z M209.51,348.761l53.908-53.905
				l22.067,22.067l-53.908,53.905L209.51,348.761z M243.643,382.895l53.908-53.905l22.067,22.067l-53.908,53.905L243.643,382.895z
				 M277.776,417.028l53.908-53.904l22.067,22.066l-53.908,53.905L277.776,417.028z M333.977,473.228l-22.067-22.067l53.908-53.905
				l19.461,19.461l0.016,0.024l0.024,0.016l2.565,2.565L333.977,473.228z M404.637,436.075c6.592,6.611,6.592,17.31,0,23.921
				l-29.992,29.983c-6.693,6.387-17.224,6.387-23.917,0l-4.685-4.685l53.908-53.904L404.637,436.075z M494.887,220.479l-0.05,13.675
				c0,72.608-9.483,152.896-30.675,168.588c-3.642,3.174-8.57,4.441-13.292,3.417c-10.726-2.624-20.324-16.901-24.191-24.059
				c0.077-9.488-0.164-49.562-9.309-69.87c-6.582-14.274-16.133-26.979-28.017-37.267c-3.666-2.964-9.04-2.395-12.004,1.271
				s-2.395,9.04,1.271,12.004c9.812,8.597,17.71,19.158,23.183,31c6.581,14.608,7.856,46.336,7.817,61.113l-18.288,18.288
				L88.033,95.342c20.679-17.543,99.098-78.276,193.47-78.276c81.233,0,144.892,33.192,189.2,98.65
				C495.245,151.987,495.12,176.313,494.887,220.479z"/>
			<path d="M379.229,55.296c-30.459-14.551-63.892-21.798-97.642-21.163c-36.366,0.469-72.281,8.127-105.675,22.533
				c-2.824,1.164-4.81,3.749-5.208,6.777c-0.398,3.028,0.853,6.038,3.281,7.892s5.66,2.269,8.477,1.089
				c31.32-13.539,65.007-20.752,99.125-21.225c31.116-0.729,61.963,5.909,90.025,19.371c4.212,2.067,9.303,0.346,11.397-3.853
				C385.103,62.518,383.414,57.417,379.229,55.296z"/>
		</g>
	</g>
</g>
<g>
</g>
<g>
</g>
<g>
</g>
<g>
</g>
<g>
</g>
<g>
</g>
<g>
</g>
<g>
</g>
<g>
</g>
<g>
</g>
<g>
</g>
<g>
</g>
<g>
</g>
<g>
</g>
<g>
</g>
</svg>
