<?xml version="1.0" encoding="iso-8859-1"?>
<!-- Generator: Adobe Illustrator 19.0.0, SVG Export Plug-In . SVG Version: 6.00 Build 0)  -->
<svg version="1.1" id="Layer_1" xmlns="http://www.w3.org/2000/svg" xmlns:xlink="http://www.w3.org/1999/xlink" x="0px" y="0px"
	 viewBox="0 0 512 512" style="enable-background:new 0 0 512 512;" xml:space="preserve">
<g>
	<path style="fill:#F95428;" d="M473.652,427.001v36.008l-42.527,13.206c-53.984,16.773-110.178,25.292-166.694,25.292H38.355
		v-36.008h226.077c56.516,0,112.71-8.519,166.694-25.292L473.652,427.001z"/>
	<rect x="38.355" y="10.49" style="fill:#F95428;" width="276.844" height="45.926"/>
</g>
<g>
	<rect x="38.355" y="10.49" style="fill:#E54728;" width="43.842" height="45.926"/>
	<rect x="38.355" y="463.71" style="fill:#E54728;" width="43.842" height="45.926"/>
</g>
<g>
	<path style="fill:#F7B239;" d="M473.652,423.602v3.399l-42.527,13.206c-53.984,16.773-110.178,25.292-166.694,25.292H38.355
		v-79.262h124.223c21.012,0,40.037-8.519,53.802-22.285c13.765-13.765,22.285-32.79,22.285-53.802
		c0-42.023,34.063-76.087,76.087-76.087h0.448v42.443c0,15.598,12.646,28.244,28.244,28.244h11.359
		c32.818,0,62.531,13.304,84.046,34.805C460.349,361.071,473.652,390.783,473.652,423.602z"/>
	<path style="fill:#F7B239;" d="M315.198,56.417v177.647h-0.448c-42.023,0-76.087,34.063-76.087,76.087
		c0,21.012-8.519,40.037-22.285,53.802c-13.765,13.765-32.79,22.285-53.802,22.285H38.355V56.417H315.198z"/>
</g>
<rect x="38.355" y="56.418" style="fill:#E09B2D;" width="43.842" height="409.082"/>
<g>
	<path style="fill:#FFFFFF;" d="M432.343,401.982c-4.117,0-8.023-2.438-9.699-6.48c-3.679-8.884-9.043-16.889-15.941-23.791
		c-13.869-13.859-32.304-21.494-51.904-21.494h-11.359c-32.541,0-60.854-20.904-70.452-52.016
		c-1.708-5.537,1.396-11.411,6.933-13.119c5.535-1.705,11.409,1.396,13.119,6.933c6.76,21.914,27.484,37.218,50.4,37.218H354.8
		c25.203,0,48.904,9.816,66.74,27.641c8.859,8.865,15.752,19.159,20.49,30.6c2.217,5.354-0.326,11.491-5.68,13.708
		C435.04,401.723,433.68,401.982,432.343,401.982z"/>
	<path style="fill:#FFFFFF;" d="M280.224,214.892c-5.796,0-10.492-4.698-10.492-10.492v-83.231c0-5.794,4.696-10.492,10.492-10.492
		s10.492,4.698,10.492,10.492V204.4C290.716,210.194,286.02,214.892,280.224,214.892z"/>
	<circle style="fill:#FFFFFF;" cx="280.23" cy="86.9" r="10.492"/>
</g>
<path style="fill:#333333;" d="M354.797,294.262h-11.349c-9.79,0-17.754-7.964-17.754-17.755V10.492
	C325.694,4.698,320.998,0,315.202,0H38.352C32.556,0,27.86,4.698,27.86,10.492v491.016c0,5.794,4.696,10.492,10.492,10.492h226.075
	c57.635,0,114.766-8.669,169.805-25.765l42.53-13.211c4.39-1.363,7.379-5.424,7.379-10.019v-39.397
	C484.141,352.285,426.118,294.262,354.797,294.262z M343.448,315.245h11.349c58.308,0,105.983,46.298,108.252,104.06l-35.041,10.885
	c-53.021,16.471-108.059,24.821-163.581,24.821H48.844v-58.287h113.738c47.736,0,86.574-38.836,86.574-86.574
	c0-32.755,24.134-59.978,55.555-64.823v31.179C304.709,297.868,322.086,315.245,343.448,315.245z M304.709,224.178
	c-43.023,4.991-76.538,41.633-76.538,85.974c0,36.167-29.423,65.591-65.591,65.591H48.844V66.903h255.866V224.178z M304.709,20.984
	v24.936H48.844V20.984H304.709z M428.008,466.196c-53.021,16.469-108.059,24.821-163.581,24.821H48.844v-15.021h215.583
	c57.634,0,114.765-8.669,169.805-25.766l28.927-8.985v14.032L428.008,466.196z"/>
<g>
</g>
<g>
</g>
<g>
</g>
<g>
</g>
<g>
</g>
<g>
</g>
<g>
</g>
<g>
</g>
<g>
</g>
<g>
</g>
<g>
</g>
<g>
</g>
<g>
</g>
<g>
</g>
<g>
</g>
</svg>
