<svg id="Capa_1" enable-background="new 0 0 512 512" height="512" viewBox="0 0 512 512" width="512" xmlns="http://www.w3.org/2000/svg"><g><path d="m314.343 504.5h-116.686c-6.63 0-12.005-5.375-12.005-12.005v-47.782l13.294-20h110.657l16.745 20v47.782c0 6.63-5.375 12.005-12.005 12.005z" fill="#ffc250"/><path d="m326.348 444.712-16.745-20h-4.74v67.782c0 6.63-5.375 12.005-12.005 12.005h21.485c1.658 0 3.237-.336 4.673-.943.718-.304 1.401-.675 2.039-1.107.319-.216.628-.446.924-.691 2.668-2.202 4.369-5.534 4.369-9.264z" fill="#ebb044"/><path d="m287.824 504.5h-63.648v-17.739c0-4.978 4.036-9.014 9.014-9.014h45.62c4.979 0 9.014 4.036 9.014 9.014z" fill="#f4fbff"/><path d="m278.81 477.747h-16.031c4.979 0 9.014 4.036 9.014 9.014v17.739h16.031v-17.739c0-4.978-4.035-9.014-9.014-9.014z" fill="#e4f6ff"/><path d="m336.839 444.713h-161.678c-5.391 0-9.923-4.047-10.531-9.403l-47.9-422.16c-.342-3.011 2.014-5.649 5.045-5.649h268.45c3.031 0 5.386 2.638 5.045 5.649l-47.9 422.16c-.608 5.356-5.14 9.403-10.531 9.403z" fill="#fff6cf"/><path d="m390.225 7.5h-21.781c3.031 0 5.386 2.638 5.045 5.649l-47.9 422.16c-.608 5.357-5.14 9.403-10.531 9.403h21.781c5.391 0 9.923-4.047 10.531-9.403l47.9-422.159c.342-3.012-2.014-5.65-5.045-5.65z" fill="#fff0af"/><g><circle cx="256" cy="194.725" fill="#ffc250" r="35.73"/><path d="m256 158.995c-3.083 0-6.074.39-8.928 1.124 15.413 3.965 26.803 17.955 26.803 34.606s-11.389 30.641-26.803 34.606c2.854.734 5.845 1.124 8.928 1.124 19.733 0 35.73-15.997 35.73-35.73s-15.997-35.73-35.73-35.73z" fill="#ebb044"/></g><path d="m263.65 85.772h-15.3c-4.564 0-8.265-3.7-8.265-8.265v-42.992h31.828v42.993c.001 4.564-3.699 8.264-8.263 8.264z" fill="#524798"/><path d="m310.69 333.998h-109.379c-3.425 0-6.202-2.777-6.202-6.202v-15.472c0-3.425 2.777-6.202 6.202-6.202h109.379c3.425 0 6.202 2.777 6.202 6.202v15.472c0 3.425-2.777 6.202-6.202 6.202z" fill="#524798"/><path d="m310.69 306.122h-17.855c3.425 0 6.202 2.777 6.202 6.202v15.472c0 3.425-2.777 6.202-6.202 6.202h17.855c3.425 0 6.202-2.777 6.202-6.202v-15.472c0-3.425-2.777-6.202-6.202-6.202z" fill="#453d81"/><g><path d="m256 237.956c23.837 0 43.23-19.393 43.23-43.23s-19.394-43.23-43.23-43.23-43.229 19.393-43.229 43.23c-.001 23.836 19.392 43.23 43.229 43.23zm0-71.461c15.566 0 28.23 12.664 28.23 28.23s-12.664 28.23-28.23 28.23c-15.565 0-28.229-12.664-28.229-28.23-.001-15.566 12.663-28.23 28.229-28.23z"/><path d="m256 145.171c4.143 0 7.5-3.358 7.5-7.5v-15.351c0-4.142-3.357-7.5-7.5-7.5s-7.5 3.358-7.5 7.5v15.352c0 4.141 3.357 7.499 7.5 7.499z"/><path d="m296.344 161.882c1.919 0 3.839-.732 5.304-2.197l10.854-10.855c2.929-2.929 2.929-7.678-.001-10.606-2.928-2.93-7.677-2.929-10.606 0l-10.854 10.855c-2.929 2.929-2.929 7.678.001 10.606 1.463 1.465 3.383 2.197 5.302 2.197z"/><path d="m328.405 187.225h-15.351c-4.143 0-7.5 3.358-7.5 7.5s3.357 7.5 7.5 7.5h15.351c4.143 0 7.5-3.358 7.5-7.5s-3.357-7.5-7.5-7.5z"/><path d="m291.041 229.765c-2.93 2.929-2.93 7.677-.001 10.606l10.854 10.855c1.465 1.465 3.384 2.197 5.304 2.197 1.919 0 3.839-.732 5.303-2.197 2.93-2.929 2.93-7.677.001-10.606l-10.854-10.855c-2.929-2.929-7.678-2.93-10.607 0z"/><path d="m248.5 251.779v15.351c0 4.143 3.357 7.5 7.5 7.5s7.5-3.357 7.5-7.5v-15.351c0-4.142-3.357-7.5-7.5-7.5s-7.5 3.358-7.5 7.5z"/><path d="m210.354 229.765-10.855 10.855c-2.93 2.929-2.93 7.677-.001 10.606 1.465 1.465 3.384 2.197 5.304 2.197 1.919 0 3.839-.732 5.303-2.197l10.855-10.855c2.93-2.929 2.93-7.677.001-10.606s-7.678-2.93-10.607 0z"/><path d="m206.446 194.725c0-4.142-3.357-7.5-7.5-7.5h-15.352c-4.143 0-7.5 3.358-7.5 7.5s3.357 7.5 7.5 7.5h15.352c4.143 0 7.5-3.358 7.5-7.5z"/><path d="m210.354 159.685c1.464 1.465 3.384 2.197 5.303 2.197s3.839-.732 5.304-2.197c2.929-2.929 2.929-7.678-.001-10.606l-10.855-10.855c-2.928-2.93-7.677-2.929-10.606 0s-2.929 7.678.001 10.606z"/><path d="m273.855 370.176c4.143 0 7.5-3.357 7.5-7.5s-3.357-7.5-7.5-7.5h-35.71c-4.143 0-7.5 3.357-7.5 7.5s3.357 7.5 7.5 7.5z"/><path d="m303.855 383.854h-95.711c-4.143 0-7.5 3.357-7.5 7.5s3.357 7.5 7.5 7.5h95.711c4.143 0 7.5-3.357 7.5-7.5s-3.357-7.5-7.5-7.5z"/><path d="m310.689 298.622h-109.379c-7.556 0-13.702 6.146-13.702 13.702v15.472c0 7.556 6.146 13.703 13.702 13.703h57.552c4.143 0 7.5-3.357 7.5-7.5s-3.357-7.5-7.5-7.5h-56.254v-12.877h106.783v12.877h-20.543c-4.143 0-7.5 3.357-7.5 7.5s3.357 7.5 7.5 7.5h21.841c7.556 0 13.702-6.147 13.702-13.703v-15.472c0-7.556-6.146-13.702-13.702-13.702z"/><path d="m399.607 4.201c-2.384-2.67-5.804-4.201-9.382-4.201h-204.573c-4.143 0-7.5 3.358-7.5 7.5s3.357 7.5 7.5 7.5h201.86l-1.363 12.015c-27.061 0-230.785 0-260.298 0l-1.363-12.015h31.177c4.143 0 7.5-3.358 7.5-7.5s-3.357-7.5-7.5-7.5h-33.89c-3.579 0-6.998 1.531-9.382 4.2s-3.519 6.239-3.115 9.795l2.414 21.277c.001.008.002.016.003.025l45.483 400.857c1.038 9.155 8.769 16.059 17.982 16.059h2.991v40.282c0 10.756 8.75 19.506 19.505 19.506h116.686c10.756 0 19.506-8.75 19.506-19.506v-40.282h2.99c9.213 0 16.943-6.903 17.983-16.058l47.9-422.16c.405-3.555-.731-7.125-3.114-9.794zm-135.193 37.814v35.493c0 .421-.343.765-.764.765h-15.3c-.422 0-.765-.343-.765-.765v-35.493zm54.434 450.48c0 2.484-2.021 4.506-4.506 4.506h-19.019v-10.239c0-9.105-7.408-16.514-16.514-16.514h-7.816c-4.143 0-7.5 3.357-7.5 7.5s3.357 7.5 7.5 7.5h7.816c.835 0 1.514.679 1.514 1.514v10.238h-48.648v-10.239c0-.835.68-1.514 1.515-1.514h7.816c4.143 0 7.5-3.357 7.5-7.5s-3.357-7.5-7.5-7.5h-7.816c-9.106 0-16.515 7.408-16.515 16.514v10.239h-19.019c-2.484 0-4.505-2.021-4.505-4.506v-40.282h125.696v40.283zm21.07-58.033c-.178 1.567-1.502 2.75-3.079 2.75-16.385 0-136.506 0-161.678 0-1.577 0-2.9-1.182-3.078-2.749l-44.53-392.449h105.032v35.493c0 8.693 7.072 15.765 15.765 15.765h15.3c8.692 0 15.764-7.072 15.764-15.765v-35.492h105.033z"/></g></g></svg>