<svg id="Capa_1" enable-background="new 0 0 512 512" height="512" viewBox="0 0 512 512" width="512" xmlns="http://www.w3.org/2000/svg"><g><g><g clip-rule="evenodd" fill-rule="evenodd"><path d="m256 7.5h188.753v30h-188.753z" fill="#e5ecf5"/><path d="m67.247 7.5h188.753v30h-188.753z" fill="#e5ecf5"/><path d="m283.888 504.5h167.848l1.249-52.578h-178.291z" fill="#e5ecf5"/><path d="m274.694 451.922h178.291l5.925-249.403c-66.893-54.597-71.293-139.251-66.337-165.02h-92.623v95.585c0 24.172-19.777 43.949-43.949 43.949v167.983z" fill="#b4d8f2"/><path d="m392.572 37.5c-4.956 25.769-.555 110.422 66.337 165.02l1.817-76.484-15.973-88.536z" fill="#6e91ef"/><path d="m60.264 504.5h167.849l9.194-52.578h-178.292z" fill="#e5ecf5"/><path d="m59.015 451.922 1.249 52.578h22.5l-1.249-52.578z" fill="#b0c5e0"/><path d="m59.015 451.922h178.291l18.694-106.905v-307.517h-136.572c4.955 25.769.555 110.422-66.338 165.02z" fill="#b4d8f2"/><path d="m256 177.034c24.172 0 43.949-19.777 43.949-43.949v-95.585h-43.949z" fill="#6e91ef"/><path d="m53.09 202.519c66.893-54.597 71.293-139.251 66.338-165.02h-52.181l-15.973 88.535z" fill="#6e91ef"/><path d="m67.247 7.5h22.5v30h-22.5z" fill="#b0c5e0"/><path d="m59.015 451.922h22.5l-5.437-271.979c-6.69 7.901-14.309 15.493-22.988 22.577z" fill="#6e91ef"/></g><g><path d="m435.052 259.383-14.996-.357.356-14.995 14.996.357zm.713-29.992-14.996-.355.355-14.996 14.996.355z" fill="#fff"/></g></g><g><path d="m384.236 497h15v15h-15z"/><path d="m452.253 36.831v-36.831h-392.506v36.83l-6.536 36.223 14.762 2.664 5.542-30.717h39.424c1.971 19.195-2.09 45.273-7.184 62.966-6.338 22.012-19.292 52.079-45.554 78.069l-1.412-59.419 6.521-36.135-14.762-2.664-6.79 37.634 9.182 386.549h181.476l21.584-123.44 21.585 123.44h91.651v-15h-79.046l-6.571-37.578h161.685l-.893 37.578h-30.175v15h44.823l9.165-385.788.018-.761zm-.454 149.204c-26.262-25.99-39.216-56.057-45.554-78.069-5.093-17.693-9.155-43.771-7.184-62.966h39.424l14.726 81.617zm-14.546-156.035h-62.215v-15h62.215zm-173.753 15h28.949v88.085c0 17.528-12.437 32.202-28.949 35.67zm0-15v-15h96.538v15zm-15 0h-96.538v-15h96.538zm-111.538-15v15h-62.215v-15zm-16.793 97.115c7.346-25.515 9.161-50.386 7.79-67.115h120.541v299.368l-17.496 100.054h-164.664l-5.666-238.477c35.386-30.106 51.875-67.361 59.495-93.83zm-52.58 384.885-.893-37.578h161.686l-6.571 37.578zm213.407-52.578-17.496-100.054v-160.386c24.826-3.643 43.949-25.075 43.949-50.897v-88.085h76.591c-1.371 16.729.444 41.6 7.791 67.115 7.62 26.469 24.109 63.724 59.495 93.83l-5.666 238.477z"/></g></g></svg>