<?xml version="1.0"?>
<svg xmlns="http://www.w3.org/2000/svg" id="Outline" viewBox="0 0 512 512" width="512" height="512"><path d="M344,264c0-8.669,2.485-20.577,5.363-34.366C354.1,206.928,360,178.67,360,144c0-56.337-15.576-119.288-16.239-121.94A8,8,0,0,0,336,16H176a8,8,0,0,0-7.761,6.06C167.576,24.712,152,87.663,152,144c0,34.67,5.9,62.928,10.637,85.634C165.515,243.423,168,255.331,168,264c0,10.605-1.7,23.292-3.5,36.723C162.392,316.47,160,334.318,160,352c0,17.74,4.548,48.359,8.947,77.971C172.574,454.389,176,477.453,176,488a8,8,0,0,0,8,8h40a8,8,0,0,0,7.977-7.386C232.3,484.354,240,384.031,240,360c0-11.5,2-27.519,3.938-43.008C245.936,301.017,248,284.5,248,272c0-19.927,5.678-102.6,7.418-127.463a.584.584,0,0,1,1.164,0C258.322,169.4,264,252.073,264,272c0,12.5,2.064,29.017,4.062,44.992C270,332.481,272,348.5,272,360c0,24.031,7.7,124.354,8.023,128.614A8,8,0,0,0,288,496h40a8,8,0,0,0,8-8c0-10.547,3.426-33.611,7.053-58.029C347.452,400.359,352,369.74,352,352c0-17.682-2.392-35.53-4.5-51.277C345.7,287.292,344,274.605,344,264Zm-8,88a263.155,263.155,0,0,1-2.176,28.139l-43.844,21.93c-.685-11.015-1.263-21.245-1.614-29.312l47.586-23.785C335.968,349.981,336,350.99,336,352ZM222.02,402.069l-43.844-21.93A263.155,263.155,0,0,1,176,352c0-1.01.032-2.019.048-3.028l47.586,23.785C223.283,380.824,222.705,391.054,222.02,402.069ZM191.642,480c-.962-12.616-3.744-31.342-6.869-52.38-1.376-9.269-2.814-18.949-4.118-28.351L220.9,419.4c-1.61,24.176-3.424,48.7-4.319,60.6ZM256,128a16.634,16.634,0,0,0-16.543,15.42C237.708,168.415,232,251.554,232,272c0,11.5-2,27.519-3.938,43.008-1.746,13.965-3.543,28.345-3.968,40.092l-47.115-23.551c.845-9.691,2.119-19.292,3.38-28.7C182.231,288.872,184,275.672,184,264c0-10.321-2.642-22.979-5.7-37.634C173.711,204.38,168,177.018,168,144c0-44.494,10.466-94.872,14.342-112H329.659C333.536,49.119,344,99.463,344,144c0,33.018-5.711,60.38-10.3,82.366C330.642,241.021,328,253.679,328,264c0,11.672,1.769,24.872,3.641,38.847,1.261,9.41,2.535,19.011,3.38,28.7L287.906,355.1c-.425-11.747-2.222-26.127-3.968-40.092C282,299.519,280,283.5,280,272c0-20.446-5.708-103.585-7.457-128.58A16.634,16.634,0,0,0,256,128Zm71.227,299.62c-3.125,21.038-5.907,39.764-6.869,52.38H295.417c-.895-11.9-2.709-36.425-4.319-60.6l40.247-20.13C330.041,408.671,328.6,418.351,327.227,427.62Z"/><rect x="304" y="48" width="16" height="16"/></svg>
