<svg height="480pt" viewBox="0 -144 480 480" width="480pt" xmlns="http://www.w3.org/2000/svg"><path d="m8 119.996094h464v40c0 13.257812-10.746094 24-24 24h-410c-16.570312 0-30-13.429688-30-30zm0 0" fill="#d3843d"/><path d="m176 119.996094h-48v-64l48-8zm0 0" fill="#b11e48"/><path d="m256 119.996094h-48v-80l48-8zm0 0" fill="#b11e48"/><path d="m472 7.996094-96 24h-88v88h104l-8-40 88-24zm0 0" fill="#b11e48"/><path d="m64 63.996094h32v56h-88c0-30.925782 25.070312-56 56-56zm0 0" fill="#b11e48"/><path d="m352 71.996094c0 8.839844-7.164062 16-16 16s-16-7.160156-16-16c0-8.835938 7.164062-16 16-16s16 7.164062 16 16zm0 0" fill="#da1c4b"/><g fill="#cfdfe8"><path d="m8 143.996094h40v16h-40zm0 0"/><path d="m64 143.996094h16v16h-16zm0 0"/><path d="m96 143.996094h16v16h-16zm0 0"/><path d="m128 143.996094h16v16h-16zm0 0"/><path d="m160 143.996094h16v16h-16zm0 0"/><path d="m192 143.996094h40v16h-40zm0 0"/><path d="m248 143.996094h16v16h-16zm0 0"/><path d="m280 143.996094h16v16h-16zm0 0"/><path d="m312 143.996094h16v16h-16zm0 0"/><path d="m344 143.996094h16v16h-16zm0 0"/><path d="m432 143.996094h16v16h-16zm0 0"/><path d="m376 143.996094h40v16h-40zm0 0"/></g><path d="m470.0625.238281-95.046875 23.757813h-87.015625c-4.417969 0-8 3.582031-8 8v80h-16v-80c0-2.347656-1.035156-4.578125-2.828125-6.097656-1.792969-1.519532-4.164063-2.175782-6.484375-1.789063l-48 8c-3.855469.640625-6.6875 3.976563-6.6875 7.886719v72h-16v-64c0-2.347656-1.035156-4.578125-2.828125-6.097656-1.792969-1.519532-4.164063-2.175782-6.484375-1.789063l-48 8c-3.855469.640625-6.6875 3.976563-6.6875 7.886719v56h-16v-48c0-4.417969-3.582031-8-8-8h-32c-35.328125.042968-63.9609375 28.671875-64 64v34c.0273438 20.976562 17.023438 37.976562 38 38h410c17.671875 0 32-14.324219 32-32v-40c0-4.417969-3.582031-8-8-8h-73.441406l-5.246094-26.246094 80.800781-22.03125c3.476563-.953125 5.886719-4.113281 5.886719-7.722656v-48c0-2.460938-1.136719-4.785156-3.074219-6.300782-1.941406-1.515624-4.472656-2.054687-6.863281-1.457031zm-254.0625 46.535157 32-5.328126v70.550782h-32zm-80 16 32-5.328126v54.550782h-32zm-72 9.222656h24v40h-71.335938c3.933594-23.078125 23.921876-39.96875 47.335938-40zm400 88c0 8.839844-7.164062 16-16 16h-410c-9.804688-.03125-18.402344-6.558594-21.0625-16h31.0625v-16h-32v-16h448zm0-110.109375-82.105469 22.398437c-4.066406 1.109375-6.574219 5.183594-5.734375 9.3125l6.078125 30.398438h-86.238281v-72h80c.652344.003906 1.304688-.078125 1.9375-.238282l86.0625-21.511718zm0 0"/><path d="m336 47.996094c-13.253906 0-24 10.746094-24 24 0 13.257812 10.746094 24 24 24s24-10.742188 24-24c0-13.253906-10.746094-24-24-24zm0 32c-4.417969 0-8-3.578125-8-8 0-4.417969 3.582031-8 8-8s8 3.582031 8 8c0 4.421875-3.582031 8-8 8zm0 0"/><path d="m64 143.996094h16v16h-16zm0 0"/><path d="m96 143.996094h16v16h-16zm0 0"/><path d="m128 143.996094h16v16h-16zm0 0"/><path d="m160 143.996094h16v16h-16zm0 0"/><path d="m192 143.996094h40v16h-40zm0 0"/><path d="m248 143.996094h16v16h-16zm0 0"/><path d="m280 143.996094h16v16h-16zm0 0"/><path d="m312 143.996094h16v16h-16zm0 0"/><path d="m344 143.996094h16v16h-16zm0 0"/><path d="m432 143.996094h16v16h-16zm0 0"/><path d="m376 143.996094h40v16h-40zm0 0"/></svg>