<svg id="Layer_1" height="512" viewBox="0 0 512 512" width="512" xmlns="http://www.w3.org/2000/svg" data-name="Layer 1"><path d="m216.39 152.37c0 .53-.02 1.06-.07 1.59-.13 1.4-.27 2.89-.44 4.45-.36 3.48-.82 7.34-1.42 11.51-22.87 7.81-39.21-3.79-39.21-3.79q1.2-7.71 2.06-15.56c1.26-11.61 13.28-19.32 25.08-15.99a18.727 18.727 0 0 1 14 17.79z" fill="#b0b5ca"/><path d="m214.46 169.92c-.66 4.75-1.49 9.89-2.52 15.32h-.01c-1.39 7.33-3.15 15.17-5.37 23.28-18.97 9.36-39.31-5.06-39.31-5.06h-.01a337.89 337.89 0 0 0 8.01-37.33s16.34 11.6 39.21 3.79z" fill="#6d7486"/><path d="m206.56 208.52a237.231 237.231 0 0 1 -15.87 42.47h-.01c-25.07 3.74-35.97-10.83-35.97-10.83h-.01a307.408 307.408 0 0 0 12.54-36.7h.01s20.34 14.42 39.31 5.06z" fill="#b0b5ca"/><path d="m164.2 289.76q-2.955 3.12-6.13 6.05a56.743 56.743 0 0 1 -22.16 12.55 60.544 60.544 0 0 1 -34.07.19c-.23-.06-.45-.13-.68-.19 11.12-3.4 22.87-14.35 33.78-30.58 0 0 6.2 16.18 29.26 11.98z" fill="#b0b5ca"/><path d="m190.68 250.99h.01a158.2 158.2 0 0 1 -26.48 38.77h-.01c-23.06 4.2-29.26-11.98-29.26-11.98a218.447 218.447 0 0 0 19.76-37.62h.01s10.9 14.57 35.97 10.83z" fill="#6d7486"/><path d="m14.14 383.38a23.844 23.844 0 0 1 -2.76-7.21s-2.85-9.22 6.96-22.3c0 0 27.29 29.49 93.91 6.41 73.91-25.6 125.6-1.13 125.6-1.13-6.31 5.18-13.14 10.82-20.62 17.02-60.63 50.21-181.84 44.21-203.09 7.22z" fill="#636096"/><path d="m335.4 288.91c-36.94 22-56.34 36.4-97.55 70.24 0 0-51.69-24.47-125.6 1.13-66.62 23.08-93.91-6.41-93.91-6.41 9.79-13.09 32.24-30.04 82.82-45.51.23.06.45.13.68.19a60.544 60.544 0 0 0 34.07-.19s31.34 28.47 126.03-33.53c44.43-29.1 73.46 14.08 73.46 14.08z" fill="#ea7288"/><path d="m342.85 130.74c-.08.82-1.53 17.46-1.7 39.18-.3 37 3.12 88.73 23.39 102.06-11 6.28-20.54 11.81-29.14 16.93 0 0-29.03-43.18-73.46-14.08-94.69 62-126.03 33.53-126.03 33.53a56.743 56.743 0 0 0 22.16-12.55q3.18-2.925 6.13-6.05h.01a158.2 158.2 0 0 0 26.48-38.77 237.231 237.231 0 0 0 15.87-42.47c2.22-8.11 3.98-15.95 5.37-23.28h.01c1.25 0 100.02-.35 130.91-54.5z" fill="#636096"/><path d="m342.85 130.74c-30.89 54.15-129.66 54.5-130.91 54.5 1.03-5.43 1.86-10.57 2.52-15.32.6-4.17 1.06-8.03 1.42-11.51 0 0 34.91 2.73 73.9-52.32 14.97-21.13 38.48-16.64 61.78-3.07a69.367 69.367 0 0 1 -8.71 27.72z" fill="#5fa8ed"/><path d="m381.63 124.94c-1.63 37.79-40.48 44.98-40.48 44.98.17-21.72 1.62-38.36 1.7-39.18a69.367 69.367 0 0 0 8.71-27.72 208.878 208.878 0 0 1 30.07 21.92z" fill="#5fcda4"/><path d="m425.8 169.92s29.02 50.79-48.06 94.54q-6.945 3.945-13.2 7.52c-20.27-13.33-23.69-65.06-23.39-102.06 0 0 38.85-7.19 40.48-44.98a402.569 402.569 0 0 1 44.17 44.98z" fill="#ea7288"/><path d="m425.8 169.92s29.02 50.79-48.06 94.54q-6.945 3.945-13.2 7.52c-11 6.28-20.54 11.81-29.14 16.93-36.94 22-56.34 36.4-97.55 70.24-6.31 5.18-13.14 10.82-20.62 17.02-60.63 50.21-181.84 44.21-203.09 7.22.53 1.81 19.31 63.08 143.74 43.54 58.93-9.25 98.77-38.56 143.43-76.18 65.52-55.19 76.55-29.64 136.6-75.92 71.56-55.14-12.11-104.91-12.11-104.91z" fill="#ccd3df"/><circle cx="294.39" cy="219.17" fill="#5fcda4" r="26.71"/><path d="m119.16 321.375c.23.06.45.145.68.2a60.546 60.546 0 0 0 34.07-.16 58.034 58.034 0 0 0 14.992-6.937c-23.71 2.3-32.992-6.123-32.992-6.123a60.544 60.544 0 0 1 -34.07.19c-.23-.06-.45-.13-.68-.19-50.58 15.47-73.03 32.42-82.82 45.51 0 0 6.086 6.572 19.518 11.082 10.515-12.795 33.164-28.847 81.302-43.572z" fill="#c46277"/><path d="m232.478 182.675a14.9 14.9 0 0 1 11.267-12.444c13.085-3.073 37.624-13.851 64.035-51.141 10.964-15.476 26.511-17.2 43.2-11.687.23-1.436.431-2.893.581-4.383-23.3-13.57-46.81-18.06-61.78 3.07-38.99 55.05-73.9 52.32-73.9 52.32-.36 3.48-.82 7.34-1.42 11.51-.66 4.75-1.49 9.89-2.52 15.32.35 0 8.346-.028 20.353-1.256.056-.4.113-.8.167-1.184z" fill="#5793c4"/><path d="m32 396.38a36.655 36.655 0 0 1 -2.69-7.206s-2.78-9.216 7.03-22.3c.473-.632.985-1.276 1.518-1.926-13.432-4.506-19.518-11.078-19.518-11.078-9.81 13.08-7.03 22.3-7.03 22.3a36.691 36.691 0 0 0 2.69 7.21v.01c4 6.741 11.146 12.446 20.685 16.976a28.526 28.526 0 0 1 -2.685-3.976z" fill="#4a4a70"/><path d="m182.2 303h.01a168.82 168.82 0 0 0 26.48-38.95 238.851 238.851 0 0 0 15.87-42.65c2.22-8.11 3.98-15.4 5.37-23.4h.01c.946-4.592 1.721-9.676 2.353-14.136a195.853 195.853 0 0 1 -20.353 1.136h-.01c-1.39 8-3.15 15.29-5.37 23.4a238.851 238.851 0 0 1 -15.87 42.65 168.82 168.82 0 0 1 -26.48 38.95h-.01q-2.955 3-6.13 5.93a56.61 56.61 0 0 1 -22.16 12.49s9.282 8.394 32.992 6.093a54.431 54.431 0 0 0 7.168-5.568c2.12-1.945 4.16-3.945 6.13-5.945z" fill="#4a4a70"/><g fill="#284268"><path d="m410.794 80.85h67.152a6 6 0 0 0 0-12h-67.152a6 6 0 0 0 0 12z"/><path d="m379.6 80.85h8.944a6 6 0 0 0 0-12h-8.944a6 6 0 0 0 0 12z"/><path d="m383.96 437.15a6 6 0 0 0 6 6h103.809a6 6 0 0 0 0-12h-103.809a6 6 0 0 0 -6 6z"/><path d="m362.659 443.15a6 6 0 0 0 0-12h-127a6 6 0 0 0 0 12z"/><path d="m477.946 394.769a6 6 0 0 0 0-12h-21.916a6 6 0 0 0 0 12z"/><path d="m428.416 382.769h-116.869a6 6 0 0 0 0 12h116.869a6 6 0 0 0 0-12z"/><path d="m501 331.565h-93.22a6 6 0 0 0 0 12h93.22a6 6 0 0 0 0-12z"/><path d="m8.578 385.706c1.194 3.584 7.241 18.927 26.749 31.872 19.3 12.809 45 19.236 76.735 19.234a302.813 302.813 0 0 0 46.752-3.953c61.762-9.7 102.826-40.846 146.363-77.522 33.86-28.523 52.255-34.747 71.73-41.335 17.528-5.93 35.653-12.062 64.667-34.419 21.858-16.843 32.352-35.182 31.193-54.506-1.955-32.585-36.692-55.807-42.966-59.744-7.3-8.793-67.625-79.795-112.948-79.795-.484 0-.97.008-1.451.024-12.535.428-22.8 6.167-30.517 17.058-26.859 37.916-51.481 46.994-62.506 49.148a24.843 24.843 0 0 0 -18.36-22.962 26.289 26.289 0 0 0 -21.9 3.468 24.524 24.524 0 0 0 -10.773 17.653c-8.632 79.656-44.842 144.405-71.942 152.7-60.514 18.508-82.399 39.729-90.104 54.273-5.7 10.766-4.261 18.681-3.759 20.647a30.04 30.04 0 0 0 3.037 8.159zm340.157-253.318a73.9 73.9 0 0 0 7.3-19.521 218.713 218.713 0 0 1 19.392 14.668c-2.227 21.281-18.438 30.6-28.144 34.315.339-14.711 1.172-25.979 1.452-29.462zm37.18 4.381a409.6 409.6 0 0 1 34.885 36.51c2.536 4.932 21.784 47.48-46.019 85.967-3.342 1.9-6.552 3.722-9.657 5.492-9.847-9.67-16.061-34.752-17.606-71.534-.267-6.351-.375-12.612-.379-18.578 13.524-3.994 32.884-15.342 38.776-37.857zm-164.645 27.354c12.225-1.506 41.813-9.966 73.407-54.567 5.508-7.776 12.42-11.7 21.13-12 8.254-.294 18.115 2.664 29.274 8.687-4.608 29.4-27.44 50.55-67.957 62.9-23.436 7.144-46.658 9.231-58.014 9.84.907-5.389 1.616-10.393 2.16-14.86zm-4.438 27c10.556-.406 36.553-2.23 63.54-10.42 23.732-7.2 42.279-17.607 55.286-30.83-.5 11.641-.821 27.278-.135 43.72 1.591 38.123 7.958 64.02 18.954 77.24-6.329 3.637-12.162 7.021-17.62 10.238a70.708 70.708 0 0 0 -18.6-15.344c-13.137-7.339-34.143-12.589-59.611 4.087-58.414 38.247-91.378 40.9-107.1 38.237a61.517 61.517 0 0 0 10.592-7.82c32.352-29.804 47.556-74.68 54.694-109.112zm-33.554-39.9a12.38 12.38 0 0 1 5.557-9 14.179 14.179 0 0 1 7.944-2.418 14.643 14.643 0 0 1 3.979.554c6.08 1.717 10.111 7.211 9.583 13.064-.306 3.391-.73 7.391-1.311 11.862a40.014 40.014 0 0 1 -27.247-2.343c.561-3.906 1.071-7.813 1.495-11.722zm-3.47 23.9a51.775 51.775 0 0 0 18.76 3.511 53.134 53.134 0 0 0 8.562-.7c-1.368 8.021-3.2 16.914-5.653 26.232-10.625 3.853-21.751-.641-27.256-3.539 2.179-8.37 4.034-16.902 5.587-25.509zm-8.891 37.287a51.737 51.737 0 0 0 21.768 5.289 39.168 39.168 0 0 0 4.957-.325 225.16 225.16 0 0 1 -10.962 28.048c-13.352 1.164-21.331-3.644-24.928-6.655 3.387-8.467 6.448-17.291 9.165-26.362zm-17.764 45.69c1.294-2.613 2.541-5.294 3.768-8a44.188 44.188 0 0 0 23.451 7.461 146.243 146.243 0 0 1 -19.145 26.6c-11.4 1.508-16.9-3.069-19.246-6.148a209.723 209.723 0 0 0 11.172-19.913zm-18.182 30a29.241 29.241 0 0 0 13.883 7.432 52.8 52.8 0 0 1 -29.659 9.376 98.6 98.6 0 0 0 15.776-16.808zm-33.733 26.514a66.583 66.583 0 0 0 33.566.268c4.043 2.42 12.355 6 26.154 6q1.293 0 2.649-.043c27.222-.875 61.41-14.667 101.615-40.991 30.377-19.889 52.484-2.011 61.174 7.456-13.031 7.879-24.038 14.978-35.084 22.738a6 6 0 0 0 -1.085 8.829l.008.009a6 6 0 0 0 8 .988c22.048-15.483 43.932-28.311 82.475-50.188 29.754-16.889 47.983-36.908 54.181-59.5a62.54 62.54 0 0 0 1.759-24.68c10.461 9.14 23.156 23.556 24.146 40.327.891 15.1-8.039 29.99-26.541 44.247-27.43 21.137-43.828 26.685-61.189 32.558-19.675 6.656-40.019 13.538-75.615 43.524-42.136 35.5-81.791 65.628-140.494 74.845-54.731 8.594-87.619.954-106.731-8.65 14.633 4.033 31.643 6.125 49.5 6.125 42.718 0 90.235-11.933 121.336-37.693 17.584-14.563 31.61-26.087 43.835-35.8a6 6 0 0 0 -7.472-9.4c-6.3 5.009-13.088 10.5-20.575 16.628-13.211-5.14-61.351-20.194-126.561 2.393-32.369 11.213-54.515 9.244-67.394 5.616a55.727 55.727 0 0 1 -16-7.179c10.381-11.123 31.527-25.136 74.343-38.427zm-81.4 48.18c7.426 5.094 22.046 12.338 45.188 12.338 13.44 0 29.757-2.447 49.192-9.178 52.7-18.256 94.006-10.112 111.7-4.746q-5.952 4.906-12.5 10.336c-20.363 16.866-50.217 28.6-84.061 33.024-30.218 3.956-61.488 1.644-83.647-6.183-16.454-5.813-26.552-14.127-28.434-23.411a2.54 2.54 0 0 0 -.118-.5c-.127-.62-.753-5.019 2.677-11.68z"/><path d="m294.388 251.881a32.711 32.711 0 1 0 -32.711-32.711 32.747 32.747 0 0 0 32.711 32.711zm0-53.422a20.711 20.711 0 1 1 -20.711 20.711 20.735 20.735 0 0 1 20.711-20.711z"/></g></svg>