<?xml version="1.0" encoding="iso-8859-1"?>
<!-- Generator: Adobe Illustrator 19.0.0, SVG Export Plug-In . SVG Version: 6.00 Build 0)  -->
<svg version="1.1" id="Layer_1" xmlns="http://www.w3.org/2000/svg" xmlns:xlink="http://www.w3.org/1999/xlink" x="0px" y="0px"
	 viewBox="0 0 371 371" style="enable-background:new 0 0 371 371;" xml:space="preserve">
<g>
	<g>
		<g>
			<path d="M369.154,155.572l-95-109C272.729,44.938,270.668,44,268.5,44h-46.095c-2.076,0-4.061,0.861-5.479,2.378
				c-1.418,1.517-2.144,3.554-2.005,5.625C214.976,52.792,215,53.427,215,54c0,15.991-13.01,29-29,29s-29-13.009-29-29
				c0-0.573,0.024-1.207,0.078-1.997c0.139-2.072-0.587-4.109-2.005-5.625c-1.418-1.517-3.402-2.378-5.479-2.378H102.5
				c-2.168,0-4.229,0.938-5.654,2.572l-95,109c-2.628,3.016-2.427,7.564,0.458,10.336l51,49c1.457,1.399,3.398,2.154,5.435,2.088
				c2.019-0.064,3.926-0.939,5.29-2.428L95,180.781V319.5c0,4.142,3.357,7.5,7.5,7.5h166c4.143,0,7.5-3.358,7.5-7.5V180.781
				l30.972,33.787c1.364,1.489,3.271,2.364,5.29,2.428c2.023,0.054,3.978-0.689,5.435-2.088l51-49
				C371.581,163.137,371.782,158.588,369.154,155.572z M261,312H110v-20h151V312z M312.841,198.772l-38.813-42.34
				c-2.089-2.279-5.364-3.043-8.247-1.922c-2.883,1.121-4.781,3.897-4.781,6.99V277H110V161.5c0-3.093-1.898-5.869-4.781-6.99
				c-2.883-1.121-6.159-0.358-8.247,1.922l-38.813,42.34l-40.311-38.73L105.912,59h36.37c2.489,21.918,21.145,39,43.718,39
				s41.229-17.082,43.718-39h35.37l88.063,101.042L312.841,198.772z"/>
			<path d="M243.5,173c-4.143,0-7.5,3.358-7.5,7.5v67c0,4.142,3.357,7.5,7.5,7.5s7.5-3.358,7.5-7.5v-67
				C251,176.358,247.643,173,243.5,173z"/>
		</g>
	</g>
</g>
<g>
</g>
<g>
</g>
<g>
</g>
<g>
</g>
<g>
</g>
<g>
</g>
<g>
</g>
<g>
</g>
<g>
</g>
<g>
</g>
<g>
</g>
<g>
</g>
<g>
</g>
<g>
</g>
<g>
</g>
</svg>
