<svg height="512pt" viewBox="-131 0 511 512" width="512pt" xmlns="http://www.w3.org/2000/svg"><path d="m228.480469 56.347656h-166.664063v-38.867187c0-5.511719 4.46875-9.980469 9.980469-9.980469h146.703125c5.515625 0 9.980469 4.46875 9.980469 9.980469zm0 0" fill="#7296b1"/><path d="m61.253906 51.425781c-5.511718 0-9.980468 4.46875-9.980468 9.980469v311.992188c0 32.128906-12.761719 62.945312-35.480469 85.671874-5.199219 5.191407-7.792969 12.007813-7.792969 18.824219 0 6.816407 2.59375 13.632813 7.792969 18.820313v.011718c10.402343 10.386719 27.257812 10.386719 37.65625 0l27.636719-27.636718 14.570312-14.582032c12.746094-12.734374 19.902344-30.019531 19.902344-48.035156v-265.691406c0-8.171875 6.621094-14.792969 14.789062-14.792969h32.175782c8.167968 0 14.789062 6.621094 14.789062 14.792969v232.617188c0 32.125-12.761719 62.945312-35.480469 85.671874-5.199219 5.1875-7.792969 12.003907-7.792969 18.820313s2.597657 13.632813 7.792969 18.824219v.007812c10.402344 10.390625 27.257813 10.390625 37.65625 0l27.636719-27.632812 14.570312-14.582032c12.746094-12.734374 19.902344-30.023437 19.902344-48.035156v-345.066406c0-5.511719-4.46875-9.980469-9.980468-9.980469zm0 0" fill="#3f6b86"/><path d="m241.597656 61.40625v345.066406c0 18.015625-7.15625 35.300782-19.898437 48.035156l-14.570313 14.582032-27.636718 27.636718c-9.761719 9.761719-25.222657 10.347657-35.679688 1.777344 6.4375-.261718 12.792969-2.84375 17.714844-7.765625l27.636718-27.636719 14.570313-14.582031c12.746094-12.734375 19.902344-30.019531 19.902344-48.035156v-345.066406c0-1.417969-.300781-2.773438-.839844-3.992188h8.820313c5.511718 0 9.980468 4.472657 9.980468 9.980469zm0 0" fill="#2d5b72"/><path d="m115.558594 384.707031v21.765625c0 18.015625-7.15625 35.300782-19.902344 48.035156l-14.570312 14.582032c-14.480469-15.070313-18.421876-38.292969-8.132813-57.796875 8.671875-16.457031 25.25-26.058594 42.605469-26.585938zm0 0" fill="#7296b1"/><path d="m241.597656 384.707031v21.765625c0 18.015625-7.15625 35.300782-19.898437 48.035156l-14.570313 14.582032c-4.0625-4.21875-7.296875-9.089844-9.613281-14.339844-5.957031-13.464844-5.929687-29.421875 1.476563-43.457031 5.578124-10.578125 14.421874-18.332031 24.644531-22.644531 5.667969-2.40625 11.765625-3.75 17.960937-3.941407zm0 0" fill="#7296b1"/><path d="m241.597656 384.707031v21.765625c0 18.015625-7.15625 35.300782-19.898437 48.035156l-14.570313 14.582032c-4.0625-4.21875-7.296875-9.089844-9.613281-14.339844l6.21875-6.226562c12.742187-12.734376 19.898437-30.023438 19.898437-48.039063v-11.835937c5.671876-2.40625 11.769532-3.75 17.964844-3.941407zm0 0" fill="#5b7fa0"/><path d="m235.980469 44.5v-27.019531c0-9.640625-7.839844-17.480469-17.480469-17.480469h-146.703125c-9.640625 0-17.480469 7.839844-17.480469 17.480469v27.890625c-6.195312 2.691406-10.542968 8.863281-10.542968 16.035156v311.992188c0 30.355468-11.820313 58.894531-33.277344 80.363281-6.445313 6.433593-9.996094 15.003906-9.996094 24.132812 0 9.007813 3.457031 17.472657 9.746094 23.878907.082031.085937.164062.171874.25.257812 6.652344 6.644531 15.386718 9.96875 24.125 9.96875 8.738281 0 17.480468-3.324219 24.132812-9.972656l42.203125-42.214844c14.253907-14.238281 22.101563-33.183594 22.101563-53.339844v-170.203125c0-4.140625-3.359375-7.5-7.5-7.5-4.144532 0-7.5 3.359375-7.5 7.5v141.632813c-17.6875 2.824218-33.273438 13.828125-41.742188 29.890625-10.398437 19.710937-8.394531 43.308593 4.601563 60.851562l-22.769531 22.777344c-7.394532 7.386719-19.390626 7.449219-26.863282.1875-.0625-.070313-.125-.136719-.191406-.199219-3.605469-3.601562-5.59375-8.398437-5.59375-13.515625 0-5.117187 1.988281-9.917969 5.601562-13.519531 24.292969-24.308594 37.671876-56.617188 37.671876-90.976562v-311.992188c0-1.367188 1.113281-2.480469 2.480468-2.480469h68.171875v59.585938c-11.863281.488281-21.367187 10.285156-21.367187 22.269531v60.964844c0 4.140625 3.355468 7.5 7.5 7.5 4.140625 0 7.5-3.359375 7.5-7.5v-60.964844c0-4.019531 3.269531-7.292969 7.289062-7.292969h32.175782c4.019531 0 7.289062 3.273438 7.289062 7.292969v232.617188c0 30.355468-11.820312 58.894531-33.277344 80.363281-6.445312 6.433593-9.996094 15.003906-9.996094 24.132812 0 9.007813 3.457032 17.472657 9.746094 23.878907.082032.085937.164063.171874.246094.257812 6.652344 6.648438 15.390625 9.96875 24.128906 9.96875 8.738282 0 17.480469-3.324219 24.132813-9.972656l42.207031-42.214844c14.25-14.238281 22.097656-33.183594 22.097656-53.339844v-99.199218c0-4.144532-3.355468-7.5-7.5-7.5-4.144531 0-7.5 3.355468-7.5 7.5v70.628906c-17.6875 2.824218-33.273437 13.828125-41.738281 29.890625-10.402344 19.710937-8.394531 43.3125 4.597656 60.851562l-22.769531 22.777344c-7.394531 7.386719-19.386719 7.453125-26.859375.1875-.0625-.070313-.128906-.136719-.195313-.203125-3.605468-3.597656-5.59375-8.398438-5.59375-13.511719 0-5.117187 1.988282-9.917969 5.601563-13.523437 24.296875-24.304688 37.675781-56.613282 37.675781-90.972656v-232.617188c0-12.292969-10-22.292969-22.292968-22.292969h-18.09375v-59.5625h87.1875c1.367187 0 2.480468 1.113281 2.480468 2.480469v43.335938c0 4.144531 3.359375 7.5 7.5 7.5 4.144532 0 7.5-3.355469 7.5-7.5v-43.335938c0-8.128906-5.585937-14.960938-13.117187-16.90625zm-156.394531 370.289062c5.875-11.144531 16.390624-18.976562 28.472656-21.617187v13.300781c0 15.914063-6.453125 31.488282-17.707032 42.734375l-8.664062 8.667969c-8.417969-12.730469-9.421875-29.207031-2.101562-43.085938zm126.039062 0c5.875-11.144531 16.390625-18.976562 28.472656-21.617187v13.300781c0 15.914063-6.453125 31.488282-17.703125 42.734375l-8.667969 8.667969c-8.417968-12.730469-9.421874-29.207031-2.101562-43.085938zm-133.828125-399.789062h146.703125c1.371094 0 2.480469 1.113281 2.480469 2.480469v6.949219h-23.097657c-4.144531 0-7.5 3.355468-7.5 7.5 0 4.140624 3.355469 7.5 7.5 7.5h23.097657v4.496093h-151.664063v-4.496093h25.359375c4.140625 0 7.5-3.359376 7.5-7.5 0-4.144532-3.359375-7.5-7.5-7.5h-25.359375v-6.949219c0-1.367188 1.109375-2.480469 2.480469-2.480469zm0 0"/><path d="m241.597656 131.765625c-4.144531 0-7.5 3.359375-7.5 7.5v133.484375c0 4.140625 3.355469 7.5 7.5 7.5 4.140625 0 7.5-3.359375 7.5-7.5v-133.484375c0-4.140625-3.359375-7.5-7.5-7.5zm0 0"/><path d="m132.84375 39.429688h29.523438c4.140624 0 7.5-3.359376 7.5-7.5 0-4.144532-3.359376-7.5-7.5-7.5h-29.523438c-4.144531 0-7.5 3.355468-7.5 7.5 0 4.140624 3.355469 7.5 7.5 7.5zm0 0"/></svg>