<svg height="480pt" viewBox="0 0 480 480.68926" width="480pt" xmlns="http://www.w3.org/2000/svg"><path d="m112.34375 72.351562h112v400h-112zm0 0" fill="#f9e712"/><path d="m368.34375 472.351562h-112v-400h112zm0 0" fill="#f9e712"/><g fill="#7fcac9"><path d="m47.9375 5.503906c-1.078125-3.285156-4.144531-5.503906-7.601562-5.503906-3.453126 0-6.519532 2.21875-7.597657 5.503906l-14.714843 44.191406c-3.679688 11.027344 1.25 23.089844 11.597656 28.386719 10.347656 5.300781 23.015625 2.246094 29.8125-7.1875 4.453125-6.125 5.648437-14.035156 3.199218-21.199219zm0 0"/><path d="m459.433594 70.894531c4.453125-6.125 5.648437-14.035156 3.199218-21.199219l-14.695312-44.191406c-1.078125-3.285156-4.144531-5.503906-7.601562-5.503906-3.453126 0-6.519532 2.21875-7.597657 5.503906l-14.714843 44.191406c-3.679688 11.027344 1.25 23.089844 11.597656 28.386719 10.347656 5.300781 23.015625 2.246094 29.8125-7.1875zm0 0"/><path d="m160.394531 173.148438c-1.082031-3.28125-4.144531-5.5-7.601562-5.5s-6.519531 2.21875-7.601563 5.5l-14.734375 44.203124c-3.230469 9.707032.183594 20.394532 8.449219 26.429688s19.484375 6.035156 27.75 0 11.679688-16.722656 8.449219-26.429688zm0 0"/><path d="m31.472656 405.503906c-1.078125-3.285156-4.144531-5.503906-7.601562-5.503906-3.453125 0-6.519532 2.21875-7.597656 5.503906l-14.710938 44.191406c-3.695312 11.03125 1.234375 23.109376 11.589844 28.410157 10.355468 5.300781 23.035156 2.234375 29.824218-7.210938 4.453126-6.125 5.644532-14.035156 3.199219-21.199219zm0 0"/><path d="m478.664062 449.695312-14.726562-44.191406c-1.078125-3.285156-4.144531-5.503906-7.601562-5.503906-3.453126 0-6.519532 2.21875-7.597657 5.503906l-14.714843 44.191406c-3.238282 9.710938.175781 20.402344 8.445312 26.441407 8.265625 6.035156 19.488281 6.035156 27.753906 0 8.265625-6.039063 11.679688-16.730469 8.441406-26.441407zm0 0"/><path d="m319.9375 357.148438c-1.078125-3.28125-4.144531-5.5-7.601562-5.5-3.453126 0-6.519532 2.21875-7.597657 5.5l-14.714843 44.226562c-3.238282 9.710938.175781 20.402344 8.445312 26.441406 8.265625 6.039063 19.488281 6.039063 27.753906 0 8.265625-6.039062 11.679688-16.730468 8.441406-26.441406zm0 0"/></g><path d="m48.34375 328.351562h64v32h-64zm0 0" fill="#f76014"/><path d="m368.34375 328.351562h64v32h-64zm0 0" fill="#f76014"/><path d="m192.34375 176.351562c-4.417969 0-8-3.582031-8-8v-96c0-4.417968 3.582031-8 8-8s8 3.582032 8 8v96c0 4.417969-3.582031 8-8 8zm0 0" fill="#f76014"/><path d="m288.34375 176.351562c-4.417969 0-8-3.582031-8-8v-96c0-4.417968 3.582031-8 8-8s8 3.582032 8 8v96c0 4.417969-3.582031 8-8 8zm0 0" fill="#f76014"/><path d="m224.34375 72.351562h32v384h-32zm0 0" fill="#f76014"/><path d="m144.34375 344.351562c-3.234375-.003906-6.148438-1.953124-7.386719-4.941406-1.238281-2.988281-.554687-6.429687 1.730469-8.714844l48-48c3.140625-3.03125 8.128906-2.988281 11.214844.097657 3.085937 3.085937 3.128906 8.074219.097656 11.214843l-48 48c-1.5 1.5-3.535156 2.339844-5.65625 2.34375zm0 0" fill="#f7a014"/><path d="m336.34375 344.351562c-2.121094-.003906-4.15625-.84375-5.65625-2.34375l-48-48c-3.03125-3.140624-2.988281-8.128906.097656-11.214843 3.085938-3.085938 8.078125-3.128907 11.214844-.097657l48 48c2.289062 2.285157 2.972656 5.726563 1.734375 8.714844-1.238281 2.988282-4.152344 4.9375-7.390625 4.941406zm0 0" fill="#f7a014"/><path d="m398.34375 72.351562h-14l-32-64-112 64h128v256h48v-232c0-13.257812-8.054688-24-18-24zm0 0" fill="#f7a014"/><path d="m88.34375 72.351562h-6c-9.941406 0-18 10.742188-18 24v232h48v-256h128l-112-64zm0 0" fill="#f7a014"/></svg>