<svg id="flat" height="512" viewBox="0 0 512 512" width="512" xmlns="http://www.w3.org/2000/svg"><path d="m376 72a54.62737 54.62737 0 0 1 16 38.62737v337.37263h-88l-48-264-48 264h-88v-337.37261a54.62737 54.62737 0 0 1 16-38.62739z" fill="#548aff"/><g fill="#4f7ff7"><path d="m136 24h240v48h-240z"/><path d="m120 448h88v40h-88z"/><path d="m304 448h88v40h-88z"/></g><path d="m208 40h32v16h-32z" fill="#486be0"/><path d="m272 40h32v16h-32z" fill="#486be0"/><path d="m216 48h16v72h-16z" fill="#7dafff"/><path d="m280 48h16v72h-16z" fill="#7dafff"/></svg>