<svg height="512" viewBox="0 0 512 512" width="512" xmlns="http://www.w3.org/2000/svg"><g id="flat"><path d="m344 360.44v87.56h-144v-155.21a319.672 319.672 0 0 0 -6.22-62.78l-9.78-48.91 72-32 40.78 59.32a268.291 268.291 0 0 1 45.25 119.58q.975 7.965 1.46 16c.34 5.46.51 10.95.51 16.44z" fill="#b94137"/><path d="m288 77.1a146.684 146.684 0 0 0 -64.344-1.531l-7.656 1.531-19-30.487 19-17.513 11.232-2.246a146.655 146.655 0 0 1 57.536 0l11.232 2.246 15.849 58.9z" fill="#a23930"/><path d="m256 149.09v.01l-1.4.62-70.6 31.38-1.41-3.77-3.01-8.03a172.486 172.486 0 0 1 -4.91-106l.91-3.33a41.893 41.893 0 0 1 40.42-30.87v9.51a172.5 172.5 0 0 0 40 110.48z" fill="#b94137"/><path d="m208 496a8 8 0 0 1 -8-8v-40a8 8 0 0 1 16 0v40a8 8 0 0 1 -8 8z" fill="#f55648"/><path d="m240 496a8 8 0 0 1 -8-8v-40a8 8 0 0 1 16 0v40a8 8 0 0 1 -8 8z" fill="#f55648"/><path d="m272 496a8 8 0 0 1 -8-8v-40a8 8 0 0 1 16 0v40a8 8 0 0 1 -8 8z" fill="#f55648"/><path d="m304 496a8 8 0 0 1 -8-8v-40a8 8 0 0 1 16 0v40a8 8 0 0 1 -8 8z" fill="#f55648"/><path d="m336 496a8 8 0 0 1 -8-8v-40a8 8 0 0 1 16 0v40a8 8 0 0 1 -8 8z" fill="#f55648"/><g fill="#dbdbdb"><path d="m256 248h16v16h-16z"/><path d="m232 272h16v16h-16z"/><path d="m256 296h16v16h-16z"/><path d="m280 272h16v16h-16z"/><path d="m200 416h144v32h-144z"/><path d="m260.686 364.686h22.627v22.627h-22.627z" transform="matrix(.707 -.707 .707 .707 -186.205 302.461)"/><path d="m204.686 364.686h22.627v22.627h-22.627z" transform="matrix(.707 -.707 .707 .707 -202.607 262.863)"/><path d="m316.686 364.686h22.627v22.627h-22.627z" transform="matrix(.707 -.707 .707 .707 -169.803 342.059)"/><path d="m343.49 344h-143.49v-16h142.03q.975 7.965 1.46 16z"/></g><path d="m337.45 93.89a187.877 187.877 0 0 1 -3.07 34.49c-3.98 21.36-12.39 43.32-28.18 62.69a67.2 67.2 0 0 1 -25.91 21.36l-94.12 43.92a10 10 0 0 1 -13.72-5.9l-17.43-52.29a10.008 10.008 0 0 1 5.9-12.5l21.67-8.33 71.93-27.66 1.48-.57v-.01l.13-.16a172.086 172.086 0 0 0 39.87-110.11v-9.72a39.746 39.746 0 0 1 39.38 34.51 231.461 231.461 0 0 1 2.04 27.01q.03 1.62.03 3.27z" fill="#dc4d41"/><path d="m337.45 93.89a187.877 187.877 0 0 1 -3.07 34.49l-20.78-15.28-59 36.62-.08-.05-49.73-36.57-33.71 24.79a172.272 172.272 0 0 1 -2.25-38.35l35.96-26.44 17.92 13.18a172.446 172.446 0 0 0 33.29 62.81l.13-.16a171.706 171.706 0 0 0 31.33-56.61l26.14-19.22 23.82 17.52q.03 1.62.03 3.27z" fill="#cbcbcb"/></g></svg>