<?xml version="1.0" encoding="iso-8859-1"?>
<!-- Generator: Adobe Illustrator 17.1.0, SVG Export Plug-In . SVG Version: 6.00 Build 0)  -->
<!DOCTYPE svg PUBLIC "-//W3C//DTD SVG 1.1//EN" "http://www.w3.org/Graphics/SVG/1.1/DTD/svg11.dtd">
<svg version="1.1" id="Capa_1" xmlns="http://www.w3.org/2000/svg" xmlns:xlink="http://www.w3.org/1999/xlink" x="0px" y="0px"
	 viewBox="0 0 470 470" style="enable-background:new 0 0 470 470;" xml:space="preserve">
<g>
	<path d="M460.125,397.301h-1.822v-21.444c0-25.882-20.539-51.581-45.784-57.287L297.32,292.532
		c-16.039-3.625-29.91-18.82-33.296-35.156h1.942c4.143,0,7.5-3.358,7.5-7.5s-3.357-7.5-7.5-7.5h-2.736v-39.035h2.736
		c4.143,0,7.5-3.358,7.5-7.5s-3.357-7.5-7.5-7.5h-2.736v-39.035h2.736c4.143,0,7.5-3.358,7.5-7.5s-3.357-7.5-7.5-7.5h-2.736v-25.572
		c12.914-3.338,22.48-15.087,22.48-29.03V29.98c0-16.531-13.449-29.98-29.98-29.98H32.355C15.824,0,2.375,13.449,2.375,29.98v49.725
		c0,13.942,9.567,25.692,22.48,29.03v288.601c-3.819,0.349-6.811,3.556-6.811,7.465v36.298c0,15.936,12.965,28.901,28.9,28.901
		c8.475,0,16.11-3.667,21.401-9.497c5.291,5.83,12.926,9.497,21.4,9.497s16.11-3.667,21.401-9.497
		c5.291,5.83,12.926,9.497,21.4,9.497c13.343,0,24.603-9.089,27.914-21.401h79.141C242.915,460.911,254.175,470,267.518,470
		c8.475,0,16.11-3.667,21.401-9.497c5.291,5.83,12.926,9.497,21.4,9.497s16.11-3.667,21.401-9.497
		c5.291,5.83,12.926,9.497,21.4,9.497s16.109-3.667,21.4-9.497c5.291,5.83,12.927,9.497,21.401,9.497s16.109-3.667,21.4-9.497
		c5.291,5.83,12.927,9.497,21.401,9.497c15.936,0,28.9-12.965,28.9-28.901v-36.298C467.625,400.659,464.268,397.301,460.125,397.301
		z M442.508,368.357H115.537c-4.143,0-7.5,3.358-7.5,7.5s3.357,7.5,7.5,7.5h327.766v13.944H39.855v-13.944h45.682
		c4.143,0,7.5-3.358,7.5-7.5s-3.357-7.5-7.5-7.5H39.855v-60.036l206.692,36.553c1.837,0.325,3.728,0.481,5.646,0.481
		c12.703,0,26.572-6.863,33.456-17.122l13.38-19.937l110.183,24.904C425.251,336.826,439.122,352.02,442.508,368.357z
		 M221.886,134.307c-3.069-8.4-11.141-14.414-20.59-14.414h-33.814c-4.143,0-7.5,3.358-7.5,7.5s3.357,7.5,7.5,7.5h33.814
		c3.812,0,6.913,3.102,6.913,6.914s-3.102,6.913-6.913,6.913h-33.814c-4.143,0-7.5,3.358-7.5,7.5s3.357,7.5,7.5,7.5h33.814
		c9.45,0,17.521-6.013,20.59-14.413h26.343v39.035h-26.343c-3.069-8.4-11.141-14.414-20.59-14.414h-33.814
		c-4.143,0-7.5,3.358-7.5,7.5s3.357,7.5,7.5,7.5h33.814c3.812,0,6.913,3.102,6.913,6.914s-3.102,6.913-6.913,6.913h-33.814
		c-4.143,0-7.5,3.358-7.5,7.5s3.357,7.5,7.5,7.5h33.814c9.45,0,17.521-6.013,20.59-14.413h26.343v39.035h-26.343
		c-3.069-8.4-11.141-14.414-20.59-14.414h-33.814c-4.143,0-7.5,3.358-7.5,7.5s3.357,7.5,7.5,7.5h33.814
		c3.812,0,6.913,3.102,6.913,6.914s-3.102,6.913-6.913,6.913h-33.814c-4.143,0-7.5,3.358-7.5,7.5s3.357,7.5,7.5,7.5h33.814
		c9.45,0,17.521-6.013,20.59-14.413h26.912c2.939,19.681,17.057,38.114,35.211,46.383l-10.815,16.116
		c-4.627,6.894-15.851,11.671-24.035,10.228L39.855,293.088V109.685h208.374v24.622H221.886z M17.375,79.705V29.98
		c0-8.26,6.721-14.98,14.98-14.98h223.374c8.261,0,14.98,6.72,14.98,14.98v49.725c0,8.26-6.72,14.98-14.98,14.98H32.355
		C24.096,94.685,17.375,87.965,17.375,79.705z M452.625,441.099c0,7.665-6.235,13.901-13.9,13.901s-13.901-6.236-13.901-13.901
		c0-4.142-3.357-7.5-7.5-7.5s-7.5,3.358-7.5,7.5c0,7.665-6.235,13.901-13.9,13.901s-13.901-6.236-13.901-13.901
		c0-4.142-3.357-7.5-7.5-7.5s-7.5,3.358-7.5,7.5c0,7.665-6.235,13.901-13.9,13.901s-13.9-6.236-13.9-13.901
		c0-4.142-3.357-7.5-7.5-7.5s-7.5,3.358-7.5,7.5c0,7.665-6.236,13.901-13.901,13.901s-13.9-6.236-13.9-13.901
		c0-4.142-3.357-7.5-7.5-7.5s-7.5,3.358-7.5,7.5c0,7.665-6.236,13.901-13.901,13.901s-13.9-6.236-13.9-13.901
		c0-4.142-3.357-7.5-7.5-7.5h-92.168c-4.143,0-7.5,3.358-7.5,7.5c0,7.665-6.235,13.901-13.9,13.901s-13.9-6.236-13.9-13.901
		c0-4.142-3.357-7.5-7.5-7.5s-7.5,3.358-7.5,7.5c0,7.665-6.236,13.901-13.901,13.901s-13.9-6.236-13.9-13.901
		c0-4.142-3.357-7.5-7.5-7.5s-7.5,3.358-7.5,7.5c0,7.665-6.236,13.901-13.901,13.901s-13.9-6.236-13.9-13.901v-28.798h419.58
		V441.099z"/>
	<path d="M65.673,51.008c4.411,0,8-3.589,8-8s-3.589-8-8-8s-8,3.589-8,8S61.262,51.008,65.673,51.008z"/>
	<path d="M232.077,63.185c4.411,0,8-3.589,8-8s-3.589-8-8-8s-8,3.589-8,8S227.666,63.185,232.077,63.185z"/>
	<path d="M92.077,75.185c4.411,0,8-3.589,8-8s-3.589-8-8-8s-8,3.589-8,8S87.666,75.185,92.077,75.185z"/>
</g>
<g>
</g>
<g>
</g>
<g>
</g>
<g>
</g>
<g>
</g>
<g>
</g>
<g>
</g>
<g>
</g>
<g>
</g>
<g>
</g>
<g>
</g>
<g>
</g>
<g>
</g>
<g>
</g>
<g>
</g>
</svg>
