<svg id="Capa_1" enable-background="new 0 0 512 512" height="512" viewBox="0 0 512 512" width="512" xmlns="http://www.w3.org/2000/svg"><g><g><path d="m131.87 56.423v-43.885c0-6.924 5.614-12.538 12.538-12.538h223.185c6.925 0 12.538 5.614 12.538 12.538v43.885z" fill="#ec462e"/><g><g><path d="m161.215 55.373c-4.267 0-7.726-3.459-7.726-7.726v-20.004c0-4.267 3.459-7.726 7.726-7.726s7.726 3.459 7.726 7.726v20.003c.001 4.267-3.459 7.727-7.726 7.727z" fill="#e03a28"/></g><g><path d="m192.811 55.373c-4.267 0-7.726-3.459-7.726-7.726v-20.004c0-4.267 3.459-7.726 7.726-7.726s7.726 3.459 7.726 7.726v20.003c0 4.267-3.459 7.727-7.726 7.727z" fill="#e03a28"/></g><g><path d="m224.406 55.373c-4.267 0-7.726-3.459-7.726-7.726v-20.004c0-4.267 3.459-7.726 7.726-7.726s7.726 3.459 7.726 7.726v20.003c0 4.267-3.459 7.727-7.726 7.727z" fill="#e03a28"/></g><g><path d="m256.001 55.373c-4.267 0-7.726-3.459-7.726-7.726v-20.004c0-4.267 3.459-7.726 7.726-7.726s7.726 3.459 7.726 7.726v20.003c0 4.267-3.459 7.727-7.726 7.727z" fill="#e03a28"/></g><g><path d="m287.596 55.373c-4.267 0-7.726-3.459-7.726-7.726v-20.004c0-4.267 3.459-7.726 7.726-7.726s7.726 3.459 7.726 7.726v20.003c0 4.267-3.459 7.727-7.726 7.727z" fill="#e03a28"/></g><g><path d="m319.191 55.373c-4.267 0-7.726-3.459-7.726-7.726v-20.004c0-4.267 3.459-7.726 7.726-7.726s7.726 3.459 7.726 7.726v20.003c0 4.267-3.459 7.727-7.726 7.727z" fill="#e03a28"/></g><g><path d="m350.787 55.373c-4.267 0-7.726-3.459-7.726-7.726v-20.004c0-4.267 3.459-7.726 7.726-7.726s7.726 3.459 7.726 7.726v20.003c0 4.267-3.459 7.727-7.726 7.727z" fill="#e03a28"/></g></g><path d="m418.023 502.968-50.131 8.839c-6.82 1.202-13.323-3.351-14.525-10.171l-7.289-41.34 74.827-13.194 7.289 41.34c1.202 6.82-3.352 13.323-10.171 14.526z" fill="#ec462e"/><path d="m426.465 478.602c-3.647 1.751-7.561 3.029-11.662 3.75l-50.366 8.88c-2.617.453-5.285.69-7.932.69-1.648 0-3.286-.093-4.904-.268l-5.522-31.359 74.822-13.197z" fill="#d53e2d"/><path d="m93.382 502.968 50.131 8.839c6.82 1.202 13.323-3.351 14.525-10.171l7.289-41.34-74.827-13.194-7.289 41.34c-1.202 6.82 3.352 13.323 10.171 14.526z" fill="#ec462e"/><path d="m165.324 460.295-5.532 31.421c-1.422.134-2.854.206-4.296.206-2.648 0-5.316-.237-7.932-.69l-50.366-8.88c-4.306-.762-8.406-2.122-12.208-4.007l5.511-31.245z" fill="#d53e2d"/><path d="m431.781 440.176c-1.195 11.044-9.601 19.955-20.552 21.881l-50.366 8.88c-11.002 1.937-21.943-3.647-26.867-13.671-26.268-53.482-53.084-140.29-72.944-241.553-1.086-5.538-9.015-5.538-10.101 0-19.861 101.263-46.677 188.071-72.944 241.553-4.924 10.024-15.865 15.607-26.867 13.671l-50.366-8.88c-10.951-1.926-19.357-10.838-20.552-21.881-3.255-30.03-3.709-68.177-1.288-111.775 3.482 1.782 7.263 3.029 11.291 3.606 22.108 3.163 42.979-14.866 46.626-40.28 3.647-25.425-11.322-48.594-33.429-51.767-5.717-.814-11.342-.216-16.617 1.556 3.348-27.382 7.592-55.939 12.754-85.227 6.109-34.645 13.083-67.889 20.624-99.052 1.37-5.625 6.408-9.591 12.197-9.591h247.243c5.79 0 10.827 3.966 12.197 9.591 7.541 31.163 14.515 64.407 20.624 99.052 5.161 29.298 9.416 57.886 12.754 85.278-5.316-1.813-11.002-2.431-16.771-1.607-22.108 3.173-37.066 26.342-33.429 51.767 3.647 25.415 24.518 43.443 46.626 40.28 4.079-.587 7.922-1.854 11.435-3.688 2.43 43.638 1.977 81.806-1.278 111.857z" fill="#fc7d4b"/><path d="m390.738 247.769c-3.503-29.082-7.984-59.472-13.485-90.656-6.284-35.624-13.444-69.795-21.211-101.844-.773-3.194-2.699-5.872-5.275-7.623h28.855c5.79 0 10.827 3.966 12.197 9.591 7.541 31.163 14.515 64.407 20.624 99.052 5.161 29.298 9.416 57.886 12.754 85.278-5.316-1.813-11.002-2.431-16.771-1.607-6.644.958-12.65 3.719-17.688 7.809z" fill="#fb6a3b"/><path d="m431.781 440.176c-1.195 11.044-9.601 19.955-20.552 21.881l-23.55 4.152c5.192-4.162 8.705-10.271 9.457-17.214 3.513-32.42 3.853-74.029.927-121.675 7.108 4.069 15.247 5.872 23.56 4.687 4.079-.587 7.922-1.854 11.435-3.688 2.431 43.638 1.978 81.806-1.277 111.857z" fill="#fb6a3b"/><g><path d="m433.563 338.239c-2.854 1.195-5.872 2.091-9.014 2.648-26.146 4.615-51.664-16.184-57-46.461-5.336-30.267 11.528-58.545 37.674-63.16 6.408-1.123 12.764-.731 18.811.948 4.852 37.838 8.025 73.564 9.529 106.025z" fill="#20b69f"/><path d="m433.563 338.239c-2.854 1.195-5.872 2.091-9.014 2.648-8.973 1.586-17.884.175-25.919-3.595-1.628-30.844-4.667-64.397-9.158-99.783 4.708-3.07 10.003-5.233 15.751-6.243 6.408-1.123 12.764-.731 18.811.948 4.852 37.838 8.025 73.564 9.529 106.025z" fill="#17998c"/><path d="m144.453 294.426c-5.336 30.277-30.854 51.076-57 46.461-3.142-.556-6.161-1.453-9.014-2.648 1.504-32.461 4.677-68.188 9.529-106.026 6.047-1.679 12.403-2.071 18.811-.948 26.146 4.616 43.01 32.894 37.674 63.161z" fill="#20b69f"/></g><g fill="#fb6a3b"><path d="m263.727 47.646v181.404c-.906-4.419-1.798-8.868-2.676-13.345-1.087-5.541-9.014-5.541-10.101 0-.878 4.477-1.77 8.926-2.676 13.345v-70.021h-24.034c-4.267 0-7.726-3.459-7.726-7.726v-103.657h15.453v95.93h16.308v-95.93z"/><path d="m412.249 155.217c-23.818-.484-43.206-8.592-57.68-24.096-24.374-26.136-27.671-65.921-27.846-83.476h15.484c.227 15.525 3.152 50.973 23.704 72.978 10.868 11.631 25.497 18.018 43.515 19.017.958 5.152 1.906 10.354 2.823 15.577z"/><path d="m185.289 47.646c-.072 16.813-3.008 57-27.475 83.228-14.495 15.545-33.986 23.54-57.968 23.797.917-5.213 1.865-10.395 2.823-15.535 18.193-.793 32.904-7.088 43.803-18.749 20.635-22.087 23.2-57.979 23.323-72.741z"/></g></g></g></svg>