<svg id="Capa_1" enable-background="new 0 0 511.615 511.615" height="512" viewBox="0 0 511.615 511.615" width="512" xmlns="http://www.w3.org/2000/svg"><g><g><path d="m327.126 147.698 11.974-11.717c12.413-12.147 15.304-31.036 7.092-46.34-3.357-6.256-4.944-13.31-4.589-20.401l.087-1.734c1.052-21.033-14.775-39.107-35.764-40.838l-.293-.024c-6.992-.577-13.699-3.028-19.416-7.095l-6.787-4.83c-13.542-9.637-31.703-9.637-45.246 0l-6.787 4.83c-5.716 4.068-12.424 6.519-19.416 7.095l-.293.024c-20.988 1.731-36.816 19.805-35.764 40.838l.087 1.734c.355 7.091-1.232 14.145-4.589 20.401-8.213 15.303-5.322 34.193 7.092 46.34l11.385 11.14 38.62 37.89h60.877z" fill="#fcf1de"/><path d="m199.604 127.091c3.357-6.256 4.944-13.31 4.589-20.401l-.087-1.734c-1.052-21.033 14.775-39.107 35.764-40.838l.293-.024c6.992-.577 13.699-3.028 19.416-7.095l6.787-4.83c13.542-9.637 31.703-9.637 45.246 0l6.787 4.83c5.716 4.068 12.424 6.519 19.416 7.095l.293.024c1.222.101 2.437.269 3.622.478-.473-19.762-15.792-36.276-35.802-37.926l-.293-.024c-6.992-.577-13.699-3.028-19.416-7.095l-6.787-4.83c-13.542-9.637-31.703-9.637-45.246 0l-6.787 4.83c-5.716 4.068-12.424 6.519-19.416 7.095l-.293.024c-20.988 1.731-36.816 19.805-35.764 40.838l.087 1.734c.355 7.091-1.232 14.145-4.589 20.401-8.213 15.303-5.322 34.193 7.092 46.34l11.385 11.14 11.128 10.918c-3.376-9.993-2.659-21.199 2.575-30.95z" fill="#f6e2c4"/><path d="m428.519 336.278v-18.883l15.289-4.89c-1.179-23.865-6.812-46.556-16.07-67.272l-24.74-9.55-35.988-36.733-5.541-32.804c-30.126-20.472-66.497-32.441-105.665-32.441-39.215 0-75.625 11.997-105.771 32.516l2.175 15.243-45.884 58.362-22.547 5.605c-9.205 20.661-14.795 43.285-15.972 67.071l8.206 5.953v19.352l-8.447 5.745v112.034h376.48v-112.03z" fill="#bfddfc"/><g><path d="m418.088 355.081h-287.795c-6.368 0-11.53-5.162-11.53-11.53l.241-31.05c1.177-23.786 6.767-46.41 15.972-67.071 10.757-29.439 30.46-54.772 56.346-72.444l9.91-6.765c23.47-15.975 50.738-26.782 80.17-30.786-8.371-1.139-16.916-1.73-25.599-1.73-39.215 0-75.625 11.997-105.771 32.516l2.175 15.243-45.884 58.362-22.547 5.605c-9.205 20.661-14.795 43.285-15.972 67.071l8.206 5.953v19.352l-8.447 5.745v112.034h43.06 8.139 325.281v-95.003c-7.942-3.527-16.72-5.502-25.955-5.502z" fill="#9cccfb"/><g><path d="m429.812 376.648-1.988 2.236h-10.336l-2.664-3.817h-26.626l-2.256 5.168h-9.321l-3.423-5.168h-26.626l-2.951 6.479h-8.008l-4.041-6.479h-26.627l-2.268 5.716h-9.394l-3.351-5.702h-26.626l-3.792 4.47h-7.492l-3.704-4.484h-26.638l-2.222 3.743h-10.263l-2.51-3.743h-26.632l-2.626 5.498h-8.298l-4.076-5.498h-26.626l-2.816 4.169h-9.431l-2.752-4.169h-26.626v.014l-5.362 3.779-7.903.316-1.74-2.526c-18.711 5.143-32.459 22.273-32.459 42.618v40.64c0 14.436 6.924 27.25 17.629 35.313h377.702c10.705-8.064 17.629-20.878 17.629-35.313v-40.64c.001-20.354-13.762-37.485-32.486-42.62z" fill="#bfddfc"/><path d="m133.508 473.607c-24.41 0-44.2-19.78-44.2-44.19v-40.64c0-1.157.047-2.303.135-3.438-1.674 1.588-3.134 2.959-3.134 2.959l-4.511-11.649c-18.718 5.138-32.463 22.296-32.463 42.645v40.64c0 20.343 13.75 37.46 32.459 42.602l1.807-2.605 10.53.61 2.671 3.57 68.253.005-.001-.005 2.017-2.616h11.424l1.559 2.616v.003l26.627-.003 1.8-2.763h11.296l1.904 2.763 26.626.007v-.007l1.629-2.324h11.045l2.325 2.324 26.627.005 2.309-3.167h10.965l1.726 3.166 26.627-.001v-.003l1.745-2.74h12.018l1.237 2.74v.003l26.626-.001v-.002l1.897-2.57h11.498l1.605 2.57v.001l26.626-.001 1.063-2.272 7.377-1.604 5.64.775s.884 1.459.928 1.532c14.345-3.939 25.766-14.92 30.324-28.995-.688.033-326.636.06-326.636.06z" fill="#9cccfb"/></g><g><g id="XMLID_226_"><g><path d="m427.747 245.231-24.18 25.97c-1.67 1.79-4.5 1.8-6.18.02l-30.15-32.06c-1.68-1.79-4.52-1.78-6.19.01l-29.82 32.03c-1.67 1.79-4.5 1.8-6.18.02l-30.15-32.06c-1.68-1.79-4.52-1.78-6.19.01l-29.82 32.03c-1.67 1.79-4.5 1.8-6.18.02l-30.15-32.06c-1.68-1.79-4.52-1.78-6.18.01l-29.83 32.03c-1.66 1.79-4.5 1.8-6.18.02l-30.15-32.06c-1.68-1.79-4.51-1.78-6.18.01l-29.82 32.03c-1.67 1.79-4.51 1.8-6.19.02l-24.25-25.79c9.45-21.23 22.71-40.38 38.93-56.59 8.35-8.36 17.526-15.95 27.326-22.62l30.334 32.4c1.68 1.78 4.52 1.78 6.18-.02l30.38-32.62c1.37-1.47 3.69-1.48 5.07-.02l30.71 32.66c1.68 1.78 4.51 1.78 6.18-.02l29.82-32.03c1.67-1.79 4.51-1.8 6.19-.01l30.15 32.06c1.68 1.78 4.51 1.78 6.18-.02l30.16-32.52c28.87 19.59 52 46.98 66.36 79.15z" fill="#fcf1de"/></g></g></g><g id="XMLID_227_"><g><path d="m444.052 321.941v21.61h-2.23-372.02-2.238l.008-21.61c0-3.17.074-6.31.234-9.44l1.996.09h372.02l1.99-.09c.16 3.13.24 6.27.24 9.44z" fill="#fcf1de"/></g></g></g><g fill="#f6e2c4"><path d="m171.523 189.174-21.489-22.953c-9.8 6.67-18.976 14.26-27.326 22.62-16.22 16.21-29.48 35.36-38.93 56.59l24.25 25.79c1.68 1.78 4.52 1.77 6.19-.02l18.083-19.423c.858-2.134 1.743-4.253 2.677-6.347 7.809-21.377 20.357-40.571 36.545-56.257z"/><path d="m69.802 312.591-1.996-.09c-.16 3.13-.234 6.27-.234 9.44l-.008 21.61h2.238 48.961l.24-30.96z"/></g></g><g><path d="m451.546 379.916v-57.975c0-43.524-13.993-84.734-40.468-119.177-2.523-3.283-7.232-3.9-10.517-1.375-3.284 2.524-3.9 7.233-1.376 10.517 7.721 10.044 14.288 20.714 19.665 31.876l-18.393 19.754-27.761-29.518c-2.209-2.349-5.323-3.695-8.548-3.695-.01 0-.021 0-.031 0-3.234.008-6.354 1.372-8.556 3.738l-27.443 29.475-27.761-29.518c-2.209-2.349-5.323-3.695-8.548-3.695-.01 0-.02 0-.029 0-3.234.008-6.354 1.371-8.559 3.738l-27.442 29.475-27.761-29.518c-2.216-2.356-5.362-3.724-8.577-3.694-3.234.008-6.354 1.371-8.559 3.738l-27.442 29.475-27.761-29.518c-2.209-2.349-5.323-3.695-8.548-3.695-.01 0-.02 0-.029 0-3.234.008-6.354 1.371-8.559 3.738l-27.442 29.475-18.353-19.517c12.938-26.965 32.375-50.238 56.264-67.794l25.893 27.532c2.217 2.357 5.382 3.734 8.577 3.696 3.234-.008 6.354-1.371 8.559-3.738l27.442-29.475 27.761 29.518c2.21 2.35 5.323 3.696 8.548 3.696h.029c3.234-.008 6.354-1.371 8.559-3.738l27.443-29.475 27.76 29.518c2.21 2.35 5.323 3.696 8.548 3.696h.029c3.234-.008 6.354-1.371 8.559-3.738l25.765-27.671c5.541 4.06 10.879 8.449 15.98 13.166 3.043 2.812 7.788 2.625 10.599-.416 2.812-3.041 2.626-7.786-.415-10.598-14.555-13.457-30.871-24.481-48.38-32.864l4.077-3.99c14.71-14.395 18.188-37.113 8.456-55.245-2.713-5.056-3.995-10.755-3.708-16.48l.087-1.734c.267-5.327-.37-10.603-1.893-15.682-1.189-3.968-5.37-6.219-9.338-5.03s-6.221 5.37-5.031 9.338c1.03 3.437 1.462 7.012 1.281 10.625l-.087 1.733c-.424 8.451 1.468 16.862 5.471 24.323 6.594 12.287 4.238 27.679-5.729 37.433l-8.506 8.323c-21.988-8.355-45.499-12.741-69.541-12.741-23.928 0-46.863 4.324-68.076 12.218l-7.971-7.8c-9.967-9.753-12.322-25.146-5.728-37.434 4.002-7.46 5.894-15.871 5.47-24.322l-.087-1.733c-.855-17.091 11.835-31.582 28.896-32.989l.286-.024c8.332-.687 16.336-3.612 23.147-8.459l6.787-4.83c10.931-7.779 25.618-7.778 36.549 0l6.787 4.83c6.812 4.847 14.815 7.772 23.141 8.458l.3.025c3.684.304 7.244 1.237 10.583 2.773 3.762 1.733 8.217.084 9.949-3.677 1.731-3.763.085-8.217-3.678-9.949-4.934-2.271-10.189-3.649-15.615-4.096l-.3-.025c-5.645-.466-11.068-2.448-15.683-5.731l-6.787-4.83c-16.133-11.479-37.811-11.479-53.943 0l-6.787 4.83c-4.614 3.284-10.038 5.266-15.689 5.732l-.286.024c-25.172 2.076-43.9 23.462-42.638 48.688l.087 1.733c.287 5.726-.995 11.424-3.707 16.479-9.732 18.133-6.255 40.852 8.455 55.246l3.466 3.391c-66.51 31.304-112.667 98.962-112.667 177.208v57.975c-11.147 9.49-18.238 23.609-18.238 39.362v40.642c0 28.504 23.19 51.695 51.695 51.695h324.562c28.505 0 51.695-23.19 51.695-51.695v-40.642c.002-15.755-7.089-29.875-18.236-39.365zm-101.69-212.323-21.738 23.346-27.761-29.518c-2.209-2.349-5.323-3.695-8.548-3.695-.01 0-.02 0-.029 0-3.234.008-6.354 1.371-8.559 3.738l-27.442 29.475-28.319-30.111c-2.065-2.198-4.977-3.457-7.992-3.457h-.023c-3.024.007-5.941 1.28-8.005 3.495l-27.999 30.073-21.817-23.198c27.445-16.825 59.7-26.537 94.183-26.537 33.522-.001 65.93 9.219 94.049 26.389zm-247.291 108.762c2.21 2.35 5.323 3.696 8.549 3.696h.027c3.235-.007 6.355-1.37 8.561-3.738l27.443-29.475 27.761 29.519c2.209 2.349 5.323 3.695 8.548 3.695h.029c3.234-.008 6.354-1.371 8.558-3.738l27.443-29.475 27.761 29.519c2.209 2.349 5.323 3.695 8.548 3.695h.029c3.234-.008 6.354-1.371 8.558-3.738l27.443-29.475 27.761 29.519c2.209 2.349 5.323 3.695 8.548 3.695h.029c3.234-.008 6.354-1.371 8.558-3.738l27.443-29.475 27.761 29.518c2.209 2.349 5.323 3.695 8.548 3.695h.031c3.234-.008 6.354-1.372 8.556-3.738l16.224-17.424c5.505 14.778 9.031 30.267 10.489 46.199h-359.91c1.489-16.02 5.071-31.44 10.481-45.982zm-27.496 74.696h59.167c4.143 0 7.5-3.358 7.5-7.5s-3.357-7.5-7.5-7.5h-59.167v-14.109c0-.62.017-1.236.023-1.854h361.435c.006.618.019 1.235.019 1.854v14.109h-270.348c-4.143 0-7.5 3.358-7.5 7.5s3.357 7.5 7.5 7.5h270.348v19.951c-5.736-2.201-11.956-3.419-18.457-3.419h-324.563c-6.501 0-12.721 1.218-18.457 3.419zm21.733 31.532h26.626v114.031h-26.626zm41.626 0h26.626v114.031h-26.626zm41.626 0h26.627v114.031h-26.627zm41.627 0h26.626v114.031h-26.626zm41.626 0h26.626v114.031h-26.626zm41.626 0h26.627v114.031h-26.627zm41.627 0h26.626v114.031h-26.626zm41.626 0h26.626v114.031h-26.626zm-331.355 77.337v-40.642c0-16.134 10.471-29.86 24.972-34.763v110.168c-14.501-4.904-24.972-18.629-24.972-34.763zm397.953 0c0 16.134-10.471 29.86-24.972 34.763v-110.168c14.5 4.904 24.972 18.629 24.972 34.763z"/><path d="m256.807 169.819c4.143 0 7.5-3.358 7.5-7.5v-2.57c0-4.142-3.357-7.5-7.5-7.5s-7.5 3.358-7.5 7.5v2.57c0 4.142 3.358 7.5 7.5 7.5z"/><path d="m146.281 292.123c4.143 0 7.5-3.358 7.5-7.5v-3.842c0-4.142-3.357-7.5-7.5-7.5s-7.5 3.358-7.5 7.5v3.842c0 4.142 3.357 7.5 7.5 7.5z"/><path d="m219.286 292.123c4.143 0 7.5-3.358 7.5-7.5v-3.842c0-4.142-3.357-7.5-7.5-7.5s-7.5 3.358-7.5 7.5v3.842c0 4.142 3.357 7.5 7.5 7.5z"/><path d="m292.291 292.123c4.143 0 7.5-3.358 7.5-7.5v-3.842c0-4.142-3.357-7.5-7.5-7.5s-7.5 3.358-7.5 7.5v3.842c0 4.142 3.357 7.5 7.5 7.5z"/><path d="m365.295 292.123c4.143 0 7.5-3.358 7.5-7.5v-3.842c0-4.142-3.357-7.5-7.5-7.5s-7.5 3.358-7.5 7.5v3.842c0 4.142 3.357 7.5 7.5 7.5z"/></g></g></svg>