<?xml version="1.0"?>
<svg xmlns="http://www.w3.org/2000/svg" viewBox="0 0 512 512" width="512" height="512"><g id="Fill_out_line" data-name="Fill out line"><path d="M488,75.52A831.62873,831.62873,0,0,1,456,304l2.91992,16.07007,3.48,19.12988A160.80248,160.80248,0,0,1,448,440H290.23A1400.87573,1400.87573,0,0,1,32,416a48.7943,48.7943,0,0,1,39.22-47.84009l48.46-9.7a281.94854,281.94854,0,0,0,115.53-52.13989Q241.75012,301.37,248,296L264,24H488Z" style="fill:#bc8d5d"/><path d="M464,456v32H440c-2.07007-12.42993-19.3999-13.79-23.39014-1.84009L416,488H392c-2.07007-12.42993-19.3999-13.79-23.39014-1.84009L368,488H336c-2.07007-12.42993-19.3999-13.79-23.39014-1.84009L312,488H286.1001c-2.03,0-4.07007-.01-6.1001-.02-2.37988-11.89-18.76-13.42993-23.31006-2.18994L256,487.48q-20.03979-.67492-40-2.28l-.01-.07A12.48178,12.48178,0,0,0,192,482.95q-24.09009-2.595-48-6.52l-.31006-1.72a12.69082,12.69082,0,0,0-12.73-10.59,12.54953,12.54953,0,0,0-11.78,7.88Q99.50013,468.18994,80,463.49l-.40991-2.04A15.53914,15.53914,0,0,0,64.1499,448.89a15.32134,15.32134,0,0,0-13.02,7.11Q37.51014,452.22,24,448V424a7.99782,7.99782,0,0,1,8-8,1400.87573,1400.87573,0,0,0,258.23,24H448A15.99548,15.99548,0,0,1,464,456Z" style="fill:#a1764a"/><path d="M496,24a8.00008,8.00008,0,0,0-8-8H264a8,8,0,0,0-7.98633,7.53027L240.21484,292.1084a274.85,274.85,0,0,1-122.10839,58.51172L69.6543,360.31055a56.96409,56.96409,0,0,0-45.31812,49.65A16.01144,16.01144,0,0,0,16,424v24a7.99965,7.99965,0,0,0,5.61328,7.63574c9.03809,2.82471,18.249,5.541,27.376,8.07373a8.00215,8.00215,0,0,0,8.83984-3.33838,7.65543,7.65543,0,0,1,13.916,2.66407l.41406,2.042a8.00181,8.00181,0,0,0,5.96387,6.187c13.0459,3.14795,26.34863,6.03809,39.54,8.59082a8.00268,8.00268,0,0,0,8.89453-4.75391,4.85682,4.85682,0,0,1,9.25781,1.02295l.31152,1.72852a7.99935,7.99935,0,0,0,6.5791,6.47558c16.00879,2.62354,32.30567,4.835,48.4375,6.57276a8.00667,8.00667,0,0,0,8.35352-5.16113,4.48223,4.48223,0,0,1,8.62988.88086,8.0009,8.0009,0,0,0,7.23438,6.55322c13.373,1.07031,26.9541,1.84619,40.36426,2.30566a7.968,7.968,0,0,0,7.68945-4.99219l.68652-1.69628a4.22254,4.22254,0,0,1,8.05371.75781,8.00121,8.00121,0,0,0,7.78907,6.43017q3.07909.02124,6.16015.021H312a8,8,0,0,0,7.58984-5.47119l.61133-1.834a4.08682,4.08682,0,0,1,7.90821.62061A7.99948,7.99948,0,0,0,336,496h32a8,8,0,0,0,7.58984-5.47119l.61133-1.834a4.08682,4.08682,0,0,1,7.90821.62061A7.99948,7.99948,0,0,0,392,496h24a8,8,0,0,0,7.58984-5.47119l.61133-1.834a4.08682,4.08682,0,0,1,7.90821.62061A7.99948,7.99948,0,0,0,440,496h24a8.00008,8.00008,0,0,0,8-8V456a24.01951,24.01951,0,0,0-12.77515-21.20435A170.18522,170.18522,0,0,0,470.27148,337.769l-6.06738-33.36963A839.55864,839.55864,0,0,0,496,75.51855ZM271.543,32H480V48H288V64h62.749L311.22266,335.03833,256.2334,292.269Zm178.3374,283.064,4.64893,25.56739A154.03457,154.03457,0,0,1,442.96582,432H313.251l7-48h23.46289a77.58515,77.58515,0,0,0,67.21875-39.00928A61.67355,61.67355,0,0,1,441.4502,318.436ZM72.793,376l48.45215-9.69043a290.89313,290.89313,0,0,0,126.93335-60.03613l60.3894,46.96948L297.08228,432h-6.85181A1396.86363,1396.86363,0,0,1,40.53223,409.44141,40.92825,40.92825,0,0,1,72.793,376ZM456,480H445.56055a20.15527,20.15527,0,0,0-34.9336,0h-13.0664a20.15527,20.15527,0,0,0-34.9336,0h-21.0664a20.15527,20.15527,0,0,0-34.9336,0H286.10449q-.35449,0-.709-.00049a20.2544,20.2544,0,0,0-34.30664-.7041c-9.75586-.39307-19.57422-.9541-29.30957-1.6748a20.55138,20.55138,0,0,0-34.04883-3.19581c-12.42285-1.41357-24.917-3.10839-37.2666-5.05468a20.89068,20.89068,0,0,0-35.03125-6.26074c-9.62012-1.92383-19.27539-4.02442-28.81446-6.269a23.71311,23.71311,0,0,0-38.21093-9.91211c-5.47461-1.5542-10.96387-3.16992-16.41016-4.83154l-.00684-17.968A1412.76458,1412.76458,0,0,0,290.23047,448H448a8.00917,8.00917,0,0,1,8,8Zm-6.63452-181.96216-13.85669,5.54273A77.726,77.726,0,0,0,397.041,337.05273,61.55166,61.55166,0,0,1,343.71387,368h-21.1294L366.91772,64H480V75.51855A823.54076,823.54076,0,0,1,449.36548,298.03784Z"/></g></svg>
