<svg height="512" viewBox="0 0 64 64" width="512" xmlns="http://www.w3.org/2000/svg"><g id="Filled_outline" data-name="Filled outline"><path d="m11 19h42v16h-42z" fill="#f9bb4b"/><path d="m53 35h-42s-8 9.753-8 10c0 2.209 12.984 6 29 6s29-3.791 29-6c0-.247-8-10-8-10z" fill="#f9bb4b"/><path d="m44 29v2h-4v-2h-16v2h-4v-2h-9v6h42v-6z" fill="#ad6327"/><path d="m40 25h4v6h-4z" fill="#fcf05a"/><path d="m20 25h4v6h-4z" fill="#fcf05a"/><g fill="#ad6327"><path d="m27 23h2v2h-2z"/><path d="m31 23h2v2h-2z"/><path d="m35 23h2v2h-2z"/></g><path d="m32 12c-11.6 0-21 2.029-21 7h42c0-4.971-9.4-7-21-7z" fill="#ffd782"/><path d="m56.264 39c-1.727-2.126-3.264-4-3.264-4h-42s-1.537 1.874-3.264 4z" fill="#ffd782"/><path d="m27 23h2v2h-2z"/><path d="m31 23h2v2h-2z"/><path d="m35 23h2v2h-2z"/><path d="m54 19c0-6.961-13.783-8-22-8s-22 1.039-22 8v15.643c-7.995 9.749-8 9.897-8 10.357 0 3.878 16.412 7 30 7s30-3.122 30-7c0-.46-.005-.608-8-10.357zm-22-6c11.184 0 18.527 1.89 19.8 5h-39.6c1.273-3.11 8.616-5 19.8-5zm-20 7h40v8h-7v-3a1 1 0 0 0 -1-1h-4a1 1 0 0 0 -1 1v3h-14v-3a1 1 0 0 0 -1-1h-4a1 1 0 0 0 -1 1v3h-7zm31 6v4h-2v-4zm-20 0v4h-2v-4zm-11 4h7v1a1 1 0 0 0 1 1h4a1 1 0 0 0 1-1v-1h14v1a1 1 0 0 0 1 1h4a1 1 0 0 0 1-1v-1h7v4h-40zm47.851 15.09c-1.677 1.658-12.781 4.91-27.851 4.91s-26.174-3.252-27.851-4.91c.648-.858 2.3-2.913 4.063-5.09h47.576c1.766 2.177 3.412 4.232 4.063 5.09zm-5.69-7.09h-44.322c.571-.7 1.127-1.38 1.635-2h41.052c.508.62 1.064 1.3 1.635 2z"/><path d="m8.018 44.189a1 1 0 0 0 .588.73 43.351 43.351 0 0 0 15.394 3.081v-2a41.828 41.828 0 0 1 -13.2-2.388l.905-.905-1.414-1.414-2 2a1 1 0 0 0 -.273.896z"/><path d="m26 46h2v2h-2z"/></g></svg>