<?xml version="1.0" encoding="iso-8859-1"?>
<!-- Generator: Adobe Illustrator 19.0.0, SVG Export Plug-In . SVG Version: 6.00 Build 0)  -->
<svg version="1.1" id="Capa_1" xmlns="http://www.w3.org/2000/svg" xmlns:xlink="http://www.w3.org/1999/xlink" x="0px" y="0px"
	 viewBox="0 0 512.001 512.001" style="enable-background:new 0 0 512.001 512.001;" xml:space="preserve">
<path style="fill:#A53C29;" d="M110.312,468.217v20.779c0,5.5,4.5,10,10,10h271.375c5.5,0,10-4.5,10-10v-20.779H110.312z"/>
<path style="opacity:0.1;fill:#2F003A;enable-background:new    ;" d="M141.624,488.997v-20.779h-31.312v20.779c0,5.5,4.5,10,10,10
	h31.312C146.124,498.997,141.624,494.497,141.624,488.997z"/>
<path style="fill:#F07C3C;" d="M458.121,211.54c-18.884-51.465-38.506-82.865-48.526-97.011c0.305,2.301,0.478,4.642,0.478,7.024
	v130.252c15.285,47.294,31.289,117.415,35.861,211.533c0.145,2.947,2.574,5.262,5.523,5.262h47.512c1.512,0,2.955-0.617,4-1.709
	c1.043-1.094,1.594-2.565,1.525-4.074C500.14,368.075,484.539,283.532,458.121,211.54z"/>
<path style="fill:#ABB53C;" d="M387.368,77.933c-7.221,8.444-17.943,13.804-29.925,13.804h-6.169
	c-34.389,24.809-94.802,43.111-94.802,43.111h-0.955c0,0-60.413-18.303-94.802-43.111h-6.158c-11.981,0-22.705-5.359-29.927-13.804
	c-13.717,9.661-22.703,25.606-22.703,43.62v341.424c0,2.895,2.346,5.24,5.24,5.24h297.664c2.895,0,5.24-2.346,5.24-5.24V121.553
	C410.072,103.54,401.084,87.594,387.368,77.933z"/>
<path style="fill:#B3CCE2;" d="M502.949,436.11c0.615,8.809,1.131,17.711,1.545,26.707c0.068,1.51-0.482,2.98-1.525,4.074
	c-1.045,1.092-2.488,1.709-4,1.709h-47.512c-2.949,0-5.379-2.314-5.523-5.262c-0.453-9.318-1.027-18.379-1.693-27.229
	L502.949,436.11L502.949,436.11z"/>
<path style="fill:#F07C3C;" d="M101.927,121.553c0-2.383,0.173-4.724,0.478-7.024c-10.021,14.146-29.643,45.547-48.526,97.011
	C27.46,283.532,11.859,368.075,7.505,462.817c-0.068,1.51,0.482,2.98,1.525,4.074c1.045,1.092,2.488,1.709,4,1.709h47.51
	c2.951,0,5.381-2.314,5.525-5.262c4.572-94.118,20.576-164.239,35.861-211.533V121.553H101.927z"/>
<path style="fill:#B3CCE2;" d="M9.05,436.11c-0.615,8.809-1.131,17.711-1.545,26.707c-0.068,1.51,0.482,2.98,1.525,4.074
	c1.045,1.092,2.488,1.709,4,1.709h47.51c2.951,0,5.381-2.314,5.525-5.262c0.451-9.318,1.027-18.379,1.693-27.229L9.05,436.11
	L9.05,436.11z"/>
<g>
	<path style="opacity:0.1;fill:#2F003A;enable-background:new    ;" d="M101.927,170.902v-49.349c0-2.383,0.173-4.724,0.478-7.024
		c-10.021,14.146-29.643,45.547-48.526,97.011C27.46,283.532,11.859,368.075,7.505,462.817c-0.068,1.51,0.482,2.98,1.525,4.074
		c1.045,1.092,2.488,1.709,4,1.709h31.288c-1.512,0-2.955-0.617-4-1.709c-1.043-1.094-1.594-2.565-1.525-4.074
		c4.354-94.742,19.955-179.285,46.373-251.277C90.779,196.244,96.456,182.727,101.927,170.902z"/>
	<path style="opacity:0.1;fill:#2F003A;enable-background:new    ;" d="M132.999,462.977V121.553
		c0-11.757,3.832-22.632,10.303-31.458c-7.357-2.191-13.809-6.475-18.672-12.162c-13.717,9.661-22.703,25.606-22.703,43.62v341.424
		c0,2.895,2.346,5.24,5.24,5.24h31.072C135.345,468.217,132.999,465.872,132.999,462.977z"/>
</g>
<path style="fill:#B3CCE2;" d="M256.472,134.848h-0.955c0,0-4.977-1.509-12.878-4.242h-0.003v337.611h26.727V130.602l0,0
	C261.454,133.338,256.472,134.848,256.472,134.848z"/>
<path style="fill:#F07C3C;" d="M357.443,13.002H154.557c-21.742,0-39.37,17.625-39.37,39.364c0,21.745,17.628,39.37,39.37,39.37
	h6.158c-11.579-8.354-20.211-17.443-22.587-26.822c-8.936-35.272,33.083-40.728,53.561-17.147c0.466-0.508,1.276-0.813,2.396-0.813
	h123.828c1.143,0,1.964,0.317,2.424,0.843c-0.002,0.002-0.004,0.005-0.006,0.007C341.147,24.18,382.8,29.622,373.86,64.913
	c-2.376,9.379-11.008,18.469-22.587,26.822h6.169c21.742,0,39.367-17.625,39.367-39.37C396.81,30.627,379.185,13.002,357.443,13.002
	z"/>
<path style="fill:#A53C29;" d="M317.914,46.956H194.085c-1.12,0-1.931,0.305-2.396,0.813c1.139,1.311,2.215,2.705,3.207,4.195
	l60.621,82.885h0.955l60.621-82.885c1.009-1.479,2.097-2.863,3.244-4.165C319.877,47.273,319.056,46.956,317.914,46.956z"/>
<path id="SVGCleanerId_0" style="fill:#F07C3C;" d="M194.896,51.963l60.621,82.885c0,0-107.955-32.703-117.389-69.934
	C128.695,27.682,176.044,23.667,194.896,51.963z"/>
<path id="SVGCleanerId_1" style="fill:#F07C3C;" d="M317.093,51.963l-60.621,82.885c0,0,107.955-32.703,117.389-69.934
	C383.292,27.682,336.406,23.667,317.093,51.963z"/>
<rect x="241.65" y="46.956" style="fill:#FFFFFF;" width="28.695" height="28.693"/>
<g>
	<path id="SVGCleanerId_0_1_" style="fill:#F07C3C;" d="M194.896,51.963l60.621,82.885c0,0-107.955-32.703-117.389-69.934
		C128.695,27.682,176.044,23.667,194.896,51.963z"/>
</g>
<g>
	<path id="SVGCleanerId_1_1_" style="fill:#F07C3C;" d="M317.093,51.963l-60.621,82.885c0,0,107.955-32.703,117.389-69.934
		C383.292,27.682,336.406,23.667,317.093,51.963z"/>
</g>
<g>
	<path style="fill:#F07C3C;" d="M161.146,407.002c0,2.75-2.25,5-5,5h-23.541c-2.75,0-5-2.25-5-5v-78.041c0-2.75,2.25-5,5-5h23.541
		c2.75,0,5,2.25,5,5V407.002z"/>
	<path style="fill:#F07C3C;" d="M384.394,407.002c0,2.75-2.25,5-5,5h-23.541c-2.75,0-5-2.25-5-5v-78.041c0-2.75,2.25-5,5-5h23.541
		c2.75,0,5,2.25,5,5L384.394,407.002L384.394,407.002z"/>
</g>
<g>
	<circle style="fill:#FFFFFF;" cx="302" cy="185" r="12"/>
	<circle style="fill:#FFFFFF;" cx="302" cy="259" r="12"/>
	<circle style="fill:#FFFFFF;" cx="302" cy="333" r="12"/>
	<circle style="fill:#FFFFFF;" cx="302" cy="407" r="12"/>
</g>
<path d="M476.52,242.81c-1.211-3.962-5.405-6.189-9.364-4.981c-3.962,1.211-6.191,5.403-4.982,9.364
	c16.6,54.322,27.551,115.224,32.684,181.417h-43.682c-6.333-77.113-20.198-136.202-33.605-177.972V141.079
	c9.717,16.865,21.734,40.958,33.508,73.045c1.427,3.888,5.732,5.882,9.625,4.457c3.888-1.427,5.884-5.736,4.457-9.625
	c-18.524-50.485-37.854-82.113-48.395-97.26c-2.268-13.843-9.227-26.121-19.185-35.16c4.268-7.062,6.728-15.333,6.728-24.169
	c0-25.841-21.024-46.864-46.867-46.864H154.557c-25.845,0-46.87,21.023-46.87,46.864c0,8.837,2.461,17.108,6.729,24.17
	c-9.957,9.038-16.916,21.317-19.184,35.158c-10.543,15.151-29.871,46.778-48.395,97.261C20.156,281.665,4.402,366.961,0.013,462.478
	c-0.16,3.533,1.148,7.028,3.599,9.599c2.447,2.557,5.881,4.023,9.419,4.023h47.51c6.958,0,12.676-5.444,13.017-12.397
	c3.053-62.847,11.235-114.841,20.87-156.398v155.673c0,5.494,3.502,10.172,8.385,11.957v14.063c0,9.649,7.851,17.5,17.5,17.5
	h271.375c9.649,0,17.5-7.851,17.5-17.5v-14.063c4.884-1.785,8.385-6.463,8.385-11.957V307.305
	c9.635,41.558,17.817,93.552,20.87,156.4c0.341,6.95,6.058,12.395,13.015,12.395h47.512c3.538,0,6.972-1.467,9.428-4.033
	c2.441-2.561,3.75-6.056,3.59-9.595C508.268,381.564,496.335,307.659,476.52,242.81z M402.572,121.553v339.164H276.863V135.923
	c10.304-3.679,23.888-8.884,37.875-15.255c15.857-7.223,28.828-14.346,39.012-21.432h3.693c11.604,0,22.229-4.249,30.423-11.261
	C396.898,96.35,402.572,108.295,402.572,121.553z M236.086,95.576c-2.445-3.343-7.139-4.072-10.481-1.626
	c-3.343,2.445-4.071,7.138-1.626,10.481l11.54,15.778c-38.604-14.17-85.044-37.104-90.12-57.137
	c-1.801-7.108-2.058-16.42,6.948-20.42c10.188-4.523,27.207-0.192,36.307,13.469c0.061,0.091,0.124,0.181,0.188,0.27l13.191,18.036
	c2.445,3.342,7.138,4.071,10.481,1.626s4.071-7.138,1.626-10.481l-8.131-11.116h28.142v21.193c0,4.143,3.357,7.5,7.5,7.5h28.695
	c4.142,0,7.5-3.357,7.5-7.5V54.456h28.131l-49.983,68.341L236.086,95.576z M249.152,54.456h13.695v13.693h-13.695L249.152,54.456
	L249.152,54.456z M366.59,63.073c-5.076,20.033-51.515,42.967-90.119,57.137l46.676-63.818c0.048-0.066,0.095-0.133,0.141-0.2
	c6.318-9.256,17.22-15.237,27.773-15.237c6.008,0,11.029,2.025,13.777,5.557C368.547,51.275,367.838,58.147,366.59,63.073z
	 M154.557,20.502h202.886c17.571,0,31.867,14.294,31.867,31.864c0,10.788-5.388,20.339-13.612,26.108
	c2.632-3.896,4.44-7.799,5.434-11.719c3.749-14.8-0.353-24.188-4.455-29.459c-5.611-7.209-14.947-11.344-25.615-11.344
	c-12.077,0-24.012,5.017-33.048,13.507c-0.033-0.001-0.066-0.005-0.1-0.005h-123.82c-5.322-5.052-11.755-8.918-18.805-11.206
	c-10.085-3.273-20.666-3.018-29.029,0.694c-5.268,2.34-21.946,11.979-15.401,37.813c0.992,3.916,2.798,7.814,5.426,11.706
	c-8.216-5.77-13.597-15.316-13.597-26.096C122.687,34.796,136.984,20.502,154.557,20.502z M109.427,121.553
	c0-13.258,5.674-25.202,14.705-33.577c8.194,7.012,18.819,11.261,30.425,11.261h3.683c10.184,7.086,23.154,14.209,39.012,21.432
	c13.992,6.373,27.58,11.579,37.885,15.258v195.075c0,4.143,3.357,7.5,7.5,7.5s7.5-3.357,7.5-7.5v-189.98
	c1.871,0.599,2.994,0.94,3.206,1.005c0.719,0.218,1.45,0.323,2.174,0.323c0.16,0,0.796,0,0.957,0c0.724,0,1.455-0.105,2.174-0.323
	c0.212-0.064,1.34-0.408,3.216-1.008v319.699h-11.727v-92.716c0-4.143-3.357-7.5-7.5-7.5s-7.5,3.357-7.5,7.5v92.716h-125.71V121.553
	z M15.094,461.1c0.28-5.87,0.604-11.7,0.972-17.49h43.638c-0.386,5.741-0.737,11.56-1.036,17.49H15.094z M60.823,428.61H17.128
	c6.198-80.052,20.888-152.073,43.791-214.487c11.773-32.085,23.791-56.177,33.508-73.043v109.559
	C81.021,292.409,67.156,351.499,60.823,428.61z M391.687,491.497H120.312c-1.355,0-2.5-1.145-2.5-2.5v-13.279h276.375v13.279
	C394.187,490.352,393.042,491.497,391.687,491.497z M453.331,461.1c-0.299-5.931-0.65-11.749-1.036-17.49h43.622
	c0.368,5.796,0.707,11.617,0.987,17.49H453.331z"/>
<path d="M156.146,316.461h-23.541c-6.893,0-12.5,5.607-12.5,12.5v78.041c0,6.893,5.607,12.5,12.5,12.5h23.541
	c6.893,0,12.5-5.607,12.5-12.5v-78.041C168.646,322.069,163.039,316.461,156.146,316.461z M153.646,404.502h-18.541v-73.041h18.541
	V404.502z"/>
<path d="M379.394,316.461h-23.541c-6.893,0-12.5,5.607-12.5,12.5v78.041c0,6.893,5.607,12.5,12.5,12.5h23.541
	c6.893,0,12.5-5.607,12.5-12.5v-78.041C391.894,322.069,386.287,316.461,379.394,316.461z M376.894,404.502h-18.541v-73.041h18.541
	L376.894,404.502L376.894,404.502z"/>
<path d="M301.999,165.502c-10.752,0-19.5,8.748-19.5,19.5s8.748,19.5,19.5,19.5s19.5-8.748,19.5-19.5
	S312.751,165.502,301.999,165.502z M301.999,189.502c-2.481,0-4.5-2.019-4.5-4.5s2.019-4.5,4.5-4.5s4.5,2.019,4.5,4.5
	S304.481,189.502,301.999,189.502z"/>
<path d="M301.999,239.502c-10.752,0-19.5,8.748-19.5,19.5c0,10.752,8.748,19.5,19.5,19.5s19.5-8.748,19.5-19.5
	C321.499,248.25,312.751,239.502,301.999,239.502z M301.999,263.502c-2.481,0-4.5-2.019-4.5-4.5s2.019-4.5,4.5-4.5
	s4.5,2.019,4.5,4.5C306.499,261.484,304.481,263.502,301.999,263.502z"/>
<path d="M301.999,313.502c-10.752,0-19.5,8.748-19.5,19.5s8.748,19.5,19.5,19.5s19.5-8.748,19.5-19.5
	S312.751,313.502,301.999,313.502z M301.999,337.502c-2.481,0-4.5-2.019-4.5-4.5s2.019-4.5,4.5-4.5s4.5,2.019,4.5,4.5
	C306.499,335.484,304.481,337.502,301.999,337.502z"/>
<path d="M301.999,387.502c-10.752,0-19.5,8.748-19.5,19.5s8.748,19.5,19.5,19.5s19.5-8.748,19.5-19.5
	S312.751,387.502,301.999,387.502z M301.999,411.502c-2.481,0-4.5-2.019-4.5-4.5s2.019-4.5,4.5-4.5s4.5,2.019,4.5,4.5
	C306.499,409.484,304.481,411.502,301.999,411.502z"/>
<g>
</g>
<g>
</g>
<g>
</g>
<g>
</g>
<g>
</g>
<g>
</g>
<g>
</g>
<g>
</g>
<g>
</g>
<g>
</g>
<g>
</g>
<g>
</g>
<g>
</g>
<g>
</g>
<g>
</g>
</svg>
