<svg height="512pt" viewBox="0 0 512 512" width="512pt" xmlns="http://www.w3.org/2000/svg"><path d="m512 256c0 141.386719-114.613281 256-256 256s-256-114.613281-256-256 114.613281-256 256-256 256 114.613281 256 256zm0 0" fill="#fc502a"/><path d="m512 256c0-4.246094-.109375-8.464844-.3125-12.660156l-183.339844-183.339844-173.746094 375 75.722657 75.722656c8.445312.839844 17.007812 1.277344 25.675781 1.277344 141.386719 0 256-114.613281 256-256zm0 0" fill="#e03719"/><path d="m357.398438 435h-202.796876v-334.511719l56.878907-21.308593h89.039062l56.878907 21.308593zm0 0" fill="#cdeffe"/><path d="m357.398438 100.488281-56.878907-21.308593h-45.402343v355.820312h102.28125zm0 0" fill="#94def7"/><path d="m169.8125 280.855469 31.867188-26.152344 11.429687 13.925781-31.867187 26.15625zm0 0" fill="#8bc2d1"/><path d="m330.785156 295.765625-31.867187-26.152344 11.429687-13.929687 31.867188 26.15625zm0 0" fill="#4db8e2"/><path d="m154.601562 100.488281-43.09375 84.15625c-5.316406 10.378907-4.242187 22.886719 2.769532 32.207031l51.824218 68.914063c1.964844 2.609375 5.683594 3.097656 8.25 1.082031l32.1875-25.273437c2.667969-2.089844 2.988282-6.007813.703126-8.507813l-52.640626-57.5625zm0 0" fill="#a4d8ea"/><path d="m357.398438 100.488281 43.09375 84.15625c5.316406 10.378907 4.242187 22.886719-2.769532 32.207031l-51.824218 68.914063c-1.964844 2.609375-5.683594 3.097656-8.25 1.082031l-32.1875-25.273437c-2.667969-2.089844-2.988282-6.007813-.703126-8.507813l52.640626-57.5625zm0 0" fill="#8bc2d1"/><path d="m165 303h64v23.332031h-64zm0 0" fill="#a4d8ea"/><path d="m283 303h64v23.332031h-64zm0 0" fill="#8bc2d1"/><path d="m246 122.449219h20v312.550781h-20zm0 0" fill="#fff"/><path d="m255.117188 122.449219h10.882812v312.550781h-10.882812zm0 0" fill="#d2f7ff"/><path d="m304.5 107h-97c-12.980469 0-23.5-10.519531-23.5-23.5s10.519531-23.5 23.5-23.5h97c12.980469 0 23.5 10.519531 23.5 23.5s-10.519531 23.5-23.5 23.5zm0 0" fill="#fff"/><path d="m304.5 60h-49.382812v47h49.382812c12.980469 0 23.5-10.519531 23.5-23.5s-10.519531-23.5-23.5-23.5zm0 0" fill="#d2f7ff"/><path d="m304.5 117h-97c-18.472656 0-33.5-15.027344-33.5-33.5s15.027344-33.5 33.5-33.5h97c18.472656 0 33.5 15.027344 33.5 33.5s-15.027344 33.5-33.5 33.5zm-97-47c-7.445312 0-13.5 6.054688-13.5 13.5s6.054688 13.5 13.5 13.5h97c7.445312 0 13.5-6.054688 13.5-13.5s-6.054688-13.5-13.5-13.5zm0 0" fill="#fff"/><path d="m304.5 50h-49.382812v20h49.382812c7.445312 0 13.5 6.054688 13.5 13.5s-6.054688 13.5-13.5 13.5h-49.382812v20h49.382812c18.472656 0 33.5-15.027344 33.5-33.5s-15.027344-33.5-33.5-33.5zm0 0" fill="#d2f7ff"/><path d="m261.5 122.449219h-11c-21.550781 0-39.019531-17.472657-39.019531-39.023438v-15.757812h89.039062v15.757812c0 21.550781-17.46875 39.023438-39.019531 39.023438zm0 0" fill="#a4d8ea"/><path d="m255.117188 67.667969v54.78125h6.382812c21.550781 0 39.019531-17.472657 39.019531-39.023438v-15.757812zm0 0" fill="#80c4d6"/><path d="m261.5 132.449219h-11c-27.03125 0-49.019531-21.992188-49.019531-49.023438v-25.757812h109.042969v25.757812c-.003907 27.03125-21.992188 49.023438-49.023438 49.023438zm-40.019531-54.78125v5.757812c0 16.003907 13.019531 29.023438 29.019531 29.023438h11c16.003906 0 29.019531-13.019531 29.019531-29.023438v-5.757812zm0 0" fill="#fff"/><path d="m255.117188 57.667969v20h35.402343v5.757812c0 16.003907-13.015625 29.023438-29.019531 29.023438h-6.382812v20h6.382812c27.03125 0 49.019531-21.992188 49.019531-49.023438v-25.757812zm0 0" fill="#d2f7ff"/></svg>