<svg id="Capa_1" enable-background="new 0 0 512 512" height="512" viewBox="0 0 512 512" width="512" xmlns="http://www.w3.org/2000/svg"><g><g><path clip-rule="evenodd" d="m298.557 10c-72.365 0-133.817 49.123-152.639 115.68l7.143-6.123c9.439-8.079 26.021-8.079 35.431 0l7.171 6.123c3.571 3.061 7.965 5.981 17.716 5.981s14.116-2.92 17.716-5.981l7.143-6.123c9.439-8.079 26.021-8.079 35.46 0l7.143 6.123c9.439 8.05 25.992 8.05 35.431 0l7.171-6.123c9.411-8.079 25.992-8.079 35.431 0l7.143 6.123c3.6 3.061 7.993 5.981 17.716 5.981 9.751 0 14.144-2.92 17.716-5.981l7.171-6.123c9.439-8.079 25.993-8.079 35.431 0l7.143 6.123c-18.82-66.557-80.272-115.68-152.637-115.68z" fill="#a0e5a5" fill-rule="evenodd"/></g><g><path clip-rule="evenodd" d="m139.965 168.595v137.279l-6.661-5.386c-52.977-42.661-100.654 8.362-67.433 49.605l27.977 34.752c27.523 34.157 41.667 49.492 72.479 54.878 9.637 1.672 20.89 2.381 34.723 2.381h31.378 66.129 66.129 57.002c3.146 0 6.208-.425 9.127-1.191 15.108-4.053 26.333-17.915 26.333-34.27v-238.048c0-14.853-2.069-29.253-5.952-42.916l-7.143-6.123c-9.439-8.079-25.992-8.079-35.431 0l-7.171 6.123c-3.571 3.061-7.965 5.981-17.716 5.981-9.722 0-14.116-2.92-17.716-5.981l-7.143-6.123c-9.439-8.079-26.021-8.079-35.431 0l-7.171 6.123c-9.439 8.05-25.992 8.05-35.431 0l-7.143-6.123c-9.439-8.079-26.021-8.079-35.46 0l-7.143 6.123c-3.6 3.061-7.965 5.981-17.716 5.981s-14.144-2.92-17.716-5.981l-7.171-6.123c-9.411-8.079-25.992-8.079-35.431 0l-7.143 6.123c-3.885 13.663-5.955 28.063-5.955 42.916z" fill="#ff7b79" fill-rule="evenodd"/></g><g><path clip-rule="evenodd" d="m166.326 439.724v43.596c0 10.261 8.39 18.68 18.651 18.68h47.45v-59.895h-31.378c-13.832 0-25.085-.709-34.723-2.381z" fill="#a0e5a5" fill-rule="evenodd"/></g><g><path clip-rule="evenodd" d="m232.427 442.105h66.129v59.895h-66.129z" fill="#a0e5a5" fill-rule="evenodd"/></g><g><path clip-rule="evenodd" d="m364.686 442.105v59.895h47.45c10.261 0 18.679-8.419 18.679-18.68v-42.406c-2.92.765-5.981 1.191-9.127 1.191z" fill="#a0e5a5" fill-rule="evenodd"/></g><g><path clip-rule="evenodd" d="m298.557 442.105h66.129v59.895h-66.129z" fill="#a0e5a5" fill-rule="evenodd"/></g><g><path d="m385.255 248.723c.867.232 1.738.344 2.595.344 4.415 0 8.456-2.946 9.653-7.414 1.43-5.334-1.735-10.817-7.07-12.248l-22.909-6.141 6.141-22.911c1.43-5.334-1.735-10.818-7.07-12.248-5.338-1.431-10.818 1.736-12.248 7.07l-7.658 28.569-38.132 22.02v-44.054l20.905-20.881c3.907-3.903 3.911-10.234.008-14.143-3.902-3.906-10.234-3.912-14.143-.008l-16.771 16.751-16.771-16.751c-3.909-3.903-10.239-3.899-14.143.008-3.903 3.908-3.899 10.239.008 14.143l20.905 20.881v44.053l-38.132-22.02-7.658-28.569c-1.43-5.335-6.917-8.501-12.248-7.07-5.334 1.43-8.5 6.914-7.07 12.248l6.141 22.91-22.91 6.141c-5.334 1.431-8.5 6.914-7.07 12.248 1.198 4.468 5.238 7.414 9.653 7.414.857 0 1.729-.111 2.596-.344l28.566-7.658 38.134 22.021-38.134 22.021-28.566-7.658c-5.334-1.428-10.818 1.735-12.249 7.07-1.43 5.334 1.735 10.817 7.07 12.248l22.907 6.141-6.138 22.881c-1.431 5.334 1.733 10.818 7.067 12.249.868.233 1.74.345 2.598.345 4.414 0 8.454-2.945 9.652-7.412l7.657-28.542 38.133-22.021v44.028l-20.909 20.91c-3.905 3.905-3.905 10.237 0 14.143 1.953 1.952 4.512 2.929 7.071 2.929s5.118-.977 7.071-2.929l16.767-16.767 16.767 16.767c1.953 1.952 4.512 2.929 7.071 2.929s5.118-.977 7.071-2.929c3.905-3.905 3.905-10.237 0-14.143l-20.909-20.91v-44.028l38.134 22.021 7.657 28.542c1.198 4.467 5.237 7.412 9.652 7.412.857 0 1.729-.111 2.597-.345 5.335-1.431 8.499-6.915 7.067-12.249l-6.139-22.881 22.907-6.141c5.335-1.431 8.5-6.914 7.07-12.248-1.431-5.334-6.916-8.502-12.248-7.07l-28.566 7.658-38.134-22.021 38.134-22.021z"/><path d="m178.861 394.428c0 5.522 4.477 10 10 10h.057c5.523 0 9.972-4.478 9.972-10s-4.505-10-10.028-10-10.001 4.477-10.001 10z"/><path d="m232.739 384.428c-5.523 0-10 4.478-10 10s4.477 10 10 10h.057c5.523 0 9.972-4.478 9.972-10s-4.506-10-10.029-10z"/><path d="m266.589 394.428c0 5.522 4.478 10 10 10h.057c5.522 0 9.972-4.478 9.972-10s-4.506-10-10.028-10-10.001 4.477-10.001 10z"/><path d="m320.468 384.428c-5.522 0-10 4.478-10 10s4.478 10 10 10h.057c5.522 0 9.972-4.478 9.972-10s-4.507-10-10.029-10z"/><path d="m364.346 384.428c-5.522 0-10 4.478-10 10s4.478 10 10 10h.028c5.522 0 9.986-4.478 9.986-10s-4.492-10-10.014-10z"/><path d="m398.195 394.428c0 5.522 4.478 10 10 10h.057c5.522 0 9.972-4.478 9.972-10s-4.506-10-10.028-10-10.001 4.477-10.001 10z"/><path d="m417.63 49.52c-31.932-31.934-74.22-49.52-119.073-49.52s-87.141 17.586-119.073 49.52c-31.932 31.933-49.518 74.222-49.518 119.076v117.228c-29.169-18.312-56.375-12.582-71.559 2.604-17.951 17.953-18.083 45.891-.325 67.938l27.978 34.754c25.8 32.038 41.267 49.256 70.267 56.596v35.605c0 15.814 12.853 28.68 28.651 28.68h227.158c15.814 0 28.68-12.865 28.68-28.68v-35.449c15.534-7.237 26.332-22.99 26.332-41.227v-79.113c0-5.522-4.478-10-10-10s-10 4.478-10 10v79.113c0 14.039-11.421 25.461-25.459 25.461h-220.64c-54.24 0-64.537-10.223-99.412-53.529l-27.977-34.755c-13.055-16.208-9.964-32.398-1.11-41.254 9.751-9.754 29.872-14.11 54.468 5.697l40.831 32.892c1.849 1.489 4.065 2.213 6.267 2.213 2.922 0 5.818-1.274 7.794-3.727 3.464-4.301 2.787-10.597-1.514-14.061l-30.429-24.513v-132.473c0-12.868 1.646-25.358 4.735-37.273l4.862-4.168c5.667-4.851 16.771-4.856 22.437.008l7.156 6.109c4.839 4.148 11.501 8.39 24.224 8.39 12.654 0 19.332-4.229 24.224-8.389l7.137-6.118c5.667-4.85 16.789-4.85 22.449-.006l7.163 6.141c6.56 5.594 15.38 8.391 24.202 8.391 8.823-.001 17.648-2.799 24.211-8.396l7.191-6.14c5.645-4.847 16.748-4.842 22.41.005l7.173 6.147c4.862 4.136 11.54 8.364 24.193 8.364 12.723 0 19.385-4.241 24.209-8.376l7.181-6.131c5.66-4.845 16.769-4.843 22.421-.006l4.868 4.173c3.089 11.916 4.735 24.406 4.735 37.274v69.107c0 5.522 4.478 10 10 10s10-4.478 10-10v-69.107c-.001-44.854-17.587-87.143-49.518-119.075zm-42.945 402.585h46.13v31.215c0 4.705-3.975 8.68-8.68 8.68h-37.45zm-66.128 0h46.129v39.895h-46.129zm-66.13 0h46.129v39.895h-46.129zm-66.1-1.054c7.38.716 15.546 1.054 24.723 1.054h21.378v39.895h-37.45c-4.77 0-8.651-3.894-8.651-8.68zm225.801-339.1-7.188 6.137c-2.049 1.757-4.168 3.573-11.207 3.573-7.005 0-9.155-1.829-11.207-3.574l-7.149-6.128c-13.146-11.251-35.333-11.247-48.427-.007l-7.166 6.118c-5.666 4.832-16.788 4.834-22.435.018l-7.149-6.129c-13.134-11.239-35.329-11.242-48.47.005l-7.114 6.099c-2.08 1.77-4.231 3.599-11.237 3.599-7.038 0-9.158-1.816-11.222-3.587l-7.151-6.105c-8.054-6.914-19.531-9.576-30.236-7.997 24.08-49.655 75-83.973 133.787-83.973 58.789 0 109.711 34.321 133.79 83.978-10.695-1.574-22.165 1.08-30.219 7.973z"/><path d="m457.147 272.589c-5.522 0-10 4.491-10 10.014s4.478 10 10 10 10-4.478 10-10v-.028c0-5.523-4.477-9.986-10-9.986z"/></g></g></svg>