<?xml version="1.0"?>
<svg xmlns="http://www.w3.org/2000/svg" id="outline" viewBox="0 0 512 512" width="512" height="512"><path d="M216,248H192a8.00022,8.00022,0,0,0-7.15527,4.42188l-16,32A7.99951,7.99951,0,0,0,176,296h24v72h16V273.88867l7.15527-14.31055A7.99951,7.99951,0,0,0,216,248Zm-20.94434,32h-6.11132l8-16h6.11132Z"/><rect x="200" y="384" width="16" height="16"/><path d="M327.15527,252.42188A8.00022,8.00022,0,0,0,320,248H296a7.99951,7.99951,0,0,0-7.15527,11.57812L296,273.88867V368h16V296h24a7.99951,7.99951,0,0,0,7.15527-11.57812ZM316.94434,280l-8-16h6.11132l8,16Z"/><rect x="296" y="384" width="16" height="16"/><rect x="398.60658" y="184.00005" width="21.07297" height="15.99989" transform="translate(-2.8936 377.709) rotate(-49.40098)"/><path d="M312,16H200a40.04584,40.04584,0,0,0-40,40V98.72461L91.6377,128.02246A71.92,71.92,0,0,0,48,194.20117V384a7.99935,7.99935,0,0,0,.35352,2.35254l32,104A8.00142,8.00142,0,0,0,88,496H424a8.00142,8.00142,0,0,0,7.64648-5.64746l32-104A7.99935,7.99935,0,0,0,464,384V194.20117a71.92,71.92,0,0,0-43.6377-66.17871L352,98.72461V56A40.04584,40.04584,0,0,0,312,16Zm24,40V99.71875l-24,15.99951V104a8,8,0,0,0,0-16H296a8,8,0,0,0,0,16v21.94385A23.90587,23.90587,0,0,1,286.31152,128H264V72h13.88184a40.20242,40.20242,0,0,0,34.2998-19.41992l10.75879-17.93042A24.01979,24.01979,0,0,1,336,56ZM312,176v16a8,8,0,0,1-16,0V176ZM234.11816,56a24.11843,24.11843,0,0,1-20.5791-11.65234L206.13037,32h99.73926l-7.40869,12.34766A24.11843,24.11843,0,0,1,277.88184,56ZM189.05981,34.64966l10.75855,17.93042A40.20242,40.20242,0,0,0,234.11816,72H248v56H225.68848A23.91855,23.91855,0,0,1,216,125.94434V104a8,8,0,0,0,0-16H200a8,8,0,0,0,0,16v11.719L176,99.71875V56A24.01956,24.01956,0,0,1,189.05981,34.64966ZM216,176v16a8,8,0,0,1-16,0V176ZM152,480V240a8,8,0,0,0-1.92578-5.20605l-24-28-12.14844,10.4121L136,242.959V440H104v16h32v24H93.9082L64,382.79688V194.20117a55.936,55.936,0,0,1,33.94043-51.47168l69.228-29.66894L200,134.94922V160h-8a8.00039,8.00039,0,0,0-8,8v24a24,24,0,0,0,48,0V168a8.00039,8.00039,0,0,0-8-8h-8V142.78979A39.99737,39.99737,0,0,0,225.68848,144H248V480ZM414.05957,142.72949A55.936,55.936,0,0,1,448,194.20117V382.79688L418.0918,480H376V456h32V440H376V242.959l22.07422-25.75293L385.92578,206.794l-24,28A8,8,0,0,0,360,240V480H264V144h22.31152A39.99434,39.99434,0,0,0,296,142.78979V160h-8a8.00039,8.00039,0,0,0-8,8v24a24,24,0,0,0,48,0V168a8.00039,8.00039,0,0,0-8-8h-8V134.94824l32.83154-21.88794Z"/><rect x="94.85699" y="181.46351" width="15.99989" height="21.07297" transform="translate(-100.18863 113.15808) rotate(-40.60043)"/></svg>
