<svg height="511pt" viewBox="0 -16 511.9995 511" width="511pt" xmlns="http://www.w3.org/2000/svg"><g fill="#3a4047"><path d="m472.679688 387.914062 35.964843 18.234376c1.191407 10.03125 2.28125 20.324218 3.277344 30.867187.832031 8.859375-5.269531 16.878906-14.035156 18.417969l-24.414063 4.285156c-8.675781 1.519531-17.082031-3.8125-19.40625-12.304688l-8.269531-30.238281zm0 0"/><path d="m39.320312 387.914062-35.964843 18.234376c-1.191407 10.03125-2.28125 20.324218-3.277344 30.867187-.835937 8.859375 5.269531 16.878906 14.035156 18.417969l24.414063 4.285156c8.675781 1.519531 17.082031-3.8125 19.40625-12.304688l8.269531-30.238281zm0 0"/><path d="m312.5.5h-113c-12.070312 0-21.851562 9.785156-21.851562 21.855469v53.183593l78.351562 23.148438 78.355469-23.148438v-53.183593c0-12.070313-9.785157-21.855469-21.855469-21.855469zm0 0"/></g><path d="m208.550781 75.539062v-53.183593c0-12.070313 9.785157-21.855469 21.855469-21.855469h-30.90625c-12.070312 0-21.851562 9.785156-21.851562 21.855469v53.183593l78.351562 23.144532 15.453125-4.5625zm0 0" fill="#30343b"/><path d="m27.652344 457.808594c2.152344-17.386719 5.714844-44.144532 6.605468-51.660156.671876-5.660157 1.378907-11.234376 2.105469-16.734376l-33.007812 16.734376c-.59375 5.015624-1.164063 10.097656-1.710938 15.242187s-1.070312 10.351563-1.566406 15.625c-.0546875.554687-.078125 1.105469-.078125 1.648437.015625 7.097657 4.433594 13.40625 10.957031 15.898438 1.003907.386719 2.058594.679688 3.15625.871094zm0 0" fill="#30343b"/><path d="m508.644531 406.148438-62.847656 11.027343-52.4375-191.769531-137.359375 51.265625-137.359375-51.265625-52.4375 191.769531-62.847656-11.027343c17.199219-144.972657 53.675781-237.128907 75.5-281.605469 9.679687-19.726563 27.914062-33.875 49.398437-38.460938l49.394532-10.542969h156.703124l49.390626 10.542969c21.484374 4.585938 39.71875 18.734375 49.402343 38.460938 21.824219 44.476562 58.300781 136.632812 75.5 281.605469zm0 0" fill="#fccb5e"/><path d="m33.601562 411.457031c.28125-2.222656.507813-4.042969.65625-5.308593 17.199219-144.972657 53.679688-237.128907 75.5-281.605469 9.683594-19.726563 27.917969-33.875 49.402344-38.460938l49.390625-10.542969h-30.902343l-49.394532 10.542969c-21.484375 4.585938-39.71875 18.734375-49.398437 38.460938-9.550781 19.457031-21.902344 48.042969-34.21875 86.183593-2.636719 8.171876-5.277344 16.785157-7.882813 25.839844-13.039062 45.277344-25.335937 101.625-33.398437 169.582032zm0 0" fill="#f3b94e"/><path d="m256 407.261719-99.632812 24.183593v26.882813c0 11.414063 9.25 20.667969 20.664062 20.667969h157.9375c11.414062 0 20.667969-9.253906 20.667969-20.667969v-26.882813zm0 0" fill="#fccb5e"/><path d="m355.632812 431.445312h-199.265624c-44.476563-54.460937-38.703126-188.117187-37.824219-204.40625.011719-.125.011719-.242187.019531-.355468l.078125-1.277344h274.71875l.078125 1.277344.019531.355468c.878907 16.289063 6.65625 149.945313-37.824219 204.40625zm0 0" fill="#3a4047"/><path d="m239.554688 75.539062h32.890624v355.90625h-32.890624zm0 0" fill="#e4e7eb"/><path d="m239.554688.5h32.890624v75.039062h-32.890624zm0 0" fill="#fccb5e"/><path d="m194.203125 302.066406-43.417969 43.417969c-2.871094 2.867187-2.871094 7.519531 0 10.390625l5.492188 5.492188c6.199218 6.199218 16.253906 6.199218 22.453125 0l31.355469-31.355469c6.199218-6.199219 6.199218-16.25 0-22.453125l-5.492188-5.492188c-2.871094-2.871094-7.523438-2.871094-10.390625 0zm0 0" fill="#fccb5e"/><path d="m317.796875 302.066406 43.417969 43.417969c2.871094 2.867187 2.871094 7.519531 0 10.390625l-5.492188 5.492188c-6.199218 6.199218-16.253906 6.199218-22.453125 0l-31.355469-31.355469c-6.199218-6.199219-6.199218-16.25 0-22.453125l5.492188-5.492188c2.871094-2.871094 7.523438-2.871094 10.390625 0zm0 0" fill="#fccb5e"/></svg>