<?xml version="1.0" encoding="iso-8859-1"?>
<!-- Generator: Adobe Illustrator 18.0.0, SVG Export Plug-In . SVG Version: 6.00 Build 0)  -->
<!DOCTYPE svg PUBLIC "-//W3C//DTD SVG 1.1//EN" "http://www.w3.org/Graphics/SVG/1.1/DTD/svg11.dtd">
<svg version="1.1" id="Capa_1" xmlns="http://www.w3.org/2000/svg" xmlns:xlink="http://www.w3.org/1999/xlink" x="0px" y="0px"
	 viewBox="0 0 393.755 393.755" style="enable-background:new 0 0 393.755 393.755;" xml:space="preserve">
<path d="M326.717,49.454c-2.988-26.761-36.103-39.469-36.103-39.469c-10.121-4.01-31.078-9.588-31.967-9.823l-0.023,0.018
	c-1.514-0.395-3.19-0.085-4.481,0.992c-0.18,0.15-18.527,15.081-57.266,15.081c-38.611,0-56.965-14.834-57.262-15.079
	c-1.293-1.092-2.979-1.407-4.5-1.007l-0.007-0.005c-0.888,0.235-21.847,5.814-31.966,9.823c0,0-32.402,11.254-36.101,39.468
	c-0.406,3.097-16.852,96.136-21.479,311.367c-0.029,1.345,0.484,2.643,1.426,3.604c0.939,0.961,2.229,1.503,3.572,1.503h41.668
	v13.742c0,2.097,1.309,3.97,3.275,4.693c1.044,0.384,26.423,9.393,101.373,9.393c74.952,0,100.331-9.009,101.376-9.393
	c1.967-0.724,3.275-2.597,3.275-4.693v-13.742h41.668c1.344,0,2.633-0.542,3.572-1.503c0.941-0.961,1.455-2.26,1.426-3.604
	C343.566,145.616,327.065,52.58,326.717,49.454z M196.876,26.253c25.526,0,42.991-5.972,53.1-10.934
	c-6.912,14.612-28.098,25.28-53.1,25.28c-25,0-46.185-10.668-53.099-25.28C153.888,20.281,171.353,26.253,196.876,26.253z
	 M55.671,355.927C60.48,142.726,76.9,51.099,76.911,51.056c5.358-23.152,29.915-31.774,29.915-31.774
	c6.473-2.565,18.203-5.959,25.184-7.905c0.669,3.408,1.885,6.714,3.596,9.877c-30.573,10.076-40.437,48.373-43.604,72.52
	l-2.032-7.026c-0.768-2.652-3.538-4.182-6.192-3.413c-2.652,0.767-4.182,3.539-3.414,6.192l10.271,35.512l1.594,132.552v98.338
	H55.671z M291.527,375.914c-8.852,2.27-36.514,7.842-94.651,7.842c-58.156,0-85.816-5.576-94.648-7.841V257.57
	c0-0.011-1.729-143.678-1.729-143.678c0.001-0.758,0.557-74.254,41.35-84.034c2.68,2.876,5.839,5.562,9.471,8
	c12.239,8.216,28.418,12.741,45.557,12.741c17.139,0,33.319-4.525,45.559-12.741c3.633-2.438,6.791-5.124,9.471-8
	c40.793,9.781,41.348,83.275,41.35,83.972c0,0-1.728,143.73-1.728,143.74V375.914z M301.527,355.927V257.63l1.594-132.594
	l10.272-35.511c0.768-2.653-0.76-5.426-3.412-6.192c-2.654-0.771-5.426,0.761-6.193,3.413l-2.031,7.023
	c-3.166-24.127-13.021-62.442-43.603-72.52c1.709-3.162,2.926-6.467,3.594-9.873c6.98,1.946,18.711,5.341,25.184,7.905
	c0,0,26.59,10.48,29.916,31.774c0.006,0.044,16.428,91.67,21.238,304.871H301.527z"/>
<g>
</g>
<g>
</g>
<g>
</g>
<g>
</g>
<g>
</g>
<g>
</g>
<g>
</g>
<g>
</g>
<g>
</g>
<g>
</g>
<g>
</g>
<g>
</g>
<g>
</g>
<g>
</g>
<g>
</g>
</svg>
