<?xml version="1.0" encoding="iso-8859-1"?>
<!-- Generator: Adobe Illustrator 19.0.0, SVG Export Plug-In . SVG Version: 6.00 Build 0)  -->
<svg version="1.1" id="Capa_1" xmlns="http://www.w3.org/2000/svg" xmlns:xlink="http://www.w3.org/1999/xlink" x="0px" y="0px"
	 viewBox="0 0 427.067 427.067" style="enable-background:new 0 0 427.067 427.067;" xml:space="preserve">
<path id="XMLID_356_" d="M412.861,117.9l-97.318-59.469c-1.413-0.863-3.037-1.32-4.693-1.32h-18.143
	c0.384-1.684,2.077-16.14-1.791-19.522c1.553-3.146,2.372-6.627,2.372-10.241v-4.093C293.288,10.432,282.856,0,270.035,0H157.034
	c-12.822,0-23.254,10.432-23.254,23.255c0,0,0.004,11.154,2.372,14.334c-1.552,3.146-2.372,6.628-2.372,10.241
	c0,0,0.19,7.618,0.552,9.281h-18.114c-1.656,0-3.28,0.457-4.693,1.32L14.207,117.9c-2.675,1.635-4.307,4.544-4.307,7.68v256.274
	c0,4.97,4.028,8.999,8.998,9l61.629,0.017c0.001,0,0.002,0,0.002,0c4.961,0,8.987-4.014,9-8.975l0.562-200.645l17.127-11.59v248.405
	c0,4.971,4.029,9,9,9H310.85c4.971,0,9-4.029,9-9V169.662l17.127,11.59l0.562,200.645c0.014,4.962,4.041,8.976,9.002,8.975
	l61.629-0.017c4.97-0.001,8.998-4.03,8.998-9V125.58C417.168,122.444,415.536,119.535,412.861,117.9z M71.554,372.869l-43.655-0.013
	v-12.931H71.59L71.554,372.869z M399.168,372.856l-43.655,0.013l-0.036-12.943h43.691V372.856z M399.168,341.926h-43.741
	l-0.463-165.485c-0.008-2.979-1.49-5.76-3.956-7.429l-35.005-23.687c-0.077-0.054-0.154-0.105-0.232-0.157l-17.438-11.8
	c-4.118-2.787-9.713-1.705-12.498,2.41c-2.785,4.117-1.707,9.712,2.41,12.498l13.605,9.206v251.585H125.218V157.481l13.603-9.205
	c4.117-2.786,5.195-8.382,2.41-12.498c-2.785-4.117-8.38-5.195-12.498-2.41L76.06,169.012c-2.467,1.67-3.948,4.45-3.956,7.429
	l-0.463,165.485H27.899V130.628l90.851-55.517h64.156c4.971,0,9-4.029,9-9s-4.029-9-9-9h-26.242c-2.785,0-4.884-2.23-4.884-5.188
	c0,0,0.056-4.956,0.149-5.334h22.553c4.971,0,9-4.029,9-9s-4.029-9-9-9h-22.553c-0.093-0.378-0.149-5.334-0.149-5.334
	c0-2.849,2.406-5.255,5.254-5.255h113.001c2.848,0,5.253,2.406,5.253,5.255c0,0-0.056,4.956-0.149,5.334H216.24
	c-4.971,0-9,4.029-9,9s4.029,9,9,9h58.898c0.093,0.378,0.149,5.334,0.149,5.334c-0.129,4.486-3.34,5.016-4.403,5.188l-26.706,0.017
	c-0.006,0-0.012,0-0.018,0c-4.962,0-8.99,4.019-9,8.982c-0.009,4.971,4.012,9.008,8.983,9.018l64.172-0.017l90.851,55.517V341.926z"
	/>
<g>
</g>
<g>
</g>
<g>
</g>
<g>
</g>
<g>
</g>
<g>
</g>
<g>
</g>
<g>
</g>
<g>
</g>
<g>
</g>
<g>
</g>
<g>
</g>
<g>
</g>
<g>
</g>
<g>
</g>
</svg>
