<svg id="Capa_1" enable-background="new 0 0 511 511" height="512" viewBox="0 0 511 511" width="512" xmlns="http://www.w3.org/2000/svg"><g><g><g><g><path d="m360.5 165.5 60 225 67.684-33.002z" fill="#f8e868"/></g><g><path d="m434.5 356.834-35.641-133.653-38.359-57.681 60 225 67.684-33.002-13.479-20.268z" fill="#e8ab4c"/></g><g><path d="m22.816 357.498 67.684 33.002 60-225z" fill="#f8e868"/></g><g><path d="m54.817 348.498 78.268-117.693 17.415-65.305-127.684 191.998 67.684 33.002 5.806-21.773z" fill="#e8ab4c"/></g><g><path d="m299.874 24.159.005-.021c-25.067-21.895-63.691-21.895-88.758 0l.005.021c-32.545 28.429-23.126 80.627-23.126 119.346h135c0-38.724 9.434-90.904-23.126-119.346z" fill="#f8e868"/></g><g><path d="m210.978 66.095c.479-17.768 2.997-35.17 11.062-49.661-3.843 2.168-7.51 4.726-10.919 7.704l.005.021c-32.545 28.429-23.126 80.627-23.126 119.346h135c0-7.624.365-15.769.704-24.152h-61.048c-29.162 0-52.464-24.106-51.678-53.258z" fill="#e8ab4c"/></g><g><path d="m255.5 38.495c-20.432 0-36.996 16.564-36.996 36.996 0 19.686 7.128 49.697 17.8 68.014h38.391c10.672-18.317 17.8-48.328 17.8-68.014.001-20.432-16.563-36.996-36.995-36.996z" fill="#e1763a"/></g><g><path d="m259.668 120.141c-10.672-18.317-17.8-48.328-17.8-68.014 0-4.099.677-8.039 1.908-11.724-14.683 4.905-25.272 18.755-25.272 35.088 0 19.686 7.128 49.697 17.8 68.014h38.391c3.851-6.609 7.237-14.744 9.996-23.364z" fill="#b45e2e"/></g><g><path d="m360.5 165.5-37.5-21.995h-135l-37.5 21.995-75 285c37 30.899 96.999 53 180 53s153-24.985 180-53z" fill="#f8e868"/></g><g><path d="m435.5 450.5-5.27-20.025c-40.91 35.248-104.815 45.371-156.74 47.641-58.473 2.556-121.205-5.273-172.638-35.021l74.981-284.927 24.997-14.662h-12.83l-37.5 21.994-75 285c45.254 37.792 107.198 50.765 164.707 52.744 44.075 1.517 90.978-2.65 132.708-17.824 28.153-9.511 50.024-21.887 62.585-34.92z" fill="#e8ab4c"/></g><g><g><g><path d="m158.544 216.735h15v15h-15z" fill="#fff" transform="matrix(.255 -.967 .967 .255 -93.065 327.745)"/></g><g><path d="m166.179 187.723h15v15h-15z" fill="#fff" transform="matrix(.255 -.967 .967 .255 -59.317 313.499)"/></g></g></g><g><path d="m143.501 330.5h60v30h-60z" fill="#e8ab4c"/></g><g><path d="m308.501 330.5h60v30h-60z" fill="#e8ab4c"/></g></g></g><g><path d="m373.56 477.239 5.154 14.087c5.06-1.852 10.041-3.852 14.804-5.945l-6.035-13.732c-4.474 1.966-9.159 3.847-13.923 5.59z"/><path d="m499.175 360.482-132.21-199.885-36.465-21.388v-64.209c0-41.355-33.645-75-75-75-18.146 0-35.659 6.566-49.312 18.49l9.866 11.298c10.92-9.536 24.929-14.788 39.446-14.788 33.084 0 60 26.916 60 60v61.005h-28.716c7.818-18.193 13.212-42.135 13.212-60.514 0-24.535-19.96-44.496-44.496-44.496s-44.496 19.961-44.496 44.496c0 18.378 5.394 42.32 13.212 60.514h-28.716v-61.005c0-12.658 3.893-24.759 11.257-34.996l-12.176-8.76c-9.212 12.804-14.081 27.935-14.081 43.756v64.209l-36.465 21.388-132.21 199.885 70.555 34.402-15.205 57.78c40.658 44.169 125.992 58.336 188.325 58.336 36.1-.011 72.473-4.004 107.145-14.35l-4.289-14.374c-24.343 7.265-51.296 11.663-80.355 13.149v-285.258h-15v285.768c-2.487.041-12.528.037-15-.005v-344.925h15v44.495h15v-44.495h42.963l33.071 19.398 73.05 277.59c-4.191 3.543-12.693 10.068-25.668 17.01l7.076 13.226c12.894-6.898 25.09-15.06 35.344-25.519l-15.217-57.825zm-273.171-284.991c0-16.264 13.231-29.496 29.496-29.496s29.496 13.232 29.496 29.496-5.473 42.439-14.749 60.514h-29.494c-9.276-18.075-14.749-44.25-14.749-60.514zm-192.196 279.023 97.96-147.302-45.496 172.883zm199.192 140.908c-52.562-2.724-89.351-14.63-111.831-24.82-19.966-9.051-32.055-18.185-37.259-22.59l73.055-277.608 33.072-19.398h42.963zm244.192-140.908-52.464 25.581-45.495-172.883z"/><path d="m136 368h75v-45h-75zm15-30h45v15h-45z"/><path d="m301.001 323v45h75v-45zm60 30h-45v-15h45z"/></g></g></svg>