<svg height="496pt" viewBox="0 0 496 495" width="496pt" xmlns="http://www.w3.org/2000/svg"><path d="m240 248.144531h-216c-8.839844 0-16 7.160157-16 16 0 8.839844 7.160156 16 16 16h32c8.839844 0 16 7.160157 16 16 0 8.839844-7.160156 16-16 16h-16c-8.839844 0-16 7.160157-16 16 0 8.839844 7.160156 16 16 16h200" fill="#85b6cf"/><path d="m64 352.144531h-24c-13.230469 0-24-10.769531-24-24 0-13.234375 10.769531-24 24-24h16c4.40625 0 8-3.59375 8-8 0-4.410156-3.59375-8-8-8h-32c-13.230469 0-24-10.769531-24-24 0-13.234375 10.769531-24 24-24h216v16h-216c-4.40625 0-8 3.589844-8 8 0 4.40625 3.59375 8 8 8h32c13.230469 0 24 10.765625 24 24 0 13.230469-10.769531 24-24 24h-16c-4.40625 0-8 3.589844-8 8 0 4.40625 3.59375 8 8 8h24zm0 0"/><path d="m88 392.144531h320v32h-320c-8.839844 0-16-7.160156-16-16 0-8.839843 7.160156-16 16-16zm0 0" fill="#7e4e4d"/><path d="m248 56.144531h160v32h-160zm0 0" fill="#575c61"/><path d="m248 56.144531h128v32h-128zm0 0" fill="#5b6673"/><path d="m408 392.144531v-80l-16-40 8-184h-144l8 184-32 40h-96c-26.511719 0-48 21.488281-48 48v32zm0 0" fill="#7e4e4d"/><path d="m296 120.144531h64v32h-64zm0 0" fill="#575c61"/><path d="m296 120.144531h40v32h-40zm0 0" fill="#5b6673"/><path d="m74.214844 416.144531c2.769531 4.757813 7.875 8 13.785156 8h320v-16h-320c-5.902344 0-11.007812 3.238281-13.785156 8zm0 0" fill="#8d5655"/><path d="m168 432.144531h-80c-13.230469 0-24-10.769531-24-24 0-13.234375 10.769531-24 24-24h96v16h-96c-4.40625 0-8 3.589844-8 8 0 4.40625 3.59375 8 8 8h80zm0 0"/><path d="m96 392.144531h-16v-32c0-30.878906 25.121094-56 56-56h92.160156l27.71875-34.65625-7.871094-181 15.984376-.695312 8 184c.085937 1.933593-.535157 3.832031-1.746094 5.34375l-32 40c-1.519532 1.902343-3.8125 3.007812-6.246094 3.007812h-96c-22.054688 0-40 17.945313-40 40zm0 0"/><path d="m408 96.144531h-160c-4.414062 0-8-3.585937-8-8v-32c0-4.417969 3.585938-8 8-8h160c4.414062 0 8 3.582031 8 8v32c0 4.414063-3.585938 8-8 8zm-152-16h144v-16h-144zm0 0"/><path d="m328 120.144531h160v32h-160zm0 0" fill="#575c61"/><path d="m328 120.144531h128v32h-128zm0 0" fill="#5b6673"/><path d="m176 472.144531h-152c-8.839844 0-16-7.160156-16-16 0-8.839843 7.160156-16 16-16h152" fill="#94cce7"/><path d="m488 456.144531v-80l-16-40 8-184h-144l8 184-32 40h-96c-26.511719 0-48 21.488281-48 48v32zm0 0" fill="#7e4e4d"/><path d="m464 440.144531v-80l-16-40 7.304688-168h-119.304688l8 184-32 40h-96c-26.511719 0-48 21.488281-48 48v16zm0 0" fill="#8d5655"/><path d="m376 184.144531h64v32h-64zm0 0" fill="#575c61"/><path d="m376 184.144531h40v32h-40zm0 0" fill="#5b6673"/><path d="m168 456.144531h320v32h-320c-8.839844 0-16-7.160156-16-16 0-8.839843 7.160156-16 16-16zm0 0" fill="#7e4e4d"/><path d="m154.214844 480.144531c2.769531 4.757813 7.875 8 13.785156 8h320v-16h-320c-5.902344 0-11.007812 3.238281-13.785156 8zm0 0" fill="#8d5655"/><path d="m104 168.144531c0 23.382813-20.070312 42.085938-43.929688 39.816407-20.796874-1.984376-36.070312-20.640626-36.070312-41.535157v-1.632812c0-13.496094 3.792969-26.722657 10.945312-38.160157l29.054688-46.488281 29.054688 46.488281c7.152343 11.4375 10.945312 24.664063 10.945312 38.160157zm0 0" fill="#85b6cf"/><path d="m176 88.144531c0 19.785157-17.953125 35.375-38.457031 31.367188-15.191407-2.96875-25.542969-17.265625-25.542969-32.742188v-3.296875c0-7.449218 1.734375-14.800781 5.0625-21.464844l26.9375-53.863281 26.9375 53.863281c3.328125 6.664063 5.0625 14.015626 5.0625 21.464844zm0 0" fill="#85b6cf"/><path d="m56 92.945312-21.054688 33.6875c-7.152343 11.445313-10.945312 24.664063-10.945312 38.160157v1.632812c0 19.621094 13.542969 37.085938 32.425781 40.804688 18.039063-3.871094 31.574219-19.886719 31.574219-39.085938v-3.351562c0-13.496094-3.792969-26.722657-10.945312-38.160157zm0 0" fill="#94cce7"/><path d="m136 24.144531-18.9375 37.863281c-3.328125 6.664063-5.0625 14.015626-5.0625 21.464844v3.296875c0 14.984375 9.742188 28.757813 24.144531 32.328125 13.726563-3.601562 23.855469-16.097656 23.855469-30.953125v-4.671875c0-7.449218-1.734375-14.800781-5.0625-21.464844zm0 0" fill="#94cce7"/><path d="m488 496.144531h-320c-13.230469 0-24-10.769531-24-24 0-13.234375 10.769531-24 24-24h320c4.414062 0 8 3.582031 8 8v32c0 4.414063-3.585938 8-8 8zm-320-32c-4.40625 0-8 3.589844-8 8 0 4.40625 3.59375 8 8 8h312v-16zm0 0"/><path d="m176 456.144531h-16v-32c0-30.878906 25.121094-56 56-56h92.160156l27.71875-34.65625-7.871094-181 15.984376-.695312 8 184c.085937 1.933593-.535157 3.832031-1.746094 5.34375l-32 40c-1.519532 1.902343-3.8125 3.007812-6.246094 3.007812h-96c-22.054688 0-40 17.945313-40 40zm0 0"/><path d="m496 456.144531h-16v-78.464843l-15.433594-38.566407c-.414062-1.058593-.613281-2.183593-.558594-3.320312l8-184 15.984376.695312-7.929688 182.28125 15.363281 38.398438c.382813.953125.574219 1.960937.574219 2.976562zm0 0"/><path d="m488 160.144531h-160c-4.414062 0-8-3.585937-8-8v-32c0-4.417969 3.585938-8 8-8h160c4.414062 0 8 3.582031 8 8v32c0 4.414063-3.585938 8-8 8zm-152-16h144v-16h-144zm0 0"/><path d="m440 224.144531h-64c-4.414062 0-8-3.585937-8-8v-32c0-4.417969 3.585938-8 8-8h64c4.414062 0 8 3.582031 8 8v32c0 4.414063-3.585938 8-8 8zm-56-16h48v-16h-48zm0 0"/><path d="m152 480.144531h-128c-13.230469 0-24-10.769531-24-24 0-13.234375 10.769531-24 24-24h24v16h-24c-4.40625 0-8 3.589844-8 8 0 4.40625 3.59375 8 8 8h128zm0 0"/><path d="m63.894531 216.144531c-1.527343 0-3.054687-.074219-4.582031-.214843-24.289062-2.320313-43.3125-24.066407-43.3125-49.503907v-1.632812c0-15.007813 4.207031-29.664063 12.160156-42.402344l29.054688-46.488281c2.929687-4.679688 10.640625-4.679688 13.570312 0l29.054688 46.488281c7.953125 12.730469 12.160156 27.394531 12.160156 42.402344v3.351562c0 13.496094-5.726562 26.441407-15.71875 35.519531-8.847656 8.046876-20.449219 12.480469-32.386719 12.480469zm.105469-120.90625-22.273438 35.632813c-6.367187 10.183594-9.726562 21.921875-9.726562 33.921875v1.632812c0 17.277344 12.664062 32.023438 28.832031 33.566407 9.121094.855468 17.9375-2.023438 24.6875-8.167969 6.65625-6.046875 10.480469-14.679688 10.480469-23.679688v-3.351562c0-12-3.359375-23.738281-9.726562-33.921875zm0 0"/><path d="m143.945312 128.136719c-2.632812 0-5.289062-.257813-7.929687-.769531-18.550781-3.625-32.015625-20.695313-32.015625-40.597657v-3.296875c0-8.648437 2.039062-17.3125 5.910156-25.039062l26.9375-53.867188c2.710938-5.421875 11.601563-5.421875 14.3125 0l26.9375 53.867188c3.863282 7.734375 5.902344 16.390625 5.902344 25.046875v4.664062c0 12-5.320312 23.253907-14.585938 30.886719-7.214843 5.945312-16.199218 9.105469-25.46875 9.105469zm.054688-102.105469-19.777344 39.554688c-2.757812 5.527343-4.222656 11.71875-4.222656 17.894531v3.296875c0 12.0625 8.199219 22.765625 19.078125 24.886718 7.371094 1.441407 14.523437-.328124 20.167969-4.984374 5.5625-4.582032 8.753906-11.335938 8.753906-18.535157v-4.664062c0-6.175781-1.464844-12.359375-4.222656-17.894531zm0 0"/></svg>