<?xml version="1.0" encoding="iso-8859-1"?>
<!-- Generator: Adobe Illustrator 16.0.0, SVG Export Plug-In . SVG Version: 6.00 Build 0)  -->
<!DOCTYPE svg PUBLIC "-//W3C//DTD SVG 1.1//EN" "http://www.w3.org/Graphics/SVG/1.1/DTD/svg11.dtd">
<svg version="1.1" id="Capa_1" xmlns="http://www.w3.org/2000/svg" xmlns:xlink="http://www.w3.org/1999/xlink" x="0px" y="0px"
	 width="62.571px" height="62.57px" viewBox="0 0 62.571 62.57" style="enable-background:new 0 0 62.571 62.57;"
	 xml:space="preserve">
<g>
	<g>
		<path d="M4.938,40.999c0.103,0.319,0.37,0.663,1.037,0.856c0.86,0.25,1.187,0.179,1.338,0c0.218,0.053,0.443,0.104,0.676,0.148
			c0.162,0.283,0.481,0.555,1.136,0.634c1.062,0.128,1.304-0.07,1.375-0.342c0.197,0.009,0.401,0.013,0.606,0.02
			c0.116,0.241,0.38,0.513,1.009,0.466c0.847-0.062,0.938-0.266,0.926-0.493c0.262-0.012,0.511-0.021,0.766-0.034
			c0.124,0.222,0.411,0.443,1.074,0.46c1.315,0.036,1.24-0.274,1.275-0.571c0.194-0.011,0.393-0.02,0.582-0.03
			c0.049,0.26,0.27,0.697,1.24,0.608c1.358-0.124,1.19-0.442,1.201-0.752c0.615-0.038,1.202-0.074,1.75-0.11l0.688-0.659
			c0.124-0.119,3.053-2.896,5.912-2.896c0.173,0,0.345,0.011,0.515,0.032c1.512,0.186,4.137,1.248,6.072,2.104
			c3.195,1.414,3.969,1.88,4.146,2.175c1.859,0.002,3.905-0.053,5.995-0.175c0.201,0.203,0.524,0.365,1.049,0.362
			c1.035-0.007,1.229-0.24,1.259-0.525c0.165-0.015,0.332-0.027,0.497-0.041c0.203,0.287,0.589,0.554,1.331,0.422
			c0.957-0.171,1.154-0.413,1.162-0.679c0.054-0.007,0.107-0.014,0.163-0.02c0.102,0.281,0.408,0.781,1.294,0.572
			c1.098-0.259,0.999-0.564,0.921-0.877c0.152-0.023,0.307-0.047,0.457-0.071c0.075,0.244,0.34,0.686,1.275,0.423
			c1.133-0.317,1.071-0.581,1.02-0.854c0.08-0.019,0.162-0.034,0.241-0.053c0.075,0.216,0.361,0.714,1.33,0.31
			c0.99-0.416,1.003-0.664,0.937-0.904c0.09-0.028,0.181-0.055,0.269-0.084c0.126,0.204,0.426,0.447,1.133,0.151
			c1.051-0.439,0.878-0.67,0.807-0.93c0.083-0.04,0.165-0.08,0.243-0.12c0.101,0.152,0.387,0.432,1.009,0.011
			c0.807-0.55,0.59-0.702,0.492-0.91l-0.076,0.041c1.639-1.2,1.689-2.289,1.309-3.088c-1.452,0.909-7.092,4.016-16.371,4.016
			c-4.771,0-9.776-0.838-14.878-2.488c-11.685-3.782-20.371-3.916-25.562-3.995c-2.498-0.039-4.25-0.076-5.215-0.54
			c-0.171,0.437-0.279,1.028-0.114,1.718c0.806,0.704,2.625,1.44,6.788,1.146c7.808-0.559,13.867,1.365,13.927,1.384
			c0.137,0.044,0.211,0.19,0.168,0.327c-0.036,0.11-0.137,0.181-0.248,0.181c-0.026,0-0.053-0.004-0.08-0.012
			c-0.061-0.021-6.024-1.915-13.73-1.361c-3.444,0.244-5.39-0.217-6.492-0.81c0.074,0.134,0.158,0.271,0.256,0.409
			C0.824,35.551,0.992,39.025,4.938,40.999z"/>
		<path d="M0.575,32.11c2.527,1.268,13.32-1.131,30.712,4.497c5.602,1.813,10.531,2.464,14.717,2.464
			c9.135,0,14.728-3.09,16.099-3.942c0.219-0.136,0.341-0.221,0.341-0.221c0.009-0.192,0.002-0.361,0.001-0.538
			c-0.131,0.002-0.263,0.004-0.391-0.004c0,0-0.229-0.01-0.286-0.677c0,0-0.045-0.294-0.077-1.121
			c-0.021-0.521,0.023-0.802,0.247-0.971c-0.17-0.401-0.315-0.609-0.315-0.609c-1.443-2.92-4.015-1.91-10.492-2.473
			c0.532,0.168,0.915,0.438,0.862,0.637c-0.057,0.213-0.592,0.255-1.192,0.094c-0.601-0.162-1.043-0.466-0.984-0.679
			c0.022-0.086,0.138-0.137,0.29-0.165c-2.648-0.339-4.812-1.073-6.637-1.957c0.086,0.139,0.132,0.265,0.082,0.347
			c-0.129,0.214-0.723,0.091-1.326-0.273c-0.604-0.364-0.988-0.833-0.858-1.047c0.028-0.046,0.085-0.069,0.152-0.085
			c-1.411-0.852-2.596-1.745-3.658-2.501c-1.863-1.328-2.289-3.162-3.553-3.162c-0.666,0-1.561,0.505-3.018,1.855
			c-1.97,1.823-6.317,3.918-10.405,5.64c1.193,0.354,2.086,1.464,2.086,2.776c0,1.145-0.672,2.128-1.637,2.601
			c-0.383,0.187-0.808,0.301-1.262,0.301c-0.536,0-1.04-0.152-1.477-0.413c-0.655-0.39-1.152-1.025-1.342-1.796l-1.987-1.244
			c-2.051,0.766-3.441,1.24-3.441,1.24c-0.997,0.395-2.092,0.536-3.201,0.536c-2.812,0-5.715-0.91-7.333-0.91
			c-0.857,0-1.354,0.256-1.284,1.04C0.033,31.693,0.228,31.936,0.575,32.11z M57.569,33.912c0.708-0.239,1.019-0.457,1.495,0.228
			c0.01,0.015,0.02,0.026,0.032,0.043c0.494,0.745,0.908,1.453,0.908,1.453s-1.368,0.787-2.589,0.948c0,0-0.224,0.034-0.351-0.533
			c0,0-0.077-0.246-0.198-0.958c-0.096-0.567-0.037-0.823,0.352-1.027C57.318,34.013,57.421,33.963,57.569,33.912z M56.208,29.557
			c0.564,0.095,0.991,0.348,0.955,0.566c-0.037,0.217-0.524,0.318-1.088,0.223c-0.564-0.095-0.991-0.349-0.955-0.566
			C55.157,29.562,55.642,29.463,56.208,29.557z M52.806,30.447c0.573,0.096,0.997,0.418,0.947,0.72
			c-0.052,0.3-0.557,0.467-1.13,0.372c-0.574-0.098-0.997-0.419-0.947-0.721C51.726,30.516,52.233,30.35,52.806,30.447z
			 M50.391,35.523c1.204-0.137,1.772-0.323,2.16,0.519c0.388,0.843,0.669,1.635,0.669,1.635s-2.422,0.592-4.327,0.562
			c0,0-0.353,0.002-0.273-0.603c0,0,0.002-0.265,0.16-1.013C48.937,35.874,49.188,35.662,50.391,35.523z M48.714,31.437
			c-0.062,0.362-0.599,0.571-1.202,0.47c-0.602-0.1-1.041-0.475-0.98-0.836c0.062-0.362,0.599-0.572,1.201-0.471
			S48.775,31.075,48.714,31.437z M46.673,28.293c0.597,0.208,1.015,0.563,0.934,0.793c-0.08,0.23-0.628,0.248-1.226,0.04
			c-0.597-0.208-1.015-0.563-0.935-0.793C45.527,28.102,46.077,28.084,46.673,28.293z M41.778,29.611c0.61,0,1.105,0.41,1.105,0.917
			c0,0.506-0.494,0.916-1.105,0.916s-1.107-0.41-1.107-0.916C40.671,30.021,41.167,29.611,41.778,29.611z M39.401,37.093
			c0,0,0.077-0.253,0.441-0.927c0.365-0.675,0.666-0.807,1.858-0.598c0.042,0.009,0.078,0.013,0.117,0.021
			c1.111,0.188,1.679,0.204,1.806,1.089c0.09,0.621,0.14,1.2,0.163,1.514c0.011,0.15,0.017,0.245,0.017,0.245
			s-1.042-0.052-2.267-0.241c-0.673-0.104-1.399-0.247-2.043-0.447c0,0-0.051-0.027-0.1-0.08
			C39.317,37.589,39.25,37.431,39.401,37.093z"/>
		<path d="M5.582,22.768l9.738,6.098l0.276,0.174l0.28,0.175l1.837,1.15l0.022,0.109c0.224,1.104,1.205,1.905,2.333,1.905
			c1.312,0,2.38-1.068,2.38-2.381c0-1.375-1.181-2.479-2.577-2.356c-0.135,0.011-0.271,0.021-0.409,0.058l-0.108,0.029L19.2,27.632
			l-0.271-0.17L7.043,20.018c-0.151-0.081-0.336-0.127-0.523-0.127c-0.42,0-0.804,0.229-1.003,0.599L5.12,21.228
			c-0.145,0.267-0.176,0.574-0.088,0.865C5.119,22.385,5.314,22.624,5.582,22.768z"/>
		<path d="M27.527,38.826c-2.682,0-5.551,2.75-5.551,2.75s0.772,0.033,1.989,0.092c1.773,0.09,4.498,0.241,7.204,0.453
			c1.66,0.13,3.306,0.281,4.724,0.456c0.687,0.084,1.321,0.173,1.871,0.267c0.006,0.002,0.013,0.003,0.017,0.003
			c0.05,0-0.095-0.092-0.358-0.236c-1.463-0.805-7.097-3.467-9.444-3.756C27.828,38.834,27.678,38.826,27.527,38.826z"/>
	</g>
</g>
<g>
</g>
<g>
</g>
<g>
</g>
<g>
</g>
<g>
</g>
<g>
</g>
<g>
</g>
<g>
</g>
<g>
</g>
<g>
</g>
<g>
</g>
<g>
</g>
<g>
</g>
<g>
</g>
<g>
</g>
</svg>
