<svg id="Layer_1" height="512" viewBox="0 0 512 512" width="512" xmlns="http://www.w3.org/2000/svg" data-name="Layer 1"><path d="m27.03 142.97-1.32 14.8q-4.035 45.24-4.61 90.63l.4.01a81.578 81.578 0 0 0 81.58-81.57v-23.87z" fill="#c8d9ed"/><path d="m489.64 173.09-2.69-30.12h-74.9v23.87a81.568 81.568 0 0 0 81.47 81.57q-.52-37.71-3.88-75.32z" fill="#c8d9ed"/><path d="m103.08 142.97v23.87a81.578 81.578 0 0 1 -81.58 81.57l-.4-.01q-.63 49.065 2.79 98.09v.28a12.592 12.592 0 0 1 2.57.26l195.11 41.03c.14.03.28.06.42.1l19.91-28.78a17.852 17.852 0 0 1 15.07-7.75l.02-.6v-208.06z" fill="#7fbbdd"/><path d="m493.52 248.41a81.568 81.568 0 0 1 -81.47-81.57v-23.87h-156.05v.33l.99 207.73-.02.6a17.844 17.844 0 0 1 14.72 8.02l19.01 28.59.01.03c.24-.07.48-.13.73-.18l194.11-40.11a11.966 11.966 0 0 1 3.9-.16l1.4-10.87q3.285-44.205 2.67-88.54z" fill="#73bad8"/><path d="m304.87 143.3v126.07a35.226 35.226 0 0 1 -35.23 35.23h-12.65v-161.63h47.88z" fill="#c8d9ed"/><path d="m221.99 388.16a11.968 11.968 0 0 1 9.07 12.61l-2.26 27.7a12 12 0 0 1 -14.43 10.77l-195.11-41.03a11.983 11.983 0 0 1 -9.49-12.72l2.26-27.69a12.015 12.015 0 0 1 11.86-11.03 12.592 12.592 0 0 1 2.57.26l195.11 41.03c.14.03.28.06.42.1z" fill="#add5f2"/><path d="m489.45 347.82a12 12 0 0 1 10.49 10.95l2.3 28.7a12 12 0 0 1 -9.54 12.71l-194.1 40.11a12 12 0 0 1 -14.39-10.8l-2.3-28.69a11.978 11.978 0 0 1 8.8-12.53c.24-.07.48-.13.73-.18l194.11-40.11a11.966 11.966 0 0 1 3.9-.16z" fill="#add5f2"/><path d="m466.95 78.97h-419.92a20 20 0 0 0 -20 20v44h459.92v-44a19.994 19.994 0 0 0 -20-20z" fill="#90c1e0"/><g fill="#6aacc6"><path d="m418.71 71.46h30v77.24h-30z"/><path d="m318.71 71.46h30v77.24h-30z"/><path d="m163.29 71.46h30v77.24h-30z"/><path d="m63.29 71.46h30v77.24h-30z"/></g><path d="m124.763 203.986a6 6 0 0 0 -7.867 3.181 104.541 104.541 0 0 1 -27.91 38.176 6 6 0 0 0 7.828 9.095 116.593 116.593 0 0 0 31.129-42.585 6 6 0 0 0 -3.18-7.867z" fill="#284268"/><path d="m130.074 183.017a6 6 0 0 0 -7.1 4.649c-.348 1.667-.7 3.215-1.091 4.734a6 6 0 1 0 11.629 2.96c.43-1.691.825-3.406 1.209-5.246a6 6 0 0 0 -4.647-7.097z" fill="#284268"/><path d="m57.03 142.97v-44a20 20 0 0 1 20-20h-30a20 20 0 0 0 -20 20v44z" fill="#ccecff"/><path d="m51.2 242.81q.736-42.574 4.513-85.04l1.32-14.8h-30l-1.32 14.8q-4.035 45.24-4.61 90.63l.4.01a81.335 81.335 0 0 0 29.697-5.6z" fill="#f4f8fc"/><path d="m44.934 350.915a12.039 12.039 0 0 1 8.956-4.145v-.28q-3.42-48.975-2.79-98.09c.023-1.864.065-3.727.1-5.59a81.335 81.335 0 0 1 -29.7 5.6l-.4-.01q-.63 49.065 2.79 98.09v.28a12.592 12.592 0 0 1 2.57.26z" fill="#b6ecff"/><path d="m44.934 350.915-18.474-3.885a12.592 12.592 0 0 0 -2.57-.26 12.015 12.015 0 0 0 -11.86 11.03l-2.26 27.69a11.983 11.983 0 0 0 9.49 12.72l19.252 4.049 3.518-44.459a11.88 11.88 0 0 1 2.904-6.885z" fill="#ccecff"/><path d="m508.221 386.991-2.3-28.7a18.077 18.077 0 0 0 -9.882-14.649l.763-5.923c.014-.107.025-.215.032-.322 2.167-29.152 3.07-58.743 2.7-87.975a5.877 5.877 0 0 0 -.03-2.217c-.375-24.864-1.677-49.972-3.883-74.647l-2.671-29.858v-43.73a26.029 26.029 0 0 0 -26-26h-12.24v-1.51a6 6 0 0 0 -6-6h-30a6 6 0 0 0 -6 6v1.51h-58v-1.51a6 6 0 0 0 -6-6h-30a6 6 0 0 0 -6 6v1.51h-113.42v-1.51a6 6 0 0 0 -6-6h-30a6 6 0 0 0 -6 6v1.51h-58v-1.51a6 6 0 0 0 -6-6h-30a6 6 0 0 0 -6 6v1.51h-10.26a26.029 26.029 0 0 0 -26 26v43.73l-1.3 14.534c-2.695 30.214-4.254 60.86-4.633 91.086-.4 31.109.446 62.588 2.485 93.658a18.128 18.128 0 0 0 -11.532 15.334l-2.259 27.688a18.01 18.01 0 0 0 14.234 19.087l195.116 41.031a18 18 0 0 0 21.639-16.155l2.26-27.69a17.88 17.88 0 0 0 -6.3-15.216l16.089-23.258a12.011 12.011 0 0 1 19.861.178l15.445 23.223a17.974 17.974 0 0 0 -6.206 15.084l2.3 28.684a18 18 0 0 0 21.585 16.2l194.1-40.109a18.029 18.029 0 0 0 14.307-19.068zm-41.271-302.021a14.015 14.015 0 0 1 14 14v38h-26.24v-52zm-12.254 64h26.766l2.2 24.654c2.024 22.647 3.273 45.66 3.738 68.509a75.671 75.671 0 0 1 -69.35-75.293v-12.178a6 6 0 0 0 .66.038h30a6 6 0 0 0 5.99-5.73zm-29.986-71.51h18v65.24h-18zm-12 7.51v52h-58v-52zm-88-7.51h18v65.24h-18zm-12 7.51v52h-113.42v-52zm-13.84 64v120.4a29.262 29.262 0 0 1 -29.23 29.23h-6.65v-149.63zm-129.58-71.51h18v65.24h-18zm-12 7.51v52h-58v-52zm-88-7.51h18v65.24h-18zm-36.26 21.51a14.015 14.015 0 0 1 14-14h10.26v52h-24.26zm-1.344 59.33.833-9.333h24.781a6 6 0 0 0 5.986 5.73h30a5.974 5.974 0 0 0 3.79-1.35v13.49a75.657 75.657 0 0 1 -69.871 75.332c.506-27.869 2.001-56.052 4.481-83.869zm191.133 269.689a6 6 0 0 1 -7.214 5.38l-195.115-41.032a6 6 0 0 1 -4.74-6.359l2.26-27.695a6.029 6.029 0 0 1 5.88-5.513 6.607 6.607 0 0 1 1.335.131l195.1 41.028.081.018c.052.013.1.027.154.039a5.943 5.943 0 0 1 4.523 6.3zm28.171-81.676a23.952 23.952 0 0 0 -14.025 9.653l-17.634 25.492-189.748-39.9c-1.909-28.961-2.757-58.282-2.527-87.326a87.683 87.683 0 0 0 82.024-87.392v-17.87h48.22a6 6 0 0 0 5.986 5.73h30a6 6 0 0 0 5.986-5.73h51.718zm12 .152v-35.865h6.65a41.276 41.276 0 0 0 41.23-41.23v-120.4h1.854a6 6 0 0 0 5.986 5.73h30a6 6 0 0 0 5.986-5.73h51.354v17.87a87.7 87.7 0 0 0 81.518 87.36c.222 27.325-.672 54.928-2.69 82.148l-.747 5.8-190.676 39.4-16.767-25.216a23.94 23.94 0 0 0 -13.698-9.867zm228.5 47.839-194.1 40.11a6 6 0 0 1 -7.2-5.4l-2.3-28.7a5.976 5.976 0 0 1 4.39-6.253l.1-.029c.078-.023.157-.044.269-.066l194.1-40.108a6.216 6.216 0 0 1 1.242-.129 5.917 5.917 0 0 1 .728.046 6.015 6.015 0 0 1 5.237 5.475l2.3 28.695a6.011 6.011 0 0 1 -4.77 6.355z" fill="#284268"/></svg>