<svg id="Layer_3" height="512" viewBox="0 0 64 64" width="512" xmlns="http://www.w3.org/2000/svg" data-name="Layer 3"><path d="m63 30.45c0 5.55-13.89 10.12-31 10.12a75.59 75.59 0 0 1 -20.86-2.64c-6.22-1.85-10.14-4.52-10.14-7.48 0-4 7.1-7.41 17.25-9.08h27.45c9.97 1.63 17.3 5.16 17.3 9.08z" fill="#f78453"/><path d="m45.7 13.49v7.51l-1.29.4a44 44 0 0 1 -11.48 1.78 44.07 44.07 0 0 1 -7-.42 42.86 42.86 0 0 1 -6.25-1.34l-1.38-.42v-7.51a7.47 7.47 0 0 1 13.7-4.13 7.47 7.47 0 0 1 13.7 4.13z" fill="#f78453"/><path d="m32 9.36s-5.75-2.61-6 2.64c-.11 2.24-.12 5.91-.1 9.36v1.35c0 4.08.1 7.54.1 7.54l-.2.1-14.66 7.58c-6.22-1.85-10.14-4.52-10.14-7.48 0-4 7.1-7.41 17.25-9.08v-7.88a7.47 7.47 0 0 1 13.75-4.13z" fill="#f26959"/><path d="m45.7 21v7.16a34.84 34.84 0 0 1 -13.39 2.8 34.19 34.19 0 0 1 -6.51-.56 34 34 0 0 1 -7.5-2.24v-7.16l1.35.42a42.86 42.86 0 0 0 6.25 1.34 44.07 44.07 0 0 0 7 .42 44 44 0 0 0 11.48-1.78z" fill="#67bfa6"/><g opacity=".5"><path d="m41.5 11.5a.5.5 0 0 1 -.48-.36 2.53 2.53 0 0 0 -2.93-1.65.51.51 0 0 1 -.58-.4.5.5 0 0 1 .4-.58 3.49 3.49 0 0 1 4.09 2.35.5.5 0 0 1 -.33.62z" fill="#fff"/></g><g opacity=".5"><path d="m25.9 38a29 29 0 0 1 -7.29-1 .5.5 0 1 1 .28-1 27.6 27.6 0 0 0 8.11 1 .49.49 0 0 1 .53.47.5.5 0 0 1 -.53.53c-.35 0-.73 0-1.1 0z" fill="#fff"/></g><path d="m0 30.45c0 4 6.19 8.19 17.88 10.08.33 10.24 6.53 18.47 14.12 18.47s13.82-8.25 14.1-18.53a59.84 59.84 0 0 0 6.17-1.32 1 1 0 0 0 -.53-1.93 76.88 76.88 0 0 1 -19.74 2.35c-17.67 0-30-4.81-30-9.12 0-3.1 6.1-6.22 15.28-7.88v5.55a1 1 0 0 0 .61.92 36.21 36.21 0 0 0 14.11 2.88h.31a35.76 35.76 0 0 0 13.78-2.92 1 1 0 0 0 .61-.92v-5.52c9.05 1.69 15.3 4.87 15.3 7.89 0 1.55-1.61 3.21-4.52 4.66a1 1 0 0 0 .42 1.89 1 1 0 0 0 .44-.1c4.66-2.32 5.66-4.79 5.66-6.45 0-5-8.77-8.38-17.28-9.93v-4.77a1 1 0 0 0 -2 0v4.46a43 43 0 0 1 -11.79 1.92 42.63 42.63 0 0 1 -13.63-1.92v-6.72a6.47 6.47 0 0 1 11.87-3.58 1 1 0 0 0 1.67 0 6.47 6.47 0 0 1 11.35 1.09 1 1 0 1 0 1.81-.81 8.47 8.47 0 0 0 -14-2.45 8.47 8.47 0 0 0 -14.7 5.74v7c-10.83 1.95-17.3 5.63-17.3 9.97zm44.09 10.31c-.38 9.04-5.65 16.24-12.09 16.24s-11.69-7.17-12.09-16.17a92.64 92.64 0 0 0 12.09.74 90 90 0 0 0 12.09-.81zm-12.09-16.62h1a45 45 0 0 0 11.7-1.84v5.14a33.72 33.72 0 0 1 -12.4 2.47 34 34 0 0 1 -13-2.47v-5.14a44.92 44.92 0 0 0 12.7 1.84z" fill="#231f20"/></svg>