<svg id="Flat" height="512" viewBox="0 0 512 512" width="512" xmlns="http://www.w3.org/2000/svg"><path d="m376 440h56l-38.211-211.794a64 64 0 0 0 -62.904-52.206h-149.77a64 64 0 0 0 -62.9 52.206l-38.215 211.794h54.462l-6.462 48h256l-8.308-48z" fill="#ff9494"/><path d="m240 184h32v304h-32z" fill="#eb423f"/><g fill="#ed6f6d"><path d="m208 256a8 8 0 0 1 -8-8v-19.155a61.775 61.775 0 0 1 27.562-51.5 8 8 0 0 1 8.876 13.312 45.807 45.807 0 0 0 -20.438 38.188v19.155a8 8 0 0 1 -8 8z"/><path d="m304 256a8 8 0 0 1 -8-8v-19.155a45.807 45.807 0 0 0 -20.438-38.189 8 8 0 1 1 8.876-13.312 61.775 61.775 0 0 1 27.562 51.501v19.155a8 8 0 0 1 -8 8z"/><path d="m176.006 464a8.008 8.008 0 0 1 -7.767-9.942l16-64a8 8 0 0 1 15.522 3.88l-16 64a8 8 0 0 1 -7.755 6.062z"/><path d="m335.994 464a8 8 0 0 1 -7.755-6.062l-16-64a8 8 0 1 1 15.522-3.88l16 64a8.008 8.008 0 0 1 -7.767 9.942z"/></g><path d="m432 440h-56v-32h50.23z" fill="#eb423f"/><path d="m80 440h56v-32h-50.23z" fill="#eb423f"/><path d="m328 136c0 44.183-32.235 48-72 48s-72-3.817-72-48c0-64 32.235-112 72-112s72 48 72 112z" fill="#ff9494"/><path d="m256 56c-22.091 0-40 37.49-40 64v40a24 24 0 0 0 24 24h32a24 24 0 0 0 24-24v-40c0-26.51-17.909-64-40-64" fill="#ed6f6d"/><path d="m134.472 448a8 8 0 0 1 -7.939-9.068l21.538-160a8 8 0 0 1 15.858 2.134l-21.538 160a8 8 0 0 1 -7.919 6.934z" fill="#ed6f6d"/><path d="m375.683 448a8 8 0 0 1 -7.873-6.637l-27.693-160a8 8 0 1 1 15.766-2.728l27.692 160a8 8 0 0 1 -7.892 9.365z" fill="#ed6f6d"/></svg>