<svg height="512pt" viewBox="-89 0 512 512" width="512pt" xmlns="http://www.w3.org/2000/svg"><path d="m327.765625 124.789062c-12.226563-9.582031-19.238281-23.957031-19.238281-39.441406v-85.347656h-84.949219v15.058594c0 31.332031-25.488281 56.820312-56.816406 56.820312-31.324219 0-56.808594-25.488281-56.808594-56.820312v-15.058594h-84.949219v85.347656c0 15.484375-7.011718 29.859375-19.234375 39.441406l-5.769531 4.523438v382.6875h333.53125v-382.6875zm-272.640625-39.441406v-55.226562h26.011719c7.152343 40.785156 42.824219 71.878906 85.625 71.878906 42.804687 0 78.480469-31.09375 85.632812-71.878906h26.011719v55.226562c0 22.246094 9.027344 43.058594 25.003906 58.175782v284.5h-273.289062v-284.5c15.976562-15.117188 25.003906-35.929688 25.003906-58.175782zm-25.003906 396.53125v-23.734375h273.289062v23.734375zm0 0"/><path d="m166.617188 341.703125.167968-.167969.152344.148438 65.109375-65.335938c17.359375-17.425781 17.339844-45.75-.054687-63.144531-17.425782-17.421875-45.773438-17.421875-63.195313 0l-2.03125 2.03125-2.027344-2.03125c-8.441406-8.4375-19.664062-13.085937-31.601562-13.085937-11.933594 0-23.15625 4.648437-31.597657 13.085937-17.390624 17.394531-17.417968 45.71875-.054687 63.144531zm-43.78125-107.199219c2.753906-2.75 6.410156-4.265625 10.300781-4.265625s7.546875 1.515625 10.300781 4.265625l23.328125 23.328125 23.324219-23.328125c5.679687-5.675781 14.921875-5.679687 20.601562 0 5.667969 5.667969 5.675782 14.902344.019532 20.582032l-43.851563 44.003906-.113281-.113282-.09375.09375-43.832032-43.984374c-5.660156-5.679688-5.652343-14.914063.015626-20.582032zm0 0"/></svg>