<svg xmlns="http://www.w3.org/2000/svg" height="512pt" version="1.1" viewBox="0 0 512 512" width="512pt">
<g id="surface1">
<path d="M 0 256 C 0 114.613281 114.613281 0 256 0 C 397.386719 0 512 114.613281 512 256 C 512 338.6875 472.785156 412.207031 411.949219 459.011719 C 368.765625 425.789062 314.695312 406.019531 256 406.019531 C 197.304688 406.019531 143.234375 425.789062 100.050781 459.011719 C 39.214844 412.207031 0 338.6875 0 256 Z M 0 256 " style=" stroke:none;fill-rule:nonzero;fill:rgb(0.392157%,41.568627%,45.490196%);fill-opacity:1;" />
<path d="M 376.15625 120.273438 C 369.710938 113.824219 368.15625 103.960938 372.304688 95.84375 L 390.433594 60.359375 C 390.679688 59.882812 391.363281 59.882812 391.609375 60.359375 L 409.742188 95.84375 C 413.890625 103.960938 412.332031 113.824219 405.886719 120.273438 C 397.675781 128.480469 384.367188 128.480469 376.15625 120.273438 Z M 99.566406 203.929688 C 99.320312 203.449219 98.636719 203.449219 98.390625 203.929688 L 80.257812 239.414062 C 76.109375 247.53125 77.667969 257.394531 84.113281 263.84375 C 92.324219 272.050781 105.632812 272.050781 113.84375 263.84375 C 120.289062 257.394531 121.847656 247.53125 117.699219 239.414062 Z M 409.566406 203.929688 C 409.320312 203.449219 408.636719 203.449219 408.390625 203.929688 L 390.257812 239.414062 C 386.109375 247.53125 387.667969 257.394531 394.113281 263.84375 C 402.324219 272.050781 415.632812 272.050781 423.84375 263.84375 C 430.289062 257.394531 431.847656 247.53125 427.699219 239.414062 Z M 484.855469 141.191406 L 472.257812 165.84375 C 468.109375 173.960938 469.667969 183.824219 476.113281 190.269531 C 483.714844 197.867188 495.671875 198.421875 503.921875 191.953125 C 499.351562 174.210938 492.914062 157.222656 484.855469 141.191406 Z M 58.269531 93.394531 C 48.144531 105.691406 39.152344 118.953125 31.4375 133.011719 C 32.46875 135.679688 34.046875 138.160156 36.15625 140.273438 C 44.367188 148.480469 57.675781 148.480469 65.886719 140.273438 C 72.332031 133.824219 73.890625 123.960938 69.742188 115.84375 Z M 58.269531 93.394531 " style=" stroke:none;fill-rule:nonzero;fill:rgb(0.392157%,32.156863%,35.294118%);fill-opacity:1;" />
<path d="M 498.949219 336.871094 C 488.902344 367.066406 473.398438 394.765625 453.585938 418.785156 L 412 377.203125 L 412 458.972656 C 368.808594 492.21875 314.71875 512 256 512 C 197.28125 512 143.191406 492.21875 100 458.972656 L 100 376.984375 L 58.316406 418.667969 C 38.5625 394.6875 23.097656 367.050781 13.066406 336.925781 L 97.121094 253.160156 C 99.019531 251.269531 101.28125 249.777344 103.769531 248.777344 L 116.285156 243.734375 C 136.597656 235.921875 157.40625 229.890625 178.480469 225.609375 C 147.804688 198.429688 128 155.515625 128 107.214844 C 128 25.046875 185.308594 0 256 0 C 326.691406 0 384 25.046875 384 107.214844 C 384 155.515625 364.195312 198.429688 333.519531 225.609375 C 354.59375 229.894531 375.402344 235.925781 395.714844 243.738281 L 408.054688 248.445312 C 410.6875 249.449219 413.074219 250.996094 415.066406 252.988281 Z M 498.949219 336.871094 " style=" stroke:none;fill-rule:nonzero;fill:rgb(99.215686%,74.901961%,26.27451%);fill-opacity:1;" />
<path d="M 256 56 C 290.242188 56 318 84.609375 318 138.472656 C 318 192.335938 290.242188 236 256 236 C 221.757812 236 194 192.335938 194 138.472656 C 194 84.609375 221.757812 56 256 56 Z M 256 56 " style=" stroke:none;fill-rule:nonzero;fill:rgb(96.078431%,49.411765%,0%);fill-opacity:1;" />
<path d="M 256 56 C 263.75 56 271.160156 57.480469 278 60.371094 C 254.621094 70.257812 238 96.796875 238 138.472656 C 238 180.144531 254.621094 215.710938 278 229.671875 C 271.160156 233.757812 263.746094 236 256 236 C 221.757812 236 194 192.335938 194 138.472656 C 194 84.609375 221.757812 56 256 56 Z M 256 56 " style=" stroke:none;fill-rule:nonzero;fill:rgb(88.627451%,45.882353%,0%);fill-opacity:1;" />
<path d="M 356 215 L 356 245 C 356 247.761719 353.761719 250 351 250 L 276 250 L 276 511.226562 C 269.398438 511.738281 262.730469 512 256 512 C 249.269531 512 242.601562 511.738281 236 511.226562 L 236 250 C 236 250 211.070312 249.988281 189.824219 249.972656 C 170.902344 249.957031 152.753906 257.449219 139.351562 270.800781 L 31.203125 378.574219 C 23.980469 365.355469 17.894531 351.429688 13.066406 336.925781 L 97.121094 253.160156 C 99.019531 251.269531 101.28125 249.777344 103.769531 248.777344 L 116.28125 243.738281 C 129.339844 238.714844 142.597656 234.425781 156 230.863281 L 156 215 C 156 212.238281 158.238281 210 161 210 L 163.464844 210 C 141.496094 183.289062 128 147.085938 128 107.214844 C 128 25.046875 185.308594 0 256 0 C 262.339844 0 268.574219 0.203125 274.667969 0.632812 C 212.824219 4.957031 165.335938 32.414062 165.335938 107.214844 C 165.335938 147.089844 178.832031 183.289062 200.804688 210 L 351 210 C 353.761719 210 356 212.238281 356 215 Z M 120 357.167969 C 108.953125 357.167969 100 366.121094 100 377.167969 L 100 458.972656 C 112.476562 468.574219 125.855469 477.0625 140 484.265625 L 140 377.167969 C 140 366.121094 131.046875 357.167969 120 357.167969 Z M 120 357.167969 " style=" stroke:none;fill-rule:nonzero;fill:rgb(99.215686%,65.882353%,0%);fill-opacity:1;" />
<path d="M 356 215 L 356 245 C 356 247.761719 353.761719 250 351 250 L 210 250 C 198.953125 250 190 241.046875 190 230 C 190 218.953125 198.953125 210 210 210 L 351 210 C 353.761719 210 356 212.238281 356 215 Z M 284.15625 290 L 230 290 C 218.953125 290 210 298.953125 210 310 C 210 321.046875 218.953125 330 230 330 L 284.15625 330 C 286.917969 330 289.15625 327.761719 289.15625 325 L 289.15625 295 C 289.15625 292.238281 286.917969 290 284.15625 290 Z M 284.15625 370 L 230 370 C 218.953125 370 210 378.953125 210 390 C 210 401.046875 218.953125 410 230 410 L 284.15625 410 C 286.917969 410 289.15625 407.761719 289.15625 405 L 289.15625 375 C 289.15625 372.238281 286.917969 370 284.15625 370 Z M 284.15625 450 L 230 450 C 218.953125 450 210 458.953125 210 470 C 210 481.046875 218.953125 490 230 490 L 284.15625 490 C 286.917969 490 289.15625 487.761719 289.15625 485 L 289.15625 455 C 289.15625 452.238281 286.917969 450 284.15625 450 Z M 284.15625 450 " style=" stroke:none;fill-rule:nonzero;fill:rgb(99.215686%,87.45098%,65.098039%);fill-opacity:1;" />
<path d="M 362.503906 486.5625 C 352.179688 476.238281 349.683594 460.429688 356.328125 447.425781 L 385.378906 390.574219 C 385.769531 389.808594 386.867188 389.808594 387.261719 390.574219 L 416.3125 447.425781 C 422.957031 460.429688 420.464844 476.234375 410.136719 486.5625 C 396.980469 499.71875 375.65625 499.71875 362.503906 486.5625 Z M 362.503906 486.5625 " style=" stroke:none;fill-rule:nonzero;fill:rgb(67.843137%,90.980392%,94.117647%);fill-opacity:1;" />
<path d="M 400.453125 493.328125 C 388.007812 499.082031 372.769531 496.828125 362.503906 486.566406 C 352.179688 476.238281 349.683594 460.429688 356.328125 447.425781 L 365.152344 430.152344 C 361.300781 448.019531 366.582031 467.03125 379.949219 480.398438 C 385.9375 486.386719 392.96875 490.695312 400.453125 493.328125 Z M 400.453125 493.328125 " style=" stroke:none;fill-rule:nonzero;fill:rgb(51.764706%,87.058824%,91.764706%);fill-opacity:1;" />
<path d="M 410.121094 465.421875 C 410.121094 472.726562 406.566406 478.644531 402.1875 478.644531 C 397.804688 478.644531 394.253906 472.726562 394.253906 465.421875 C 394.253906 458.121094 397.804688 452.199219 402.1875 452.199219 C 406.566406 452.199219 410.121094 458.121094 410.121094 465.421875 Z M 410.121094 465.421875 " style=" stroke:none;fill-rule:nonzero;fill:rgb(82.745098%,94.509804%,96.078431%);fill-opacity:1;" />
</g>
</svg>